<svg version="1.1" id="Aniversariante" xmlns="http://www.w3.org/2000/svg" xmlns:xlink="http://www.w3.org/1999/xlink" width="445pt" height="445pt" viewBox="-11 0 445 445.9712" xml:space="preserve">
	<path d="m414.808594 377.972656h-18.316406v-142.511718c0-26.464844-21.117188-48.488282-47.585938-48.488282h-97.414062v-95.972656c0-4.421875-4.070313-8.027344-8.488282-8.027344h-63.023437c-4.417969 0-8.488281 3.605469-8.488281 8.027344v95.972656h-97.417969c-26.46875 0-47.582031 22.023438-47.582031 48.488282v142.511718h-18.316407c-2.109375.050782-4.105469.945313-5.550781 2.484375-1.441406 1.535157-2.210938 3.585938-2.132812 5.691407v51.800781c-.074219 2.089843.703124 4.121093 2.148437 5.632812 1.445313 1.507813 3.441406 2.371094 5.535156 2.390625h406.632813c2.089844-.019531 4.085937-.882812 5.53125-2.390625 1.449218-1.511719 2.222656-3.542969 2.152344-5.632812v-51.800781c.078124-2.105469-.691407-4.15625-2.136719-5.691407-1.441407-1.539062-3.441407-2.433593-5.546875-2.484375zm-227.316406-279h48v88h-48zm-113.417969 104h274.832031c17.648438 0 31.585938 14.84375 31.585938 32.488282v43.28125c-12 2.03125-20.269532 8.726562-26.636719 14.300781-7 6.128906-12.417969 10.96875-24.199219 10.96875s-17.253906-4.839844-24.25-10.96875c-7.597656-6.652344-17.023438-14.933594-34.816406-14.933594-17.792969 0-27.230469 8.28125-34.828125 14.933594-7 6.128906-12.511719 10.96875-24.289063 10.96875s-17.300781-4.839844-24.300781-10.96875c-7.59375-6.652344-17.046875-14.933594-34.835937-14.933594-17.792969 0-27.246094 8.28125-34.839844 14.933594-7 6.128906-12.519532 10.96875-24.300782 10.96875s-17.089843-4.839844-24.085937-10.96875c-6.351563-5.570313-14.617187-12.273438-26.617187-14.300781v-43.28125c0-17.644532 13.9375-32.488282 31.582031-32.488282zm-31.582031 92.054688c6 1.675781 10.898437 5.507812 16.085937 10.054687 7.59375 6.652344 16.941406 14.929688 34.734375 14.929688s27.191406-8.277344 34.789062-14.929688c7-6.128906 12.5-10.96875 24.269532-10.96875 11.769531 0 17.289062 4.839844 24.285156 10.96875 7.59375 6.652344 17.039062 14.929688 34.832031 14.929688s27.242188-8.277344 34.835938-14.929688c7-6.128906 12.519531-10.96875 24.300781-10.96875s17.300781 4.839844 24.300781 10.96875c7.597657 6.652344 17.046875 14.929688 34.84375 14.929688 17.792969 0 27.035157-8.277344 34.632813-14.929688 5.1875-4.546875 10.089844-8.378906 16.089844-10.058593v82.949218h-338zm364 134.945312h-390v-36h390zm0 0"/>
	<path d="m187.03125 71.171875c.238281.246094.484375.492187.726562.726563 6.339844 6.1875 14.859376 9.640624 23.71875 9.621093h.53125c9.042969-.113281 17.664063-3.839843 23.945313-10.347656.039063-.039063.074219-.078125.109375-.117187 12.886719-13.910157 12.886719-35.398438 0-49.308594-.039062-.042969-.082031-.089844-.121094-.132813l-18.722656-19.199219c-1.503906-1.542968-3.570312-2.414062-5.726562-2.414062s-4.222657.871094-5.730469 2.414062l-18.71875 19.199219c-.042969.042969-.085938.089844-.125.132813-12.886719 13.910156-12.886719 35.398437 0 49.308594.035156.035156.074219.074218.113281.117187zm11.535156-38.460937 12.925782-13.257813 12.921874 13.257813c7.109376 7.738281 7.109376 19.632812 0 27.371093-6.964843 7.117188-18.375 7.261719-25.519531.324219-.109375-.105469-.21875-.214844-.328125-.324219-7.109375-7.738281-7.109375-19.632812 0-27.371093zm0 0"/>
</svg>