<svg version="1.1" id="Boletim" xmlns="http://www.w3.org/2000/svg" xmlns:xlink="http://www.w3.org/1999/xlink" viewBox="0 0 480 480" width="480pt" xml:space="preserve">
	<path d="m440 144h-8v-72c0-.175781-.089844-.320312-.097656-.496094-.046875-.71875-.191406-1.429687-.429688-2.113281-.089844-.253906-.152344-.503906-.265625-.75-.375-.84375-.898437-1.617187-1.542969-2.28125l-64-64c-.667968-.644531-1.445312-1.167969-2.296874-1.542969-.230469-.113281-.480469-.175781-.71875-.265625-.699219-.246093-1.429688-.390625-2.167969-.429687-.175781-.0312502-.3125-.121094-.480469-.121094h-280c-17.671875 0-32 14.328125-32 32v112h-8c-22.082031.027344-39.9726562 17.917969-40 40v256c.0273438 22.082031 17.917969 39.972656 40 40h400c22.082031-.027344 39.972656-17.917969 40-40v-256c-.027344-22.082031-17.917969-39.972656-40-40zm-244.558594 176h89.117188l136.800781 144h-362.71875zm244.558594-160c11.714844-.003906 21.71875 8.449219 23.671875 20l-31.671875 22.054688v-42.054688zm-35.3125-96h-28.6875c-4.417969 0-8-3.582031-8-8v-28.6875zm-340.6875-32c0-8.835938 7.164062-16 16-16h272v40c0 13.253906 10.746094 24 24 24h40v133.175781l-130.511719 90.824219h-90.976562l-130.511719-90.824219zm-24 128h8v42.054688l-31.671875-22.015626c1.933594-11.566406 11.945313-20.039062 23.671875-20.039062zm-24 280v-240.695312l163.785156 113.941406-142.984375 150.539062c-11.910156-1.601562-20.800781-11.769531-20.800781-23.785156zm427.199219 23.785156-142.984375-150.539062 163.785156-113.941406v240.695312c0 12.015625-8.890625 22.183594-20.800781 23.785156zm0 0"/>
	<path d="m168 64h144c4.417969 0 8-3.582031 8-8s-3.582031-8-8-8h-144c-4.417969 0-8 3.582031-8 8s3.582031 8 8 8zm0 0"/>
	<path d="m96 104c0 4.417969 3.582031 8 8 8h272c4.417969 0 8-3.582031 8-8s-3.582031-8-8-8h-272c-4.417969 0-8 3.582031-8 8zm0 0"/>
	<path d="m376 144h-272c-4.417969 0-8 3.582031-8 8s3.582031 8 8 8h272c4.417969 0 8-3.582031 8-8s-3.582031-8-8-8zm0 0"/>
	<path d="m376 192h-272c-4.417969 0-8 3.582031-8 8s3.582031 8 8 8h272c4.417969 0 8-3.582031 8-8s-3.582031-8-8-8zm0 0"/>
	<path d="m328 240h-176c-4.417969 0-8 3.582031-8 8s3.582031 8 8 8h176c4.417969 0 8-3.582031 8-8s-3.582031-8-8-8zm0 0"/>
	<path d="m88 80c4.417969 0 8-3.582031 8-8v-16c0-4.417969 3.582031-8 8-8h16c4.417969 0 8-3.582031 8-8s-3.582031-8-8-8h-16c-13.253906 0-24 10.746094-24 24v16c0 4.417969 3.582031 8 8 8zm0 0"/>
</svg>