<svg version="1.1" id="Diretório" xmlns="http://www.w3.org/2000/svg" xmlns:xlink="http://www.w3.org/1999/xlink" x="0px" y="0px" viewBox="0 0 512 512" style="enable-background:new 0 0 512 512;" xml:space="preserve">
	<path d="M482,377V120c0-33.084-26.916-60-60-60H262.213l-60-60H30v377h211v55H30v80h30v-50h75.5v50h30v-50H241v50h30v-50h75.5v50 h30v-50H452v50h30v-80H271v-55H482z M60,30h129.787l30,30H90c-10.92,0-21.17,2.933-30,8.052V30z M60,347V120 c0-16.542,13.458-30,30-30h332c16.542,0,30,13.458,30,30v227H60z"/>
</svg>