<svg version="1.1" id="Edital" xmlns="http://www.w3.org/2000/svg" xmlns:xlink="http://www.w3.org/1999/xlink" height="512" width="512" viewBox="0 0 512 512" enable-background="new 0 0 512 512" xml:space="preserve">
	<path d="m504.5 0h-497c-4.142 0-7.5 3.357-7.5 7.5v40.406c0 4.143 3.358 7.5 7.5 7.5h8.663v360.199c0 4.143 3.358 7.5 7.5 7.5h224.837v34.528c-11.642 3.28-20.203 13.987-20.203 26.663 0 15.276 12.428 27.704 27.703 27.704s27.703-12.428 27.703-27.703c0-12.676-8.561-23.384-20.203-26.663v-34.528h224.837c4.142 0 7.5-3.357 7.5-7.5v-360.2h8.663c4.142 0 7.5-3.357 7.5-7.5v-40.406c0-4.143-3.358-7.5-7.5-7.5zm-235.797 484.297c0 7.005-5.699 12.703-12.703 12.703s-12.703-5.698-12.703-12.703 5.699-12.703 12.703-12.703 12.703 5.698 12.703 12.703zm228.297-443.891h-71.5c-4.142 0-7.5 3.357-7.5 7.5s3.358 7.5 7.5 7.5h55.337v352.699h-449.674v-352.699h359.4c4.142 0 7.5-3.357 7.5-7.5s-3.358-7.5-7.5-7.5h-375.563v-25.406h482z"/>
	<path d="m108.516 242.286h80.813c4.142 0 7.5-3.357 7.5-7.5v-60.609c0-4.143-3.358-7.5-7.5-7.5h-80.813c-4.142 0-7.5 3.357-7.5 7.5v60.609c0 4.143 3.358 7.5 7.5 7.5zm7.5-53.109 50.813 38.109h-50.813zm65.813 30.609-50.813-38.109h50.813z"/>
	<path d="m108.516 273.602h80.813c4.142 0 7.5-3.357 7.5-7.5s-3.358-7.5-7.5-7.5h-80.813c-4.142 0-7.5 3.357-7.5 7.5s3.358 7.5 7.5 7.5z"/>
	<path d="m108.516 303.906h80.813c4.142 0 7.5-3.357 7.5-7.5s-3.358-7.5-7.5-7.5h-80.813c-4.142 0-7.5 3.357-7.5 7.5s3.358 7.5 7.5 7.5z"/>
	<path d="m108.516 334.211h50.508c4.142 0 7.5-3.357 7.5-7.5s-3.358-7.5-7.5-7.5h-50.508c-4.142 0-7.5 3.357-7.5 7.5s3.358 7.5 7.5 7.5z"/>
	<path d="m410.984 174.177c0-4.143-3.358-7.5-7.5-7.5h-80.813c-4.142 0-7.5 3.357-7.5 7.5v30.305c0 4.143 3.358 7.5 7.5 7.5h80.813c4.142 0 7.5-3.357 7.5-7.5zm-15 22.804h-65.813v-15.305h65.813z"/>
	<path d="m403.484 258.602h-80.813c-4.142 0-7.5 3.357-7.5 7.5s3.358 7.5 7.5 7.5h80.813c4.142 0 7.5-3.357 7.5-7.5s-3.358-7.5-7.5-7.5z"/>
	<path d="m410.984 296.406c0-4.143-3.358-7.5-7.5-7.5h-80.813c-4.142 0-7.5 3.357-7.5 7.5s3.358 7.5 7.5 7.5h80.813c4.142 0 7.5-3.357 7.5-7.5z"/>
	<path d="m322.671 319.211c-4.142 0-7.5 3.357-7.5 7.5s3.358 7.5 7.5 7.5h50.508c4.142 0 7.5-3.357 7.5-7.5s-3.358-7.5-7.5-7.5z"/>
	<path d="m403.484 228.297h-80.813c-4.142 0-7.5 3.357-7.5 7.5s3.358 7.5 7.5 7.5h80.813c4.142 0 7.5-3.357 7.5-7.5s-3.358-7.5-7.5-7.5z"/>
	<path d="m219.633 117.18h-48.058v-22.806c0-4.143-3.358-7.5-7.5-7.5h-30.305c-4.142 0-7.5 3.357-7.5 7.5v22.806h-48.057c-4.142 0-7.5 3.357-7.5 7.5v123.862c0 4.143 3.358 7.5 7.5 7.5s7.5-3.357 7.5-7.5v-116.362h40.558v12.702c0 4.143 3.358 7.5 7.5 7.5h30.305c4.142 0 7.5-3.357 7.5-7.5v-12.702h40.558v217.34h-126.421v-66.02c0-4.143-3.358-7.5-7.5-7.5s-7.5 3.357-7.5 7.5v73.52c0 4.143 3.358 7.5 7.5 7.5h141.42c4.142 0 7.5-3.357 7.5-7.5v-232.34c0-4.143-3.358-7.5-7.5-7.5zm-63.058 20.202h-15.305v-35.508h15.305z"/>
	<path d="m385.729 94.374c0-4.143-3.358-7.5-7.5-7.5h-30.305c-4.142 0-7.5 3.357-7.5 7.5v22.806h-48.054c-4.142 0-7.5 3.357-7.5 7.5v232.34c0 4.143 3.358 7.5 7.5 7.5h141.42c4.142 0 7.5-3.357 7.5-7.5v-143.52c0-4.143-3.358-7.5-7.5-7.5s-7.5 3.357-7.5 7.5v136.02h-126.42v-217.34h40.555v12.702c0 4.143 3.358 7.5 7.5 7.5h30.305c4.142 0 7.5-3.357 7.5-7.5v-12.702h40.561v46.362c0 4.143 3.358 7.5 7.5 7.5s7.5-3.357 7.5-7.5v-53.862c0-4.143-3.358-7.5-7.5-7.5h-48.061v-22.806zm-15 43.008h-15.305v-35.508h15.305z"/>
</svg>