<svg version="1.1" id="Filiação" xmlns="http://www.w3.org/2000/svg" xmlns:xlink="http://www.w3.org/1999/xlink" x="0px" y="0px" viewBox="0 0 512 512" style="enable-background:new 0 0 512 512;" xml:space="preserve">
	<path d="M508.551,326.182c-4.6-11.102-13.246-19.749-24.349-24.347c-5.499-2.277-11.286-3.432-17.204-3.432 c-13.048,0-25.102,5.567-33.471,14.898l-32.042-13.272c4.226-13.94,6.509-28.718,6.509-44.02c0-15.306-2.284-30.086-6.512-44.031 l32.045-13.273c8.371,9.335,20.426,14.903,33.476,14.903c5.918,0,11.706-1.155,17.206-3.433 c22.918-9.495,33.839-35.863,24.347-58.781c-6.991-16.875-23.311-27.78-41.576-27.78c-5.919,0-11.707,1.155-17.207,3.434 c-18.059,7.481-28.66,25.44-27.702,43.932l-32.102,13.297c-14.168-26.355-35.885-48.072-62.242-62.239l13.293-32.092 c0.787,0.041,1.576,0.065,2.368,0.065c18.267,0,34.586-10.904,41.576-27.782c4.599-11.102,4.598-23.332-0.001-34.433 c-4.6-11.102-13.246-19.749-24.349-24.348c-5.499-2.277-11.286-3.432-17.204-3.432c-18.267,0-34.586,10.904-41.576,27.781 c-4.599,11.102-4.599,23.332,0.001,34.434c2.612,6.306,6.533,11.815,11.464,16.245l-13.275,32.048 c-13.941-4.228-28.721-6.51-44.024-6.51s-30.08,2.283-44.022,6.509l-13.284-32.072c13.757-12.398,18.962-32.598,11.48-50.659 c-6.991-16.875-23.311-27.78-41.577-27.78c-5.918,0-11.706,1.155-17.206,3.433c-22.917,9.493-33.838,35.863-24.346,58.781 c6.991,16.875,23.31,27.78,41.576,27.78c0.79,0,1.577-0.024,2.361-0.065l13.293,32.093 c-26.356,14.167-48.074,35.883-62.242,62.238l-32.076-13.286c0.356-6.623-0.768-13.294-3.381-19.603 c-4.6-11.102-13.246-19.749-24.349-24.348c-5.499-2.277-11.286-3.432-17.204-3.432c-18.267,0-34.586,10.905-41.576,27.782 c-4.599,11.102-4.598,23.331,0.001,34.433c4.6,11.102,13.246,19.749,24.349,24.347c5.499,2.277,11.286,3.432,17.204,3.432 c13.048,0,25.102-5.567,33.471-14.898l32.046,13.273c-4.229,13.944-6.513,28.727-6.513,44.034c0,15.301,2.282,30.078,6.508,44.018 l-32.041,13.271c-8.371-9.335-20.426-14.903-33.476-14.903c-5.918,0-11.706,1.155-17.206,3.433 c-22.918,9.495-33.839,35.863-24.347,58.781c6.991,16.875,23.311,27.78,41.576,27.78c5.919,0,11.707-1.155,17.207-3.434 c18.059-7.481,28.66-25.44,27.702-43.932l32.095-13.294c14.167,26.359,35.885,48.079,62.243,62.248l-13.288,32.08 c-0.787-0.041-1.576-0.065-2.368-0.065c-18.267,0-34.586,10.904-41.576,27.782c-4.599,11.102-4.598,23.332,0.001,34.433 c4.6,11.102,13.246,19.749,24.349,24.348c5.499,2.277,11.286,3.432,17.204,3.432c18.267,0,34.586-10.904,41.576-27.781 c4.599-11.102,4.599-23.332-0.001-34.434c-2.612-6.306-6.533-11.815-11.464-16.245l13.269-32.035 c13.943,4.229,28.724,6.512,44.03,6.512c15.305,0,30.084-2.283,44.027-6.511l13.279,32.059 c-13.757,12.398-18.962,32.598-11.48,50.659c6.991,16.875,23.311,27.78,41.577,27.78c5.918,0,11.706-1.155,17.206-3.433 c22.917-9.493,33.838-35.863,24.346-58.781c-6.991-16.875-23.31-27.78-41.576-27.78c-0.79,0-1.577,0.024-2.361,0.065 l-13.288-32.081c26.358-14.169,48.076-35.888,62.244-62.247l32.069,13.283c-0.356,6.623,0.768,13.294,3.381,19.603 c4.6,11.102,13.246,19.749,24.349,24.348c5.499,2.277,11.286,3.432,17.204,3.432c18.267,0,34.586-10.905,41.576-27.782 C513.151,349.512,513.15,337.284,508.551,326.182z M461.254,154.761c1.841-0.763,3.767-1.149,5.726-1.149 c6.09,0,11.53,3.636,13.86,9.262c3.164,7.637-0.476,16.423-8.112,19.587c-1.841,0.762-3.768,1.149-5.726,1.149 c-6.09,0-11.53-3.636-13.86-9.261C449.978,166.712,453.618,157.925,461.254,154.761z M329.55,39.278 c2.33-5.626,7.771-9.261,13.86-9.261c1.958,0,3.885,0.387,5.726,1.149c3.699,1.532,6.581,4.413,8.113,8.113 c1.532,3.699,1.532,7.774,0,11.473c-2.33,5.626-7.771,9.262-13.86,9.262c-1.958,0-3.885-0.387-5.726-1.149 c-3.699-1.532-6.581-4.414-8.113-8.113C328.018,47.053,328.017,42.978,329.55,39.278z M174.347,58.86 c-1.841,0.763-3.767,1.149-5.725,1.149c-6.09,0-11.53-3.635-13.86-9.26c-3.164-7.637,0.476-16.423,8.111-19.587 c1.841-0.762,3.768-1.149,5.726-1.149c6.091,0,11.531,3.635,13.861,9.261C185.623,46.91,181.984,55.696,174.347,58.86z M58.863,174.339c-2.33,5.626-7.771,9.262-13.86,9.262c-1.958,0-3.885-0.387-5.726-1.149c-3.699-1.532-6.581-4.413-8.113-8.113 c-1.532-3.699-1.532-7.774,0-11.473c2.33-5.627,7.771-9.263,13.86-9.263c1.958,0,3.885,0.387,5.726,1.149 c3.699,1.532,6.581,4.413,8.113,8.113C60.396,166.565,60.396,170.64,58.863,174.339z M50.747,357.241 c-1.841,0.763-3.767,1.149-5.726,1.149c-6.09,0-11.53-3.636-13.86-9.262c-3.164-7.637,0.476-16.423,8.112-19.587 c1.841-0.762,3.768-1.149,5.726-1.149c6.09,0,11.53,3.636,13.86,9.262C62.024,345.291,58.384,354.077,50.747,357.241z M182.451,472.724c-2.33,5.626-7.771,9.261-13.86,9.261c-1.958,0-3.885-0.387-5.726-1.149c-3.699-1.532-6.581-4.413-8.113-8.113 c-1.532-3.699-1.532-7.774,0-11.473c2.33-5.626,7.771-9.262,13.86-9.262c1.958,0,3.885,0.387,5.726,1.149 c3.699,1.532,6.581,4.414,8.113,8.113C183.983,464.95,183.983,469.024,182.451,472.724z M337.655,453.142 c1.841-0.763,3.767-1.149,5.725-1.149c6.09-0.001,11.53,3.635,13.86,9.26c3.164,7.637-0.476,16.423-8.111,19.587 c-1.841,0.762-3.768,1.149-5.726,1.149c-6.091,0-11.531-3.635-13.861-9.26C326.378,465.093,330.018,456.306,337.655,453.142z M256.001,378.002c-23.168,0-44.846-6.492-63.315-17.751c3.688-21.126,22.156-37.246,44.316-37.246H275 c22.16,0,40.628,16.12,44.316,37.246C300.847,371.51,279.169,378.002,256.001,378.002z M206.503,243.509 c0-27.293,22.205-49.497,49.497-49.497s49.497,22.205,49.497,49.497s-22.205,49.498-49.497,49.498 S206.503,270.801,206.503,243.509z M344.502,339.885c-6.659-16.391-18.943-29.912-34.453-38.151 c15.638-14.527,25.448-35.247,25.448-58.224c0-43.834-35.661-79.496-79.496-79.496c-43.835,0-79.496,35.662-79.496,79.496 c0,22.977,9.809,43.697,25.448,58.224c-15.51,8.239-27.795,21.761-34.453,38.151c-20.746-21.879-33.492-51.416-33.492-83.876 c0-67.268,54.726-121.994,121.994-121.994c67.268,0,121.994,54.726,121.994,121.994 C377.995,288.469,365.249,318.005,344.502,339.885z M480.837,349.135c-2.33,5.627-7.771,9.263-13.86,9.263 c-1.958,0-3.885-0.387-5.726-1.149c-3.699-1.532-6.581-4.413-8.113-8.113c-1.532-3.699-1.532-7.774,0-11.473 c2.33-5.626,7.771-9.262,13.86-9.262c1.958,0,3.885,0.387,5.726,1.149c3.699,1.532,6.581,4.413,8.113,8.113 C482.369,341.362,482.369,345.436,480.837,349.135z"/>
</svg>