<svg version="1.1" id="MAP" xmlns="http://www.w3.org/2000/svg" xmlns:xlink="http://www.w3.org/1999/xlink" x="0px" y="0px" viewBox="0 0 512 512" style="enable-background:new 0 0 512 512;" xml:space="preserve">
	<path d="M32,464V48c0-8.837,7.163-16,16-16h240v64c0,17.673,14.327,32,32,32h64v48h32v-64c0.025-4.253-1.645-8.341-4.64-11.36 l-96-96C312.341,1.645,308.253-0.024,304,0H48C21.49,0,0,21.491,0,48v416c0,26.51,21.49,48,48,48h112v-32H48 C39.164,480,32,472.837,32,464z"/>
	<path d="M336,256h-64c-17.673,0-32,14.327-32,32v128h32v-48h64v48h32V288C368,270.327,353.673,256,336,256z M336,336h-64v-48h64 V336z"/>
	<path d="M214.08,257.28c-5.99-2.465-12.875-1.075-17.44,3.52L160,297.44l-36.64-36.8c-6.223-6.274-16.353-6.316-22.627-0.093 C97.681,263.574,95.975,267.702,96,272v144h32V310.56l20.64,20.64c6.241,6.204,16.319,6.204,22.56,0l20.8-20.64V416h32V272 C223.968,265.541,220.055,259.735,214.08,257.28z"/>
	<path d="M480,256h-64c-8.837,0-16,7.163-16,16v144h32v-48h48c17.673,0,32-14.327,32-32v-48C512,270.327,497.673,256,480,256z M480,336h-48v-48h48V336z"/>
</svg>