<svg version="1.1" id="MP3" xmlns="http://www.w3.org/2000/svg" xmlns:xlink="http://www.w3.org/1999/xlink" x="0px" y="0px" viewBox="0 0 512 512" style="enable-background:new 0 0 512 512;" xml:space="preserve">
	<path d="M416,176v-64c0.025-4.253-1.645-8.341-4.64-11.36l-96-96C312.341,1.645,308.253-0.024,304,0H48C21.49,0,0,21.491,0,48 v416c0,26.51,21.49,48,48,48h112v-32H48c-8.837,0-16-7.163-16-16V48c0-8.837,7.163-16,16-16h240v64c0,17.673,14.327,32,32,32h64 v48H416z"/>
	<path d="M352,256h-64c-8.837,0-16,7.163-16,16v144h32v-48h48c17.673,0,32-14.327,32-32v-48C384,270.327,369.673,256,352,256z M352,336h-48v-48h48V336z"/>
	<path d="M246.08,257.28c-5.99-2.465-12.875-1.075-17.44,3.52L192,297.44l-36.64-36.8c-6.223-6.274-16.353-6.316-22.627-0.093 c-3.052,3.027-4.758,7.155-4.733,11.453v144h32V310.56l20.64,20.64c6.241,6.204,16.319,6.204,22.56,0l20.8-20.64V416h32V272 C255.968,265.541,252.055,259.735,246.08,257.28z"/>
	<path d="M512,304c0-26.51-21.49-48-48-48h-64v32h64c8.837,0,16,7.163,16,16s-7.163,16-16,16h-64v32h64c8.837,0,16,7.163,16,16 s-7.163,16-16,16h-64v32h64c26.509-0.142,47.885-21.747,47.743-48.256c-0.063-11.719-4.41-23.01-12.223-31.744 C507.485,327.238,511.93,315.841,512,304z"/>
</svg>