<svg version="1.1" id="Podcast" xmlns="http://www.w3.org/2000/svg" xmlns:xlink="http://www.w3.org/1999/xlink" x="0px" y="0px" viewBox="0 0 512 512" style="enable-background:new 0 0 512 512;" width="512" xml:space="preserve">
	<path d="m408.429 239.071c0-8.284-6.716-15-15-15s-15 6.716-15 15c0 67.507-54.921 122.429-122.429 122.429s-122.429-54.921-122.429-122.429c0-8.284-6.716-15-15-15s-15 6.716-15 15c0 78.988 60.394 144.131 137.429 151.69v30.988h-15.125c-41.493 0-75.25 33.757-75.25 75.25 0 8.284 6.716 15 15 15h180.75c8.284 0 15-6.716 15-15 0-41.493-33.757-75.25-75.25-75.25h-15.125v-30.988c77.035-7.559 137.429-72.702 137.429-151.69zm-79.609 242.929h-145.64c6.202-17.601 23-30.25 42.695-30.25h60.25c19.695 0 36.493 12.649 42.695 30.25z"/>
	<path d="m256 331.25c49.798 0 90.313-40.514 90.313-90.312v-150.625c0-49.799-40.515-90.313-90.313-90.313s-90.313 40.514-90.313 90.313v150.625c0 49.798 40.515 90.312 90.313 90.312zm0-301.25c33.256 0 60.313 27.056 60.313 60.313v.062h-16.183c-8.284 0-15 6.716-15 15s6.716 15 15 15h16.182v30.25h-16.182c-8.284 0-15 6.716-15 15s6.716 15 15 15h16.182v30.25h-16.182c-8.284 0-15 6.716-15 15s6.716 15 15 15h16.182v.063c0 33.256-27.056 60.312-60.313 60.312s-60.313-27.056-60.313-60.312v-.063h16.182c8.284 0 15-6.716 15-15s-6.716-15-15-15h-16.182v-30.25h16.182c8.284 0 15-6.716 15-15s-6.716-15-15-15h-16.182v-30.25h16.182c8.284 0 15-6.716 15-15s-6.716-15-15-15h-16.182v-.062c.001-33.257 27.058-60.313 60.314-60.313z"/>
</svg>