<svg version="1.1" id="Registro" xmlns="http://www.w3.org/2000/svg" xmlns:xlink="http://www.w3.org/1999/xlink" x="0px" y="0px" width="480pt" height="480pt" viewBox="0 0 480 480.02006" xml:space="preserve">
	<path d="m72.019531 440.019531h64c2.863281.007813 5.511719-1.519531 6.941407-4l32-56c1.40625-2.457031 1.40625-5.476562 0-7.9375l-32-56c-1.414063-2.503906-4.066407-4.054687-6.941407-4.0625h-64c-2.867187-.003906-5.511719 1.519531-6.945312 4l-32 56c-1.40625 2.460938-1.40625 5.476563 0 7.9375l32 56c1.414062 2.503907 4.066406 4.054688 6.945312 4.0625zm4.636719-112h54.722656l27.429688 48-27.429688 48h-54.722656l-27.429688-48zm0 0"/>
	<path d="m104.152344 480.019531c2.65625 0 5.335937-.105469 8-.304687 47.921875-5.824219 86.433594-42.234375 94.9375-89.75 1.785156-13.171875 1.023437-26.566406-2.246094-39.449219l123.125-123.136719c7.8125-7.824218 17.773438-13.15625 28.617188-15.320312l21.03125-4.199219c.195312-.035156.386718-.078125.578124-.136719 57.207032-3.058594 101.976563-50.414062 101.824219-107.703125-.113281-41.746093-23.417969-79.972656-60.472656-99.199219-2.484375-1.21875-5.421875-1.070312-7.765625.394532-2.347656 1.464844-3.769531 4.039062-3.761719 6.804687v80c0 4.417969-3.582031 8-8 8h-48c-4.417969 0-8-3.582031-8-8v-80c0-2.636719-1.300781-5.105469-3.476562-6.597656-2.175781-1.4921875-4.945313-1.816406-7.40625-.867187-39.351563 14.921874-66.308594 51.519531-68.886719 93.527343-.15625.636719-.230469 1.285157-.230469 1.9375v21.496094c.035157 14.859375-5.871093 29.113281-16.402343 39.59375l-118.101563 118.109375c-12.882813-3.265625-26.273437-4.03125-39.441406-2.253906-47.507813 8.5-83.910157 46.996094-89.746094 94.902344-2.273437 28.9375 7.648437 57.503906 27.363281 78.804687 19.71875 21.296875 47.4375 33.386719 76.460938 33.347656zm-87.871094-110.9375c5.335938-40.328125 35.9375-72.683593 75.90625-80.261719 3.921875-.527343 7.875-.796874 11.832031-.800781 8.644531 0 17.246094 1.28125 25.519531 3.800781 2.832032.863282 5.90625.09375 8-2l121.390626-121.398437c13.546874-13.472656 21.140624-31.800781 21.089843-50.90625v-19.816406c.078125-.402344.128907-.8125.140625-1.222657 1.113282-32.101562 19.390625-61.132812 47.859375-76.007812v67.550781c0 13.253907 10.742188 24 24 24h48c13.253907 0 24-10.746093 24-24v-65.960937c24.992188 18.128906 39.851563 47.085937 40 77.960937.121094 49.480469-39.054687 90.125-88.503906 91.816407-1.019531.039062-2.015625.28125-2.9375.710937l-19.128906 3.824219c-13.945313 2.78125-26.75 9.636718-36.800781 19.695312l-126.398438 126.441406c-2.09375 2.089844-2.863281 5.167969-2 8 3.679688 12.09375 4.707031 24.839844 3.007812 37.367188-7.578124 39.972656-39.945312 70.574219-80.28125 75.90625-25.683593 2.039062-50.976562-7.277344-69.195312-25.5-18.222656-18.21875-27.539062-43.511719-25.5-69.199219zm0 0"/>
	<path d="m162.359375 306.363281 152-152 11.3125 11.3125-152 152zm0 0"/>
</svg>