<svg version="1.1" id="Remover" xmlns="http://www.w3.org/2000/svg" width="512" height="512" viewBox="0 0 192 192" xml:space="preserve">
	<path d="m176 32h-48v-8a24.028 24.028 0 0 0 -24-24h-16a24.028 24.028 0 0 0 -24 24v8h-48a8 8 0 0 0 -8 8v16a8 8 0 0 0 8 8h160a8 8 0 0 0 8-8v-16a8 8 0 0 0 -8-8zm-96-8a8.009 8.009 0 0 1 8-8h16a8.009 8.009 0 0 1 8 8v8h-32z"/>
	<path d="m32.018 184.532a8 8 0 0 0 7.982 7.468h112a8 8 0 0 0 7.982-7.468l7.503-112.532h-142.97zm87.982-88.532h16v72h-16zm-32 0h16v72h-16zm-32 0h16v72h-16z"/>
</svg>