<svg version="1.1" id="Sinteemar" xmlns="http://www.w3.org/2000/svg" xmlns:xlink="http://www.w3.org/1999/xlink" width="1998pt" height="2000pt" viewBox="0 0 1998.000 2000.000" xml:space="preserve" preserveAspectRatio="xMidYMid meet">
	<g transform="translate(0.000000,2000.000000) scale(0.100000,-0.100000)" fill="#000000" stroke="none">
		<path d="M9460 19990 c-14 -4 -62 -8 -108 -9 -46 -1 -125 -5 -175 -10 -51 -6 -146 -15 -212 -22 -160 -15 -583 -74 -720 -100 -299 -56 -442 -85 -535 -109 -19 -5 -75 -19 -125 -31 -49 -11 -121 -30 -160 -40 -38 -11 -86 -24 -105 -29 -231 -62 -680 -209 -885 -290 -130 -51 -396 -160 -453 -187 -39 -18 -74 -33 -76 -33 -6 0 -203 -93 -361 -171 -122 -60 -305 -156 -360 -189 -16 -9 -57 -32 -90 -50 -448 -242 -1118 -708 -1565 -1090 -316 -269 -783 -728 -1034 -1015 -356 -407 -719 -891 -956 -1275 -145 -234 -180 -292 -180 -297 0 -3 -8 -17 -18 -31 -11 -15 -36 -58 -57 -97 -21 -38 -60 -110 -88 -160 -109 -197 -287 -566 -397 -825 -33 -80 -68 -160 -76 -178 -9 -19 -28 -68 -44 -110 -31 -88 -58 -158 -70 -187 -35 -84 -184 -536 -221 -672 -5 -18 -13 -48 -18 -65 -16 -54 -52 -190 -62 -233 -6 -22 -14 -57 -19 -77 -15 -58 -27 -108 -40 -168 -7 -30 -16 -71 -20 -90 -10 -45 -40 -192 -71 -350 -57 -289 -107 -697 -141 -1145 -15 -193 -15 -1114 0 -1305 37 -478 84 -847 152 -1190 34 -176 52 -265 60 -300 4 -19 13 -60 20 -90 13 -58 23 -104 40 -170 6 -22 14 -57 19 -77 5 -21 16 -64 25 -95 9 -32 22 -82 30 -110 45 -165 180 -595 205 -653 5 -11 14 -36 21 -55 7 -19 16 -44 20 -55 4 -11 18 -47 30 -80 12 -33 26 -69 30 -80 4 -11 18 -47 31 -80 12 -33 33 -82 45 -110 12 -27 38 -89 58 -137 20 -47 54 -126 77 -175 22 -48 50 -108 61 -133 33 -75 204 -412 259 -512 28 -51 65 -118 82 -148 71 -130 279 -469 391 -635 401 -599 757 -1030 1276 -1547 474 -471 892 -818 1435 -1190 169 -116 673 -428 690 -428 2 0 30 -15 62 -34 130 -76 424 -226 658 -337 112 -52 477 -209 487 -209 5 0 27 -8 51 -19 23 -10 78 -32 122 -49 44 -16 100 -38 125 -47 133 -50 576 -191 760 -242 101 -27 324 -84 375 -94 28 -6 66 -15 85 -19 165 -38 269 -58 530 -104 47 -8 164 -26 260 -40 160 -23 219 -30 470 -56 155 -16 794 -50 940 -50 133 0 783 35 920 50 47 5 132 14 190 20 234 25 624 86 835 130 22 5 67 14 100 20 74 14 139 28 185 40 19 5 76 18 125 30 50 11 104 24 120 29 17 5 68 19 115 31 212 56 729 219 825 260 11 4 47 18 80 30 33 12 69 26 80 30 11 4 47 18 80 31 67 25 383 160 490 209 112 51 463 226 540 268 39 21 106 58 150 82 122 67 129 71 295 170 541 323 1105 743 1590 1184 82 74 314 303 485 478 544 555 1107 1310 1483 1988 14 25 42 75 63 112 42 72 267 517 311 614 14 32 44 97 65 144 32 69 90 210 223 545 68 171 220 639 272 835 11 41 24 91 29 110 6 19 15 52 20 73 5 20 13 54 19 75 13 52 26 107 40 172 7 30 16 71 20 90 7 31 19 92 50 245 41 206 80 447 105 650 8 72 18 148 20 170 8 59 24 239 37 410 7 88 12 367 12 680 0 313 -5 592 -12 680 -12 165 -29 348 -36 410 -3 22 -10 81 -16 130 -22 173 -53 387 -70 475 -5 25 -14 74 -20 110 -6 36 -15 83 -20 105 -5 22 -13 67 -20 100 -6 33 -15 80 -21 105 -6 25 -14 63 -19 85 -8 37 -45 194 -56 240 -6 25 -48 182 -67 255 -52 190 -179 583 -247 760 -103 273 -166 426 -257 630 -98 222 -277 579 -383 765 -15 28 -37 66 -48 85 -340 606 -874 1340 -1307 1800 -176 186 -387 407 -403 420 -9 8 -82 75 -162 150 -524 490 -1042 881 -1678 1267 -112 68 -205 123 -207 123 -2 0 -30 15 -62 34 -132 77 -446 237 -683 349 -164 77 -580 252 -660 277 -14 5 -63 22 -110 40 -140 52 -474 162 -635 209 -121 35 -453 122 -540 140 -87 19 -251 53 -275 58 -14 3 -68 13 -120 23 -294 58 -716 114 -1045 140 -77 6 -169 13 -205 16 -109 9 -1103 13 -1130 4z m1025 -995 c452 -27 688 -53 1115 -124 30 -5 125 -24 210 -41 85 -18 173 -36 196 -40 63 -13 491 -124 534 -139 14 -5 45 -14 70 -21 25 -7 86 -26 135 -42 50 -15 106 -33 125 -39 19 -6 58 -19 85 -29 28 -10 100 -37 161 -59 130 -47 396 -152 472 -187 29 -13 54 -24 56 -24 8 0 202 -92 386 -183 559 -276 1094 -616 1604 -1020 463 -368 916 -811 1306 -1276 109 -130 293 -363 345 -437 17 -23 71 -100 121 -171 120 -168 222 -326 361 -556 62 -103 113 -189 113 -191 0 -1 27 -50 59 -109 67 -119 252 -488 295 -587 38 -86 64 -146 88 -199 85 -190 231 -588 318 -871 13 -41 29 -93 36 -115 39 -126 130 -485 170 -670 34 -163 53 -262 84 -457 36 -226 57 -401 87 -743 21 -240 24 -1088 5 -1320 -46 -551 -109 -968 -217 -1435 -28 -122 -99 -388 -135 -505 -12 -38 -25 -83 -30 -100 -44 -166 -246 -711 -344 -930 -13 -27 -31 -70 -42 -95 -35 -84 -292 -595 -343 -684 -28 -48 -51 -89 -51 -90 0 -16 -273 -453 -378 -606 -330 -481 -664 -883 -1082 -1300 -478 -479 -872 -801 -1415 -1159 -219 -145 -187 -124 -380 -239 -262 -156 -622 -346 -840 -442 -27 -12 -74 -33 -103 -46 -29 -13 -55 -24 -57 -24 -2 0 -30 -12 -61 -26 -75 -34 -408 -164 -509 -198 -44 -15 -89 -31 -100 -35 -11 -5 -81 -28 -155 -51 -74 -23 -146 -46 -160 -51 -99 -33 -471 -130 -645 -168 -120 -26 -306 -63 -412 -81 -143 -23 -182 -30 -258 -40 -44 -6 -95 -14 -114 -16 -19 -3 -73 -10 -120 -15 -910 -103 -1866 -70 -2716 92 -27 5 -75 14 -105 20 -30 6 -73 15 -95 19 -22 5 -62 14 -90 20 -128 27 -411 100 -620 160 -185 53 -470 150 -714 244 -93 36 -111 44 -203 85 -26 11 -50 21 -53 21 -2 0 -28 11 -57 24 -29 13 -82 36 -118 52 -107 46 -506 247 -645 324 -106 60 -236 136 -430 253 -11 7 -117 77 -235 156 -850 569 -1594 1276 -2205 2096 -186 250 -475 677 -475 702 0 3 -8 17 -19 31 -18 26 -125 209 -186 317 -15 28 -78 149 -140 270 -101 199 -142 284 -204 428 -12 26 -30 67 -41 91 -89 198 -275 712 -358 991 -69 228 -181 697 -222 925 -6 36 -15 85 -20 110 -14 77 -44 282 -60 413 -30 258 -40 363 -60 692 -13 206 -13 664 0 870 14 230 30 427 40 523 27 232 40 329 60 452 5 30 14 87 21 125 33 204 152 745 188 855 5 14 14 45 21 70 7 25 16 56 20 70 4 14 18 59 30 100 79 259 219 650 297 830 8 19 19 44 24 55 279 647 565 1160 947 1700 200 283 494 648 696 865 489 525 910 898 1426 1267 548 391 1079 689 1735 972 11 5 36 16 55 24 188 82 694 261 895 317 17 5 46 13 65 19 105 29 364 95 535 136 78 19 314 65 430 84 159 27 300 47 415 61 288 33 347 38 620 55 288 17 672 17 965 0z"/>
		<path d="M9820 17389 c-41 -4 -112 -7 -157 -8 -45 0 -84 -4 -86 -8 -2 -5 -1 -30 2 -58 l6 -50 50 0 50 0 7 -75 c7 -79 16 -226 17 -272 1 -27 3 -28 59 -28 31 0 62 4 69 8 8 5 9 44 3 147 -5 77 -9 159 -10 182 l0 41 50 7 c27 4 53 11 56 17 3 5 3 29 0 53 -8 51 -13 52 -116 44z"/>
		<path d="M10085 17208 c-90 -239 -105 -281 -105 -289 0 -11 114 -18 126 -8 7 6 16 24 19 40 4 16 11 31 16 35 5 3 49 2 98 -1 l89 -7 6 -31 c10 -48 23 -57 87 -57 33 0 59 4 59 9 0 9 -51 172 -114 361 l-41 125 -86 3 -85 3 -69 -183z m177 4 c10 -37 21 -82 25 -100 l6 -33 -47 2 c-72 4 -73 5 -41 113 16 52 31 93 34 90 3 -2 13 -35 23 -72z"/>
		<path d="M9330 17361 c-47 -8 -93 -34 -114 -65 -26 -41 -31 -107 -11 -150 20 -42 52 -61 127 -77 29 -6 60 -15 69 -20 27 -14 30 -48 7 -71 -26 -26 -82 -20 -127 13 -17 12 -32 21 -34 18 -1 -2 -12 -25 -24 -51 -20 -43 -21 -47 -5 -61 51 -45 150 -59 218 -31 99 41 140 134 100 228 -15 35 -82 76 -124 76 -13 0 -38 7 -57 14 -44 19 -50 62 -10 72 26 6 68 2 97 -10 19 -8 32 10 42 60 6 28 4 32 -21 42 -38 14 -91 19 -133 13z"/>
		<path d="M10576 17351 c-4 -5 -11 -60 -17 -123 -5 -62 -14 -156 -19 -208 -5 -52 -11 -102 -15 -111 -3 -9 0 -20 7 -26 13 -10 164 -26 248 -26 90 0 150 55 150 136 0 38 -33 97 -55 97 -23 0 -18 11 20 46 30 27 35 38 35 76 0 80 -45 114 -180 135 -101 15 -167 17 -174 4z m212 -124 c16 -13 15 -52 -2 -66 -8 -7 -34 -11 -58 -9 -43 3 -43 3 -40 38 4 58 8 62 49 54 21 -4 44 -11 51 -17z m0 -194 c15 -21 15 -35 -1 -57 -10 -13 -24 -17 -67 -14 l-55 3 3 45 c2 25 8 48 14 51 16 10 92 -10 106 -28z"/>
		<path d="M8910 17304 c-74 -13 -136 -23 -137 -24 -6 0 -2 -54 7 -93 5 -23 18 -91 30 -152 36 -200 43 -230 50 -238 4 -4 27 -4 51 2 55 12 141 28 197 36 38 6 42 9 42 35 0 16 -5 41 -10 56 -11 29 -1 28 -126 8 -41 -6 -41 -6 -48 31 -4 20 -5 39 -3 41 2 3 33 10 68 16 35 6 68 15 73 19 5 5 4 27 -4 54 l-13 46 -41 -6 c-23 -3 -56 -9 -73 -12 -35 -5 -40 1 -45 47 -3 25 2 28 116 47 37 6 38 7 32 42 -3 20 -6 44 -6 54 0 21 7 21 -160 -9z"/>
		<path d="M11055 17249 c-6 -40 -29 -167 -54 -304 -26 -135 -26 -132 11 -138 18 -2 71 -12 118 -21 164 -32 145 -35 159 20 15 58 6 68 -67 79 -26 3 -55 8 -64 11 -21 6 -24 43 -5 66 11 14 19 14 77 2 35 -7 68 -10 72 -6 4 4 10 26 14 49 6 38 4 43 -17 52 -13 5 -45 13 -71 16 -55 7 -62 14 -53 56 7 31 8 31 54 24 125 -18 118 -19 124 7 11 38 8 78 -5 82 -22 7 -181 35 -234 42 l-52 6 -7 -43z"/>
		<path d="M11487 17213 c-9 -14 -117 -456 -113 -461 3 -2 38 -13 78 -24 40 -10 97 -26 126 -34 82 -22 88 -20 102 32 8 29 9 49 3 55 -5 5 -38 17 -74 25 -35 9 -67 19 -71 23 -4 3 13 85 37 181 l43 175 -27 12 c-39 17 -98 26 -104 16z"/>
		<path d="M8285 17162 l-50 -17 0 -143 c0 -78 -3 -142 -7 -142 -5 0 -42 52 -84 115 -43 63 -81 115 -87 115 -5 0 -34 -7 -64 -16 l-56 -16 7 -62 c4 -33 10 -83 15 -111 4 -27 16 -106 26 -175 10 -69 22 -130 26 -136 12 -15 114 18 113 37 -2 43 -27 197 -35 217 -5 13 -9 27 -9 32 0 27 24 0 94 -105 42 -63 82 -115 90 -115 7 0 28 5 45 11 l33 12 -4 143 c-1 79 -1 144 2 144 3 0 12 -15 19 -32 49 -112 102 -218 108 -218 21 0 108 37 108 46 0 5 -47 105 -105 222 -69 139 -110 212 -120 212 -8 -1 -37 -9 -65 -18z"/>
		<path d="M11832 16997 c-115 -363 -111 -347 -92 -357 35 -19 230 -80 254 -80 19 0 26 5 26 19 0 11 5 23 10 26 6 3 10 17 10 29 0 21 -10 27 -75 47 -76 23 -76 23 -69 53 10 49 18 51 91 27 64 -21 68 -21 80 -5 7 10 13 26 13 35 0 10 3 24 6 32 4 11 -11 20 -60 37 -36 12 -68 25 -71 30 -3 4 -2 22 1 39 6 30 9 32 38 26 17 -4 50 -13 74 -21 57 -19 58 -19 71 17 22 62 20 63 -115 108 -69 22 -133 41 -142 41 -13 0 -26 -27 -50 -103z"/>
		<path d="M7615 16918 c-66 -27 -122 -51 -124 -54 -2 -2 15 -50 39 -106 23 -57 62 -152 87 -213 24 -60 50 -115 56 -122 10 -10 37 -2 127 35 161 66 155 62 141 105 -20 59 -32 63 -108 32 l-67 -26 -18 23 c-25 32 -22 47 10 59 15 6 35 15 44 20 10 5 24 9 32 9 31 0 37 26 16 73 -23 51 -15 50 -108 10 -44 -19 -63 -14 -75 21 -11 33 -8 37 76 67 34 13 57 28 57 36 0 29 -32 83 -49 82 -9 0 -70 -23 -136 -51z"/>
		<path d="M12292 16909 c-103 -51 -167 -202 -130 -310 34 -101 126 -171 225 -173 l54 -1 25 59 c13 33 24 61 24 63 0 2 -24 0 -53 -3 -91 -11 -147 35 -147 120 0 79 57 146 125 146 40 0 93 -29 112 -61 22 -36 31 -36 43 -1 6 15 15 35 20 44 17 31 11 55 -21 82 -48 40 -95 56 -168 56 -47 0 -78 -6 -109 -21z"/>
		<path d="M12657 16713 c-25 -54 -64 -138 -87 -188 -23 -49 -48 -103 -56 -119 -8 -16 -14 -31 -14 -33 0 -6 104 -53 118 -53 7 0 28 35 48 78 63 139 88 194 125 271 26 54 33 80 26 89 -9 12 -92 52 -107 52 -4 0 -27 -44 -53 -97z"/>
		<path d="M7076 16686 c-57 -18 -123 -79 -137 -126 -24 -78 31 -167 107 -177 22 -2 64 0 95 5 73 11 99 2 99 -36 0 -49 -29 -66 -104 -60 l-64 6 -4 -51 c-4 -62 9 -77 66 -77 54 0 100 15 153 52 53 36 75 77 75 139 0 58 -25 105 -73 137 -30 21 -40 23 -94 16 -99 -13 -126 -11 -139 9 -18 29 33 67 90 67 42 0 44 1 44 29 0 16 -4 41 -10 55 -11 29 -38 32 -104 12z"/>
		<path d="M12923 16572 c-42 -53 -97 -123 -122 -156 -25 -32 -58 -73 -73 -91 -16 -18 -28 -37 -28 -41 0 -12 80 -54 101 -54 9 0 47 42 85 95 38 52 73 95 78 95 10 0 5 -40 -23 -169 -20 -89 -20 -95 -3 -107 38 -30 60 -28 109 14 27 22 70 64 98 93 56 59 69 51 37 -22 -11 -24 -22 -51 -25 -59 -3 -8 -14 -39 -26 -67 l-20 -52 43 -26 c72 -42 66 -50 148 175 11 30 24 64 28 75 14 33 60 166 60 173 0 9 -95 62 -111 62 -8 0 -60 -46 -116 -102 -56 -56 -105 -100 -107 -97 -3 3 -1 23 5 45 10 38 14 53 38 157 18 79 15 94 -26 120 -70 43 -66 45 -150 -61z"/>
		<path d="M6675 16449 c-60 -38 -116 -73 -124 -78 -14 -8 -13 -10 116 -216 114 -183 128 -205 138 -205 6 0 33 15 60 33 28 18 80 51 117 72 37 22 68 46 68 53 0 18 -43 82 -55 82 -6 0 -35 -16 -65 -35 -30 -19 -60 -35 -67 -35 -13 0 -43 38 -43 55 0 6 27 27 60 46 33 18 60 41 60 49 0 9 -12 30 -27 48 l-28 32 -55 -35 c-30 -19 -62 -35 -70 -35 -8 0 -22 13 -32 29 -19 35 -15 40 64 86 27 15 50 31 53 36 6 9 -43 90 -54 88 -3 0 -55 -32 -116 -70z"/>
		<path d="M13414 16158 c-71 -105 -130 -195 -132 -199 -3 -8 231 -169 246 -169 9 0 62 73 62 84 0 3 -28 24 -62 47 -35 23 -65 43 -66 45 -7 5 32 64 43 64 6 0 34 -16 62 -35 29 -19 58 -35 65 -35 13 0 58 61 58 79 0 5 -27 26 -60 47 -33 22 -60 44 -60 50 0 18 41 55 53 47 7 -4 34 -22 60 -41 27 -18 55 -31 63 -28 13 5 54 63 54 77 0 10 -229 159 -243 159 -8 0 -72 -86 -143 -192z"/>
		<path d="M6340 16236 c-72 -40 -190 -127 -190 -141 0 -6 13 -26 28 -45 15 -19 77 -104 137 -187 59 -84 114 -153 122 -153 18 0 93 50 93 63 0 5 -21 38 -46 74 -25 35 -44 66 -42 69 3 2 46 -15 96 -38 l91 -41 55 38 c53 36 72 65 43 65 -7 0 -51 15 -98 34 -78 32 -105 55 -80 71 16 9 13 92 -4 124 -27 54 -71 81 -128 81 -29 -1 -63 -7 -77 -14z m84 -132 c23 -22 20 -60 -6 -84 -31 -28 -44 -25 -73 17 -31 46 -31 57 -2 71 32 16 63 14 81 -4z"/>
		<path d="M13857 16048 c-73 -87 -257 -321 -257 -328 0 -13 100 -79 112 -74 7 3 42 44 78 91 98 129 98 128 105 122 3 -4 2 -24 -4 -45 -8 -31 -17 -266 -12 -310 1 -14 85 -74 103 -74 7 0 19 9 26 21 7 11 64 84 126 162 62 78 120 154 129 168 l17 26 -53 41 -54 41 -89 -114 c-83 -107 -115 -138 -100 -98 13 32 27 334 17 347 -6 7 -30 26 -55 44 l-44 32 -45 -52z"/>
		<path d="M5891 15909 c-104 -52 -161 -156 -148 -270 9 -74 66 -152 142 -192 57 -31 173 -30 231 0 165 87 201 287 75 413 -85 85 -193 102 -300 49z m175 -119 c45 -28 78 -99 69 -147 -8 -45 -54 -90 -100 -99 -76 -14 -165 69 -165 154 0 38 5 49 36 78 30 28 43 34 81 34 28 0 58 -8 79 -20z"/>
		<path d="M9820 15914 c-261 -47 -424 -96 -592 -179 -296 -146 -545 -367 -728 -645 -63 -96 -170 -305 -170 -331 0 -8 -4 -19 -8 -24 -5 -6 -19 -44 -31 -85 -12 -41 -25 -88 -30 -105 -5 -16 -14 -61 -21 -100 -7 -38 -16 -92 -21 -118 -12 -66 -11 -385 1 -466 50 -314 133 -534 295 -781 236 -361 605 -637 1015 -762 205 -63 468 -93 670 -77 353 27 606 112 910 308 122 78 322 263 417 386 349 448 472 1015 338 1563 -150 616 -616 1123 -1218 1327 -211 71 -314 87 -572 90 -126 2 -241 1 -255 -1z m319 -233 c26 -24 31 -36 31 -76 0 -38 -5 -52 -29 -76 -25 -24 -38 -29 -78 -29 -41 0 -54 5 -75 28 -32 33 -41 63 -33 101 18 81 121 110 184 52z m-658 -200 c24 -24 29 -38 29 -76 0 -38 -5 -52 -29 -76 -42 -41 -107 -41 -153 0 -28 25 -33 36 -33 75 0 36 6 51 29 75 25 26 37 31 79 31 40 0 53 -5 78 -29z m1289 0 c14 -10 31 -35 39 -57 19 -55 -3 -107 -55 -129 -46 -19 -84 -12 -124 22 -25 21 -30 32 -30 72 0 55 19 86 63 105 37 16 71 12 107 -13z m-486 -42 l26 -20 0 -233 c0 -244 -2 -256 -45 -256 -41 0 -45 16 -45 192 0 143 -2 168 -15 168 -13 0 -15 -57 -15 -452 0 -496 1 -488 -60 -488 -53 0 -55 10 -60 309 -3 174 -9 276 -15 276 -6 0 -11 -98 -12 -270 -3 -292 -7 -315 -52 -315 -71 1 -71 3 -71 502 1 298 -3 444 -10 446 -7 3 -10 -53 -10 -167 l0 -171 -25 -16 c-23 -15 -27 -15 -51 0 l-25 17 3 230 c3 229 3 231 27 250 21 17 41 19 226 19 190 0 204 -1 229 -21z m-664 -198 l25 -18 3 -237 2 -236 -24 -11 c-17 -8 -29 -8 -44 0 -20 11 -22 20 -24 181 -2 105 -7 170 -13 170 -6 0 -11 -160 -13 -454 l-2 -455 -26 -20 c-33 -26 -36 -26 -65 -2 -24 19 -24 20 -29 298 -3 175 -9 278 -15 278 -6 0 -11 -101 -13 -277 l-2 -277 -26 -20 c-20 -16 -30 -18 -49 -9 -44 20 -45 36 -45 491 0 238 0 438 0 445 0 6 -4 12 -10 12 -6 0 -10 -62 -10 -165 0 -150 -2 -167 -19 -184 -23 -23 -57 -18 -72 11 -6 11 -9 102 -7 237 3 197 5 221 22 239 23 27 35 28 251 24 155 -3 184 -6 205 -21z m1312 -19 c22 -22 23 -29 26 -235 4 -240 -1 -267 -47 -267 -16 0 -33 6 -38 13 -4 6 -10 85 -13 175 -3 95 -9 163 -15 165 -7 1 -11 -156 -13 -452 -1 -315 -6 -458 -13 -468 -15 -17 -73 -17 -88 1 -9 10 -12 90 -11 284 0 216 -2 271 -13 280 -8 7 -17 9 -20 5 -4 -3 -7 -131 -7 -283 0 -201 -3 -279 -12 -288 -7 -7 -27 -12 -46 -12 -61 0 -62 11 -62 510 0 287 -3 440 -10 440 -6 0 -10 -63 -10 -168 0 -192 -6 -214 -57 -197 l-28 10 -3 237 -2 236 27 22 c26 20 35 21 230 18 195 -3 203 -4 225 -26z m-2152 -517 c67 -35 90 -107 48 -160 -31 -40 -72 -54 -119 -43 -50 13 -70 38 -76 90 -5 54 12 88 57 110 43 22 53 22 90 3z m2666 -40 c33 -21 51 -85 34 -125 -30 -72 -114 -92 -174 -40 -41 37 -50 67 -33 116 22 67 108 92 173 49z m-2484 -232 l28 -27 0 -220 c0 -190 -2 -222 -17 -238 -20 -22 -41 -23 -65 -1 -16 14 -18 34 -18 185 0 105 -4 168 -10 168 -7 0 -10 -158 -10 -453 0 -382 -2 -456 -15 -474 -21 -30 -51 -34 -80 -11 l-25 19 -2 277 c-2 176 -7 277 -13 277 -6 0 -12 -102 -15 -276 -5 -297 -8 -309 -58 -309 -14 0 -34 7 -44 17 -17 15 -18 43 -18 475 0 299 -3 458 -10 458 -6 0 -10 -58 -10 -155 0 -179 -7 -205 -55 -205 -50 0 -55 24 -55 246 0 287 -12 274 259 274 l205 0 28 -27z m2607 -4 c56 -20 61 -44 61 -278 0 -203 -1 -211 -22 -231 -26 -24 -28 -24 -56 -4 -21 15 -22 21 -22 185 0 132 -3 170 -12 166 -10 -3 -12 -99 -9 -448 l3 -444 -21 -27 c-29 -36 -63 -36 -90 -2 -20 26 -21 39 -21 296 0 211 -3 269 -12 266 -10 -4 -14 -70 -16 -278 -2 -237 -5 -276 -19 -292 -22 -24 -56 -23 -79 3 -18 20 -19 43 -19 472 0 351 -3 451 -12 454 -10 4 -13 -32 -13 -157 0 -92 -4 -170 -10 -181 -13 -23 -47 -25 -72 -2 -16 15 -18 36 -18 235 l0 220 29 29 29 29 185 0 c109 0 197 -5 216 -11z m-2090 -496 c86 -73 19 -209 -94 -188 -16 3 -42 17 -57 32 -23 22 -28 35 -28 72 1 99 103 147 179 84z m1304 -24 c29 -32 36 -82 16 -122 -33 -64 -116 -77 -171 -28 -29 26 -33 36 -33 79 0 39 5 56 24 76 41 43 120 41 164 -5z m-642 -118 c24 -24 29 -38 29 -76 0 -38 -5 -52 -29 -76 -25 -24 -38 -29 -79 -29 -40 0 -54 5 -75 26 -47 47 -47 106 1 157 21 22 34 27 75 27 40 0 53 -5 78 -29z m-534 -96 c19 -8 37 -25 43 -40 6 -15 10 -121 10 -236 0 -196 -1 -210 -20 -229 -23 -23 -30 -24 -53 -7 -14 10 -17 37 -19 182 -3 143 -5 170 -18 170 -13 0 -15 -58 -18 -454 -2 -406 -4 -457 -19 -473 -20 -23 -45 -23 -72 0 -20 16 -21 26 -24 291 -1 209 -5 275 -14 279 -10 3 -13 -53 -13 -260 0 -295 -3 -311 -59 -316 -18 -2 -39 2 -45 8 -8 8 -13 150 -16 471 -3 293 -9 460 -15 462 -6 1 -11 -61 -13 -167 -3 -177 -7 -196 -46 -196 -44 0 -46 12 -46 252 l0 229 27 25 c26 24 28 24 212 23 133 0 195 -4 218 -14z m1322 -31 c20 -25 21 -39 21 -255 0 -215 -1 -229 -19 -239 -28 -14 -38 -13 -61 10 -18 18 -20 33 -20 185 0 103 -4 165 -10 165 -7 0 -10 -158 -10 -453 0 -498 0 -497 -59 -497 -54 0 -56 10 -61 308 -4 208 -8 276 -17 280 -10 3 -13 -56 -13 -270 0 -231 -2 -277 -16 -296 -21 -30 -58 -28 -83 4 -21 26 -21 37 -21 475 0 293 -3 449 -10 449 -6 0 -10 -61 -10 -164 0 -136 -3 -167 -16 -180 -21 -22 -61 -20 -74 3 -6 12 -10 105 -10 234 0 202 1 216 21 241 l20 26 214 0 214 0 20 -26z m-644 -119 l25 -24 0 -229 c0 -240 -2 -252 -46 -252 -39 0 -43 20 -46 193 -2 103 -7 167 -13 167 -6 0 -11 -160 -13 -454 l-2 -455 -26 -20 c-33 -26 -36 -26 -65 -2 -24 19 -24 20 -29 298 -3 175 -9 278 -15 278 -6 0 -11 -100 -13 -276 l-2 -276 -25 -23 c-22 -21 -28 -22 -49 -11 -45 25 -46 38 -46 494 0 238 0 438 0 445 0 6 -4 12 -10 12 -6 0 -10 -63 -10 -170 l0 -170 -25 -16 c-23 -15 -27 -15 -51 0 l-25 17 3 229 c3 208 5 230 22 249 18 20 28 21 228 21 208 0 209 0 233 -25z"/>
		<path d="M14321 15709 l-33 -39 36 -33 c20 -18 36 -37 36 -41 0 -4 -54 -67 -120 -141 -66 -73 -120 -137 -119 -142 0 -4 21 -25 47 -47 l46 -38 35 38 c19 22 77 83 129 138 l94 98 38 -37 39 -38 36 41 c20 22 36 43 36 46 -2 10 -249 236 -258 235 -4 0 -23 -18 -42 -40z"/>
		<path d="M5473 15500 c-24 -10 -82 -57 -130 -104 l-88 -85 170 -171 c93 -93 175 -170 181 -170 21 0 158 148 187 201 29 56 34 107 16 173 -13 46 -88 130 -141 157 -49 25 -139 25 -195 -1z m144 -125 c81 -48 98 -133 39 -201 l-35 -39 -93 93 c-102 101 -103 105 -38 150 43 29 73 28 127 -3z"/>
		<path d="M14610 15341 c-74 -24 -138 -80 -164 -143 -23 -54 -21 -159 4 -207 33 -65 72 -103 137 -133 74 -33 123 -35 197 -8 112 42 182 164 157 275 -29 127 -123 212 -245 220 -33 3 -72 1 -86 -4z m160 -141 c128 -91 -19 -298 -160 -225 -81 42 -77 161 8 224 37 28 114 28 152 1z"/>
		<path d="M5037 15066 c-52 -60 -56 -79 -27 -116 11 -14 20 -28 20 -33 0 -4 15 -31 34 -60 18 -28 66 -107 106 -174 39 -68 76 -123 80 -123 5 0 26 21 46 46 l38 46 -23 40 -23 40 23 26 c13 15 41 46 62 68 37 40 40 41 65 28 42 -22 58 -17 97 31 35 42 39 65 12 65 -7 0 -108 38 -225 85 -116 47 -218 85 -225 85 -7 0 -34 -24 -60 -54z m129 -90 c39 -19 95 -43 117 -50 9 -3 17 -11 17 -18 0 -15 -66 -95 -73 -88 -8 10 -107 163 -107 166 0 8 18 4 46 -10z"/>
		<path d="M15080 14923 c-75 -26 -120 -73 -120 -127 0 -14 11 -57 24 -95 22 -62 23 -71 10 -90 -20 -28 -50 -26 -79 5 -20 21 -25 38 -25 75 l0 49 -37 0 c-70 0 -83 -8 -83 -49 0 -75 75 -185 143 -210 43 -17 94 -13 137 9 79 40 100 112 60 206 -28 63 -24 98 12 102 31 4 55 -24 64 -76 6 -33 7 -33 48 -27 22 4 45 11 50 15 14 14 -2 73 -34 123 -37 59 -125 105 -170 90z"/>
		<path d="M4777 14743 c-34 -45 -35 -49 -19 -67 9 -10 43 -36 75 -58 32 -22 57 -43 55 -46 -9 -20 -94 -132 -100 -132 -4 0 -39 23 -77 51 -39 28 -75 48 -80 44 -6 -3 -25 -27 -42 -52 l-32 -46 29 -24 c25 -21 147 -109 308 -225 28 -20 56 -37 61 -37 11 0 75 83 75 98 0 5 -34 35 -75 66 -41 31 -75 59 -75 62 0 7 93 133 98 133 2 0 38 -25 79 -55 42 -30 79 -55 83 -55 8 0 80 95 80 104 0 9 -389 286 -401 286 -4 0 -23 -21 -42 -47z"/>
		<path d="M15488 14415 c-20 -14 -39 -25 -41 -25 -3 0 -58 -35 -123 -78 -66 -43 -136 -88 -156 -101 -21 -12 -38 -27 -38 -33 0 -16 107 -173 142 -208 94 -94 226 -94 340 0 70 58 96 163 62 246 -24 58 -127 224 -139 224 -6 0 -27 -11 -47 -25z m72 -232 c10 -35 10 -46 -5 -70 -27 -46 -83 -78 -137 -78 -42 0 -52 5 -85 38 -30 29 -36 41 -28 53 6 9 55 44 110 79 l100 63 17 -21 c9 -12 22 -41 28 -64z"/>
		<path d="M4382 14159 c-18 -27 -30 -54 -27 -59 3 -5 38 -29 78 -53 39 -24 122 -76 183 -114 61 -39 120 -75 131 -82 20 -10 27 -2 97 110 42 66 76 124 76 128 0 9 -75 61 -88 61 -5 0 -28 -29 -51 -65 -22 -36 -43 -65 -46 -65 -2 0 -43 25 -91 56 -127 82 -213 134 -222 134 -4 0 -22 -23 -40 -51z"/>
		<path d="M7260 14085 c0 -5 9 -21 20 -35 11 -14 20 -29 20 -33 0 -5 13 -27 29 -50 35 -52 221 -357 221 -364 0 -3 8 -17 19 -31 10 -15 37 -63 61 -107 24 -44 46 -84 50 -90 4 -5 26 -46 50 -90 24 -44 55 -102 70 -130 67 -122 340 -677 340 -690 0 -2 18 -43 41 -92 23 -48 50 -110 61 -137 10 -27 27 -68 38 -90 19 -44 102 -253 168 -426 39 -102 176 -509 202 -600 7 -25 16 -56 20 -70 4 -14 13 -43 19 -65 6 -22 19 -71 30 -110 17 -63 33 -125 76 -310 34 -142 82 -411 104 -575 61 -460 68 -863 20 -1290 -10 -90 -15 -125 -40 -257 -41 -226 -116 -482 -215 -728 -56 -142 -225 -478 -312 -623 -286 -475 -661 -942 -1137 -1417 -415 -415 -824 -767 -1340 -1154 -201 -151 -217 -163 -390 -286 -111 -79 -643 -432 -745 -495 -190 -116 -313 -190 -316 -190 -2 0 -25 -14 -51 -30 -26 -17 -42 -30 -35 -30 14 0 86 32 329 146 40 19 75 34 77 34 3 0 29 11 58 24 100 46 333 143 493 205 88 35 169 67 180 71 11 5 70 27 130 49 61 22 153 55 205 74 132 49 642 218 715 237 17 4 93 27 170 50 194 58 537 150 665 180 19 4 58 13 85 20 28 6 66 15 85 19 51 13 139 32 185 41 22 4 96 19 165 33 528 107 906 159 1520 208 192 16 965 16 1145 1 449 -39 563 -52 875 -103 211 -34 458 -80 585 -109 22 -5 60 -13 85 -19 181 -41 332 -78 545 -136 173 -46 605 -180 760 -235 44 -16 100 -35 125 -44 82 -27 153 -54 300 -111 80 -31 165 -63 190 -71 25 -9 49 -20 55 -25 5 -5 15 -9 22 -9 7 0 35 -10 61 -21 79 -36 105 -47 161 -69 30 -11 75 -30 100 -42 99 -44 129 -58 216 -96 197 -87 521 -245 704 -342 102 -55 101 -54 101 -40 0 6 -7 10 -15 10 -8 0 -15 3 -15 8 0 4 -9 12 -19 17 -89 46 -580 375 -841 564 -1320 953 -2324 1990 -2902 2996 -78 135 -258 491 -258 509 0 3 -13 35 -30 71 -16 36 -30 71 -30 79 0 7 -3 16 -7 19 -3 4 -15 31 -25 59 -112 305 -160 496 -203 798 -12 91 -35 417 -35 514 0 286 40 658 112 1021 27 137 107 475 128 535 4 14 18 59 30 100 78 268 156 490 290 825 39 99 78 194 85 210 129 287 175 385 271 581 97 197 212 414 354 669 130 234 340 572 538 867 73 109 129 198 124 198 -4 0 -16 -12 -27 -27 -36 -48 -314 -372 -388 -451 -469 -502 -793 -804 -1148 -1069 -712 -532 -1240 -693 -1749 -533 -263 83 -522 227 -840 468 -443 336 -970 877 -1424 1462 -131 170 -146 187 -146 175z m637 -8306 c31 -17 33 -17 57 2 14 11 30 17 36 14 5 -3 10 -46 10 -96 0 -81 -2 -90 -17 -87 -10 2 -19 13 -21 24 -4 28 -66 101 -103 119 -41 22 -105 19 -140 -6 -25 -18 -30 -27 -27 -58 3 -31 9 -39 43 -55 22 -11 60 -24 85 -28 86 -17 95 -20 135 -47 108 -72 95 -221 -23 -273 -58 -26 -137 -25 -201 3 l-50 21 -27 -21 c-14 -11 -30 -18 -35 -15 -5 3 -9 48 -9 100 0 76 3 94 15 94 8 0 22 -17 30 -37 44 -104 162 -161 246 -118 38 20 52 54 38 94 -11 32 -32 43 -119 62 -106 23 -179 62 -199 107 -16 33 -13 108 4 142 41 79 183 110 272 59z m783 -144 c74 -90 137 -161 139 -159 7 6 2 244 -5 255 -3 5 -21 16 -41 24 -19 8 -33 20 -31 27 6 16 666 24 681 9 13 -13 22 -201 10 -201 -15 0 -33 23 -33 41 0 33 -45 102 -77 117 -63 30 -64 26 -61 -210 l3 -213 38 -9 c25 -7 37 -15 35 -24 -3 -13 -26 -15 -143 -13 -77 1 -144 7 -150 12 -14 14 5 27 45 31 l35 3 3 211 c3 236 0 249 -55 221 -40 -21 -62 -48 -81 -103 -27 -75 -42 -68 -42 19 0 40 -3 76 -6 79 -10 11 -45 -5 -57 -26 -8 -14 -14 -95 -17 -241 -4 -188 -7 -220 -21 -223 -9 -2 -76 71 -182 198 -92 110 -172 200 -177 200 -15 0 -13 -273 2 -305 7 -16 23 -28 40 -32 19 -4 28 -12 28 -24 0 -18 -12 -19 -251 -19 -233 0 -250 1 -247 18 2 11 15 19 38 22 l35 5 3 210 c2 189 1 211 -15 222 -9 7 -27 13 -40 13 -22 0 -30 10 -17 23 4 4 113 6 243 6 l236 0 135 -164z m2858 114 c17 -33 56 -124 82 -188 11 -30 30 -73 40 -96 11 -23 28 -64 38 -91 12 -31 31 -57 52 -71 38 -27 85 -30 94 -7 3 9 6 102 6 209 0 205 -1 211 -50 220 -30 6 -36 13 -23 26 7 7 75 10 204 7 153 -3 202 -7 231 -20 42 -19 78 -69 78 -109 0 -41 -40 -92 -87 -109 -57 -21 -60 -26 -25 -44 30 -16 72 -88 72 -125 0 -33 22 -72 39 -69 9 2 22 18 30 36 18 40 31 41 31 3 0 -67 -86 -117 -155 -91 -57 21 -75 48 -75 108 0 66 -18 130 -39 141 -34 18 -94 23 -102 9 -11 -16 -12 -179 -1 -193 4 -6 21 -15 37 -20 17 -6 30 -17 30 -24 0 -12 -25 -14 -135 -12 -76 1 -140 7 -147 13 -8 7 -50 9 -113 6 -54 -3 -104 -2 -111 2 -14 9 -3 30 15 30 8 0 19 6 25 14 10 11 7 25 -11 63 l-23 48 -91 3 c-89 3 -91 2 -102 -23 -24 -53 -12 -88 33 -97 11 -2 21 -11 23 -21 4 -18 21 -17 -325 -20 -114 -2 -128 0 -131 16 -3 12 3 17 20 17 52 0 53 5 56 216 4 273 6 274 -132 -131 -33 -97 -56 -130 -75 -110 -5 6 -25 60 -45 120 -21 61 -40 117 -43 125 -3 8 -18 51 -33 95 -15 44 -31 79 -36 78 -12 -4 -17 -294 -6 -336 6 -25 16 -35 43 -43 19 -7 34 -18 34 -25 0 -11 -25 -15 -108 -17 -100 -2 -108 -1 -105 15 2 10 13 19 25 21 11 2 28 11 38 22 14 16 17 44 16 212 0 171 -2 194 -18 205 -9 7 -25 13 -36 13 -10 0 -17 5 -14 13 3 9 35 12 117 12 l114 0 43 -125 c24 -69 50 -138 57 -155 l13 -30 15 35 c8 19 32 85 52 145 21 61 43 116 48 123 17 20 222 12 226 -8 2 -10 -9 -19 -30 -25 l-33 -10 -3 -206 c-3 -225 0 -238 52 -225 25 6 96 71 96 87 0 7 66 165 110 264 10 22 28 63 40 91 20 48 23 51 48 45 15 -4 33 -18 40 -32z m-1602 20 c4 -6 9 -49 11 -95 4 -69 2 -84 -10 -84 -8 0 -22 17 -30 39 -31 77 -85 111 -176 111 -60 0 -66 -9 -66 -102 0 -82 0 -83 26 -86 30 -3 76 37 81 71 2 12 10 23 19 25 20 4 29 -52 29 -169 0 -73 -2 -79 -20 -79 -15 0 -22 8 -26 29 -8 38 -44 71 -80 74 l-29 2 -3 -85 c-3 -97 6 -118 53 -122 103 -7 153 18 194 96 15 26 31 48 36 47 11 -1 14 -166 3 -176 -6 -7 -139 -9 -356 -7 -121 2 -133 4 -130 20 2 10 14 18 33 20 16 2 33 9 37 15 4 7 8 99 8 206 0 211 -5 231 -57 231 -22 0 -30 10 -16 23 12 12 461 8 469 -4z m538 3 c2 -4 8 -47 12 -95 6 -81 5 -87 -12 -87 -13 1 -27 18 -44 52 -33 69 -63 89 -143 95 -59 5 -66 4 -76 -16 -7 -12 -11 -52 -9 -94 3 -67 5 -72 26 -75 29 -4 60 22 79 66 7 17 20 32 28 32 12 0 15 -21 15 -125 0 -106 -2 -125 -15 -125 -9 0 -18 8 -21 18 -15 44 -32 66 -62 79 -18 7 -37 11 -42 8 -13 -8 -13 -175 0 -195 7 -11 26 -14 74 -13 85 2 137 33 161 97 18 48 42 66 52 40 6 -16 -2 -163 -10 -170 -4 -5 -189 -8 -359 -6 -121 2 -128 3 -128 22 0 16 7 20 30 20 19 0 33 7 40 19 6 12 10 97 10 207 0 204 -5 224 -57 224 -14 0 -23 6 -23 15 0 13 33 15 234 15 129 0 237 -4 240 -8z"/>
		<path d="M8310 5761 l-35 -6 -3 -209 c-1 -132 1 -213 8 -220 17 -17 109 -10 130 9 19 17 20 32 20 211 l0 193 -30 16 c-31 16 -34 16 -90 6z"/>
		<path d="M11990 5710 c-18 -18 -20 -31 -18 -98 l3 -77 58 -3 c52 -3 60 0 87 27 51 51 39 130 -25 157 -48 20 -81 18 -105 -6z"/>
		<path d="M11444 5614 c-4 -10 -18 -43 -31 -73 -12 -29 -23 -59 -23 -66 0 -14 119 -30 131 -18 8 8 -45 150 -61 167 -6 6 -12 2 -16 -10z"/>
		<path d="M15765 13928 c-72 -44 -317 -178 -325 -178 -4 0 -13 -6 -19 -14 -10 -11 3 -40 59 -140 39 -69 76 -126 81 -126 20 0 89 41 89 53 0 7 -16 37 -35 67 -41 66 -42 73 -11 90 34 18 50 9 77 -45 33 -66 40 -70 88 -45 23 11 41 25 41 32 0 6 -13 33 -30 60 -37 60 -37 74 0 93 l29 15 41 -71 c23 -38 45 -69 48 -67 62 31 82 43 82 51 0 20 -142 257 -153 256 -7 0 -34 -14 -62 -31z"/>
		<path d="M4208 13858 c-23 -35 -58 -106 -58 -117 0 -6 77 -94 172 -197 191 -206 174 -198 220 -110 l20 38 -32 33 -32 33 23 43 c12 24 32 60 45 80 22 35 24 36 64 29 41 -8 42 -7 71 39 39 62 35 74 -26 83 -28 3 -131 20 -230 37 -215 37 -219 37 -237 9z m192 -119 c36 -6 69 -15 73 -19 9 -8 -26 -84 -44 -96 -11 -6 -139 112 -139 129 0 5 10 7 23 4 12 -3 51 -11 87 -18z"/>
		<path d="M4039 13475 c-14 -8 -37 -31 -50 -52 -24 -37 -32 -53 -80 -158 -13 -28 -25 -53 -27 -58 -2 -4 34 -25 80 -46 278 -129 357 -163 368 -156 6 3 20 27 31 53 12 26 32 72 46 102 34 75 41 149 18 188 -39 65 -137 92 -189 51 -27 -21 -31 -19 -38 26 -4 27 -64 65 -102 65 -17 -1 -43 -7 -57 -15z m84 -133 c13 -15 15 -25 6 -55 -13 -47 -23 -52 -65 -32 -40 19 -41 26 -13 71 23 38 48 43 72 16z m190 -63 c12 -19 2 -78 -17 -104 -13 -19 -15 -19 -55 -1 -22 11 -41 23 -41 28 0 11 28 68 43 86 13 17 57 11 70 -9z"/>
		<path d="M16070 13382 c-19 -10 -64 -30 -100 -46 -36 -16 -85 -37 -110 -48 -109 -48 -170 -78 -170 -82 0 -3 8 -20 18 -38 10 -18 35 -72 56 -120 21 -48 44 -92 51 -98 14 -11 95 18 95 35 0 6 -14 39 -30 73 -17 35 -30 66 -30 68 0 6 58 34 70 34 6 0 24 -29 41 -65 16 -36 34 -65 40 -65 15 0 73 31 81 44 4 6 1 20 -6 31 -7 11 -20 39 -29 62 l-16 42 31 15 c17 9 32 16 33 16 2 0 19 -34 38 -75 l36 -75 46 22 c25 12 45 27 45 32 0 6 -20 52 -43 101 -24 50 -49 105 -56 123 -15 37 -37 41 -91 14z"/>
		<path d="M16290 12993 c-8 -3 -96 -34 -195 -70 -237 -84 -235 -83 -235 -98 0 -12 37 -105 44 -112 1 -2 62 19 134 46 72 27 133 46 136 43 3 -2 -10 -25 -30 -51 -142 -186 -185 -267 -154 -286 6 -3 10 -14 10 -24 0 -9 6 -26 14 -36 13 -18 23 -16 232 60 121 43 223 81 227 85 5 4 1 33 -9 64 -12 40 -23 56 -35 56 -9 0 -72 -21 -139 -46 -67 -25 -124 -43 -128 -40 -3 3 4 16 15 29 12 12 58 75 103 140 88 128 88 130 54 213 -15 35 -18 37 -44 27z"/>
		<path d="M3778 12931 c-31 -82 -48 -126 -48 -128 0 -3 340 -282 364 -298 10 -8 16 -18 12 -23 -4 -7 -84 -35 -168 -58 -13 -4 -20 4 -27 33 -19 69 -80 113 -158 113 -70 0 -119 -50 -149 -150 -9 -30 -23 -74 -30 -98 -8 -23 -14 -48 -14 -56 0 -7 33 -22 78 -35 42 -13 88 -27 102 -31 67 -24 264 -80 279 -80 10 0 21 15 29 40 22 72 20 76 -58 96 -99 26 -94 37 29 64 l76 16 44 129 43 129 -22 18 c-13 10 -30 23 -38 27 -13 8 -12 19 12 87 15 44 32 83 37 89 5 5 29 8 53 6 l43 -2 23 56 c13 32 19 60 14 65 -5 4 -123 10 -262 13 l-253 4 -11 -26z m245 -97 c20 -3 37 -11 37 -17 0 -16 -25 -85 -33 -93 -4 -4 -33 13 -64 38 -32 25 -68 50 -81 57 -12 7 -20 17 -16 23 6 9 54 7 157 -8z m-223 -404 c5 0 16 -12 23 -27 11 -20 12 -34 4 -57 -5 -17 -11 -32 -13 -34 -4 -6 -89 21 -103 34 -11 10 -10 18 4 47 16 35 37 48 63 41 8 -2 18 -4 22 -4z"/>
		<path d="M16331 12382 c-35 -29 -50 -76 -51 -162 0 -51 -13 -70 -45 -70 -50 0 -72 78 -40 140 15 29 15 30 -21 45 -65 27 -81 21 -97 -33 -31 -103 15 -216 105 -260 56 -28 107 -24 160 12 44 29 59 63 63 147 4 76 12 93 41 87 28 -5 45 -47 38 -94 l-6 -41 44 -11 c60 -16 71 0 65 90 -8 117 -64 178 -166 178 -47 0 -62 -5 -90 -28z"/>
		<path d="M3521 12098 c-7 -35 -16 -74 -21 -88 -23 -72 -42 -182 -33 -191 13 -13 91 -31 102 -24 5 2 12 25 15 50 5 32 12 45 23 45 9 0 91 -18 181 -41 90 -22 168 -37 172 -32 10 10 32 114 26 120 -5 5 -168 45 -294 73 l-64 15 7 35 c14 70 13 72 -35 86 -25 8 -50 14 -55 14 -6 0 -17 -28 -24 -62z"/>
		<path d="M16545 12000 c-125 -31 -335 -80 -348 -80 -34 -1 -39 -16 -27 -74 6 -30 16 -58 21 -61 8 -5 142 23 389 83 72 18 75 20 78 49 3 32 -21 104 -35 102 -4 0 -39 -9 -78 -19z"/>
		<path d="M16455 11722 c-115 -21 -215 -40 -221 -44 -8 -5 -8 -25 -2 -65 5 -31 11 -59 13 -62 3 -2 62 6 132 18 71 12 135 21 143 21 8 0 -42 -55 -112 -123 l-127 -122 10 -60 c6 -33 14 -62 20 -66 6 -3 33 -2 62 3 29 4 81 13 117 19 36 6 88 14 115 19 97 15 165 29 175 35 11 7 2 90 -12 118 -6 11 -17 16 -31 13 -12 -3 -53 -10 -92 -16 -38 -7 -89 -17 -113 -22 -23 -6 -45 -8 -48 -5 -3 3 34 43 83 89 177 167 165 152 158 195 -15 91 -16 93 -38 92 -12 0 -116 -17 -232 -37z"/>
		<path d="M3411 11489 c-26 -28 -51 -102 -51 -152 0 -86 74 -157 163 -157 58 0 81 19 127 106 29 56 41 70 62 72 20 2 31 -4 43 -22 23 -35 13 -70 -32 -115 l-35 -35 38 -33 c22 -18 44 -33 50 -33 13 0 57 47 73 77 6 12 16 44 22 71 27 129 -68 236 -194 219 -50 -7 -76 -32 -112 -107 -29 -60 -48 -76 -78 -64 -35 13 -30 66 11 116 17 21 9 34 -37 61 -29 17 -30 17 -50 -4z"/>
		<path d="M16496 11130 c-175 -69 -221 -295 -86 -430 47 -47 100 -71 170 -77 48 -5 65 -1 111 21 69 35 103 67 130 125 27 57 30 158 6 213 -26 61 -92 125 -153 148 -67 25 -114 25 -178 0z m169 -139 c87 -50 80 -178 -11 -216 -101 -42 -204 14 -204 110 0 98 124 159 215 106z"/>
		<path d="M3472 11049 c-56 -22 -112 -72 -138 -123 -21 -42 -29 -142 -15 -192 25 -92 105 -165 204 -186 48 -10 64 -9 112 6 65 20 127 71 158 130 17 32 22 58 22 121 0 96 -21 142 -88 201 -75 66 -159 80 -255 43z m165 -139 c114 -69 71 -231 -62 -229 -53 0 -104 26 -132 68 -27 40 -28 56 -8 105 30 71 132 99 202 56z"/>
		<path d="M3425 10450 c-53 -26 -100 -80 -114 -133 -13 -45 -11 -294 2 -289 4 1 113 2 242 2 l235 0 0 120 c0 180 -39 260 -147 305 -52 22 -168 19 -218 -5z m217 -148 c33 -33 50 -118 27 -133 -20 -12 -256 -11 -264 1 -4 6 -1 35 6 66 18 80 62 107 159 97 31 -3 53 -13 72 -31z"/>
		<path d="M16378 10234 c-4 -167 7 -230 51 -291 42 -58 102 -83 198 -83 120 0 204 53 231 148 15 52 27 268 15 275 -5 3 -118 9 -251 13 l-242 6 -2 -68z m330 -80 c52 -7 52 -7 52 -43 0 -80 -66 -130 -156 -117 -53 7 -87 27 -102 62 -13 27 -16 87 -5 97 8 9 141 9 211 1z"/>
		<path d="M16374 9779 c-9 -15 -13 -52 -22 -182 -8 -120 -15 -108 65 -121 35 -6 35 -6 48 101 4 29 10 55 15 58 4 3 22 2 40 -1 l31 -7 -6 -73 c-7 -72 -7 -73 18 -79 13 -4 38 -5 53 -3 28 3 29 5 38 76 l8 73 37 -3 36 -3 0 -80 0 -80 52 -3 51 -3 7 108 c4 59 8 126 9 148 l1 40 -75 6 c-41 4 -144 12 -229 18 -85 6 -157 14 -162 16 -4 3 -11 0 -15 -6z"/>
		<path d="M3497 9686 c-129 -46 -198 -217 -140 -347 23 -51 96 -121 149 -144 122 -51 274 18 329 149 18 42 18 138 2 183 -51 138 -201 208 -340 159z m163 -131 c46 -24 70 -62 70 -112 0 -80 -49 -123 -140 -123 -87 0 -144 60 -133 140 12 83 124 136 203 95z"/>
		<path d="M16315 9178 c-2 -7 -6 -34 -10 -59 l-6 -47 135 -43 c75 -24 136 -47 136 -50 0 -3 -48 -9 -107 -13 -119 -7 -174 -14 -185 -24 -8 -8 -14 -79 -8 -86 3 -2 60 -31 128 -64 113 -56 141 -81 74 -68 -15 3 -74 7 -132 8 l-105 3 -7 -55 c-4 -30 -4 -58 0 -62 4 -3 115 -10 248 -14 l241 -7 6 34 c3 19 9 48 13 66 l6 32 -123 61 c-68 34 -125 65 -127 69 -5 14 46 23 203 36 32 3 64 11 71 17 18 20 27 113 12 125 -7 5 -62 26 -123 46 -60 20 -155 52 -210 71 -110 39 -124 42 -130 24z"/>
		<path d="M3440 9093 c-19 -3 -38 -7 -42 -11 -4 -4 8 -83 25 -177 l33 -170 44 3 c62 5 70 14 63 72 -6 55 -18 49 112 69 39 7 93 16 120 21 28 5 67 12 89 15 l39 6 -6 43 c-4 23 -10 54 -16 68 -9 24 -11 25 -63 16 -29 -5 -78 -13 -108 -18 -30 -5 -84 -14 -119 -20 -79 -14 -91 -9 -91 33 0 33 -15 58 -34 55 -6 0 -27 -3 -46 -5z"/>
		<path d="M3875 8778 c-28 -18 -58 -37 -68 -43 -61 -36 -299 -191 -303 -196 -9 -16 31 -159 46 -164 45 -14 510 -52 510 -41 0 1 -4 16 -9 32 -5 16 -12 41 -15 57 -5 23 -12 27 -39 27 -51 0 -67 18 -86 102 -20 85 -16 99 29 118 27 11 31 17 25 39 -18 75 -26 101 -33 101 -4 0 -30 -15 -57 -32z m-66 -229 c6 -18 11 -43 11 -55 0 -24 -2 -24 -94 -24 -95 0 -127 11 -84 30 13 5 48 25 78 44 30 19 60 35 67 35 6 1 16 -13 22 -30z"/>
		<path d="M16197 8544 c-19 -65 -17 -73 24 -97 28 -15 31 -21 26 -55 -8 -56 -27 -125 -39 -139 -6 -8 -25 -12 -42 -11 -18 1 -37 -1 -43 -5 -12 -7 -40 -114 -32 -121 7 -7 502 33 509 41 10 11 40 116 40 140 0 14 -60 60 -209 161 -116 78 -212 142 -214 142 -2 0 -11 -25 -20 -56z m233 -225 c110 -65 109 -69 -9 -69 l-102 0 7 38 c7 39 21 72 30 72 3 0 36 -18 74 -41z"/>
		<path d="M3968 8282 c-53 -17 -58 -26 -27 -42 31 -17 59 -71 59 -113 0 -95 -113 -157 -201 -112 -57 30 -87 116 -57 165 19 30 4 34 -64 13 l-63 -20 -3 -42 c-8 -103 65 -214 164 -251 69 -25 109 -25 179 1 115 43 170 119 169 235 0 63 -4 77 -34 128 -38 62 -45 64 -122 38z"/>
		<path d="M16045 8020 c-9 -28 -15 -55 -13 -61 2 -6 33 -21 68 -33 80 -26 86 -42 21 -51 -27 -4 -69 -12 -92 -19 -40 -12 -43 -16 -62 -75 -10 -34 -16 -65 -13 -68 3 -3 45 4 93 17 116 31 113 31 129 -14 26 -74 73 -106 155 -106 49 0 55 3 93 43 33 35 48 64 76 150 19 58 32 108 30 111 -3 2 -66 25 -140 50 -74 25 -173 59 -220 75 -47 17 -90 30 -97 31 -6 0 -19 -23 -28 -50z m298 -176 c32 -11 47 -21 47 -33 0 -26 -48 -74 -66 -67 -9 3 -22 6 -29 6 -22 0 -37 39 -30 76 7 39 13 40 78 18z"/>
		<path d="M4110 7832 c-41 -15 -79 -30 -85 -33 -5 -3 -30 -12 -55 -19 -25 -7 -49 -16 -55 -20 -5 -3 -43 -17 -84 -30 -40 -13 -75 -29 -78 -36 -2 -6 7 -36 21 -67 l24 -55 109 40 c59 22 131 48 158 58 153 56 195 72 195 75 0 2 -10 28 -21 59 -14 37 -27 56 -38 55 -9 0 -50 -13 -91 -27z"/>
		<path d="M15900 7605 c-13 -31 -20 -59 -16 -62 14 -15 438 -181 449 -177 11 4 52 112 45 119 -2 2 -61 26 -133 54 -71 29 -139 56 -150 60 -44 20 -156 61 -164 61 -5 0 -19 -25 -31 -55z"/>
		<path d="M4110 7571 c-75 -24 -148 -80 -178 -136 -25 -47 -19 -147 13 -225 43 -105 64 -148 74 -154 5 -3 35 6 66 20 32 15 123 54 204 88 80 34 154 66 165 72 17 10 15 18 -37 126 -75 157 -127 206 -231 214 -28 2 -62 0 -76 -5z m146 -163 c30 -34 58 -78 52 -83 -6 -6 -241 -105 -243 -103 -32 60 -34 135 -4 167 29 31 76 50 125 51 33 0 45 -6 70 -32z"/>
		<path d="M15815 7389 c-15 -28 -24 -57 -21 -64 4 -12 45 -34 213 -112 55 -25 56 -27 28 -30 -33 -3 -186 -29 -280 -47 -58 -11 -61 -14 -87 -61 -15 -28 -27 -55 -27 -61 -1 -9 422 -214 442 -214 10 0 61 109 54 117 -12 11 -239 113 -253 113 -8 0 -14 4 -14 9 0 4 24 11 53 14 59 7 307 54 312 59 2 2 36 73 53 111 2 4 -29 22 -70 41 -40 18 -103 48 -140 65 -38 17 -98 45 -135 62 -38 17 -76 35 -85 40 -14 8 -22 1 -43 -42z"/>
		<path d="M4405 7096 c-134 -69 -319 -167 -324 -172 -7 -6 54 -114 64 -114 6 0 66 29 134 65 68 36 126 65 129 65 2 0 -4 -12 -14 -27 -35 -55 -144 -276 -144 -295 0 -19 48 -118 58 -118 3 0 41 20 86 44 45 24 135 72 201 106 66 34 125 66 131 71 9 7 4 25 -18 64 -16 30 -34 55 -40 55 -5 0 -66 -30 -134 -66 -68 -36 -124 -62 -124 -59 0 4 8 19 18 33 10 15 47 84 82 153 l64 127 -24 51 c-13 29 -29 55 -34 60 -7 5 -52 -13 -111 -43z"/>
		<path d="M15619 6827 c-91 -34 -147 -89 -180 -178 -40 -104 -9 -208 81 -274 70 -51 68 -52 122 45 14 25 35 62 47 83 11 21 21 44 21 52 0 12 -66 55 -84 55 -3 0 -17 -23 -32 -50 -30 -54 -44 -58 -58 -17 -12 33 6 97 37 133 49 56 177 34 230 -40 40 -57 20 -147 -41 -176 -15 -7 -34 -16 -42 -20 -21 -10 -31 -120 -12 -128 49 -18 173 72 213 156 29 60 31 161 5 212 -59 115 -205 185 -307 147z"/>
		<path d="M4590 6510 c-107 -65 -196 -125 -198 -133 -4 -19 50 -107 63 -104 31 7 405 242 405 254 0 17 -57 103 -68 103 -4 -1 -95 -54 -202 -120z"/>
		<path d="M15291 6406 c-37 -54 -38 -60 -6 -98 l25 -30 -22 -37 c-30 -51 -78 -121 -82 -121 -2 0 -20 7 -39 15 -20 8 -40 15 -45 15 -14 0 -74 -91 -68 -105 2 -7 40 -21 83 -33 43 -11 104 -27 136 -36 31 -9 83 -23 115 -32 31 -9 73 -20 92 -25 19 -6 41 -11 49 -12 15 -2 96 95 104 124 4 16 -281 410 -302 417 -5 2 -23 -17 -40 -42z m161 -303 c28 -35 49 -66 46 -68 -5 -5 -170 44 -180 54 -4 3 7 28 24 54 36 55 33 56 110 -40z"/>
		<path d="M4775 6362 c-66 -46 -80 -98 -50 -182 30 -86 12 -130 -40 -96 -17 11 -27 29 -31 56 -4 22 -11 43 -16 46 -5 3 -30 3 -55 -1 l-45 -7 5 -35 c9 -53 50 -124 91 -157 30 -25 46 -30 91 -30 58 -1 91 16 129 67 18 25 19 32 8 89 -24 118 -24 128 -12 143 19 23 56 18 79 -11 15 -20 21 -41 21 -80 l0 -54 44 0 c72 0 92 39 64 121 -47 139 -182 201 -283 131z"/>
		<path d="M15653 5965 c-3 -9 -2 -35 2 -58 3 -23 9 -57 12 -74 6 -41 16 -41 42 -4 27 37 26 49 -5 105 -27 48 -41 56 -51 31z"/>
	</g>
</svg>