<svg height="1001pt" id="sinteemar" preserveAspectRatio="xMidYMid meet" style="enable-background: new 0 0 1000.000 1001.000;" version="1.1" viewBox="0 0 1000.000 1001.000" width="1000pt" x="0px" xml:space="preserve" xmlns="http://www.w3.org/2000/svg" xmlns:xlink="http://www.w3.org/1999/xlink" y="0px">
	<g stroke="none" style="fill: #FFFFFF;" transform="translate(0.0, 1001.0) scale(0.1, -0.1)">
		<path d="M4710 10004 c-433 -36 -620 -66 -950 -150 -873 -225 -1658 -672 -2295 -1309 -939 -939 -1465 -2207 -1465 -3532 0 -795 183 -1563 540 -2268 618 -1219 1721 -2142 3020 -2528 757 -225 1507 -272 2287 -142 351 59 800 191 1123 332 604 262 1142 632 1596 1094 394 403 684 813 929 1314 143 294 220 492 310 805 129 447 182 801 192 1280 14 691 -96 1311 -348 1956 -64 164 -221 489 -314 649 -391 678 -941 1259 -1597 1689 -367 240 -739 420 -1148 556 -377 125 -677 191 -1080 236 -127 15 -691 27 -800 18z m706 -509 c587 -56 1124 -209 1632 -464 283 -142 601 -352 867 -572 141 -116 453 -430 576 -580 363 -440 666 -993 828 -1514 202 -650 262 -1337 170 -1980 -125 -885 -475 -1663 -1049 -2335 -121 -142 -410 -426 -548 -540 -670 -550 -1458 -890 -2318 -1000 -616 -79 -1254 -26 -1864 157 -1177 351 -2179 1192 -2730 2292 -646 1291 -646 2782 2 4074 526 1051 1476 1872 2598 2247 351 118 654 178 1110 223 109 11 583 5 726 -8z"/>
		<path d="M4880 8585 c-189 -30 -369 -122 -505 -259 -93 -93 -146 -169 -192 -276 -59 -136 -68 -188 -68 -370 1 -196 11 -243 90 -405 262 -539 967 -692 1427 -311 167 138 284 344 319 560 15 93 7 277 -15 361 -101 376 -397 643 -776 700 -113 18 -167 17 -280 0z"/>
		<path d="M3636 7200 c4 -8 31 -51 59 -95 141 -218 379 -687 481 -945 219 -557 317 -1029 301 -1455 -13 -329 -67 -546 -211 -835 -241 -485 -692 -975 -1351 -1468 -168 -126 -452 -317 -629 -424 -72 -43 -128 -78 -125 -78 3 0 70 29 149 65 483 220 1079 417 1568 519 992 208 1804 157 2797 -175 315 -106 586 -219 902 -378 155 -77 189 -90 102 -37 -210 126 -578 393 -803 582 -662 554 -1089 1117 -1265 1668 -88 273 -102 615 -40 974 100 585 414 1302 872 1992 57 86 46 76 -79 -70 -114 -133 -373 -393 -489 -492 -296 -249 -538 -382 -760 -418 -206 -33 -432 55 -735 288 -124 95 -456 433 -598 608 -67 83 -129 159 -138 170 -8 10 -12 12 -8 4z"/>
	</g>
</svg>