<svg id="trash-svg" style="enable-background:new 0 0 512 512;" version="1.1" viewBox="0 0 512 512" x="0px" xml:space="preserve" xmlns="http://www.w3.org/2000/svg" xmlns:xlink="http://www.w3.org/1999/xlink" y="0px">
	<path d="M64.666,182l23.917,289.072C90.707,494.407,109.97,512,133.393,512h245.215c23.423,0,42.686-17.593,44.824-41.06 L447.336,182H64.666z M181,407c0,8.291-6.709,15-15,15s-15-6.709-15-15V227c0-8.291,6.709-15,15-15s15,6.709,15,15V407z M271,407 c0,8.291-6.709,15-15,15c-8.291,0-15-6.709-15-15V227c0-8.291,6.709-15,15-15s15,6.709,15,15V407z M361,407 c0,8.291-6.709,15-15,15c-8.291,0-15-6.709-15-15V227c0-8.291,6.709-15,15-15c8.291,0,15,6.709,15,15V407z"/>
	<path d="M436,60H331V45c0-24.814-20.186-45-45-45h-60c-24.814,0-45,20.186-45,45v15H76c-24.814,0-45,20.186-45,45v30 c0,8.291,6.709,15,15,15c17.772,0,411.904,0,420,0c8.291,0,15-6.709,15-15v-30C481,80.186,460.814,60,436,60z M301,60h-90V45 c0-8.276,6.724-15,15-15h60c8.276,0,15,6.724,15,15V60z"/>
</svg>