<svg version="1.1" id="Boletim Online" xmlns="http://www.w3.org/2000/svg" xmlns:xlink="http://www.w3.org/1999/xlink" x="0px" y="0px" width="620" height="250" xml:space="preserve">
	<rect fill="#007358" id="background" height="252" width="622" y="-1" x="-1"/>
	<path stroke="null" fill="#ffffff" id="info" d="m458.274756,151.000005c-1.343936,0 -2.667305,-0.513633 -3.671631,-1.487373c-1.541162,-1.493965 -2.022891,-3.772881 -1.218428,-5.762549l11.973604,-29.619054c-8.096836,-10.525254 -12.358301,-22.872481 -12.358301,-35.904464c0,-16.710206 7.080908,-32.393937 19.938868,-44.16214c12.727706,-11.649024 29.61879,-18.064425 47.561135,-18.064425s34.833429,6.415401 47.561135,18.064425c12.857959,11.768204 19.938868,27.451935 19.938868,44.16214c0,11.98336 -3.701953,23.618936 -10.705606,33.648488c-1.667725,2.388076 -4.954922,2.971846 -7.342998,1.304385s-2.971846,-4.954922 -1.304385,-7.342998c5.761231,-8.249766 8.806114,-17.797325 8.806114,-27.609874c0,-28.496339 -25.549015,-51.67969 -56.953127,-51.67969s-56.953127,23.183351 -56.953127,51.67969c0,11.544346 4.107217,22.464845 11.877364,31.580773c1.27459,1.495283 1.612354,3.575654 0.875654,5.397363l-8.270332,20.458038l24.085108,-10.617012c1.334971,-0.588252 2.854512,-0.597744 4.196602,-0.025049c7.599024,3.241846 15.736993,4.885576 24.188731,4.885576c9.727383,0 19.326886,-2.26415 27.760958,-6.5475c2.597168,-1.318359 5.770987,-0.282656 7.089873,2.313721c1.318623,2.596904 0.28292,5.770987 -2.313721,7.089873c-9.90668,5.031387 -21.157823,7.690782 -32.537111,7.690782c-9.091407,0 -17.886182,-1.632393 -26.17629,-4.85499l-33.92297,14.953887c-0.683965,0.301377 -1.408008,0.447979 -2.125986,0.447979zm67.498684,-49.306643l0,-28.476564c0,-2.91252 -2.360918,-5.273438 -5.273438,-5.273438s-5.273438,2.360918 -5.273438,5.273438l0,28.476564c0,2.91252 2.360918,5.273438 5.273438,5.273438s5.273438,-2.360918 5.273438,-5.273438zm-5.273438,-51.943361c-2.91252,0 -5.273438,2.360918 -5.273438,5.273438l0,0c0,2.91252 2.360918,5.273438 5.273438,5.273438s5.273438,-2.360918 5.273438,-5.273438l0,0c0,-2.91252 -2.360918,-5.273438 -5.273438,-5.273438z"/>
	<text font-weight="bold" xml:space="preserve" text-anchor="start" font-family="'Trebuchet MS', Gadget, sans-serif" font-size="111" id="boletim" y="117.5" x="23.5" fill-opacity="null" stroke-opacity="null" stroke-width="0" stroke="#000" fill="#ffffff">Boletim</text>
	<text font-style="italic" font-weight="bold" xml:space="preserve" text-anchor="start" font-family="'Trebuchet MS', Gadget, sans-serif" font-size="111" id="online" y="216.5" x="261.5" fill-opacity="null" stroke-opacity="null" stroke-width="0" stroke="#000" fill="#ffffff">Online</text>
	<path id="reta1" d="m37.767003,204.626712l25.662293,-27.676281l-25.662293,-27.676479l14.667299,-15.816776l40.332705,43.493255l-40.332705,43.506749" fill-opacity="null" stroke-opacity="null" stroke-width="10" stroke="#ffffff" fill="none"/>
	<path id="reta2" d="m89.767,204.62671l25.6623,-27.67628l-25.6623,-27.67648l14.6673,-15.81677l40.33271,43.49325l-40.33271,43.50675" fill-opacity="null" stroke-opacity="null" stroke-width="10" stroke="#ffffff" fill="none"/>
	<path id="reta3" d="m141.767,204.62671l25.6623,-27.67628l-25.6623,-27.67648l14.6673,-15.81677l40.33271,43.49325l-40.33271,43.50675" fill-opacity="null" stroke-opacity="null" stroke-width="10" stroke="#ffffff" fill="none"/>
	<path id="reta4" d="m193.767,204.62671l25.6623,-27.67628l-25.6623,-27.67648l14.6673,-15.81677l40.33271,43.49325l-40.33271,43.50675" fill-opacity="null" stroke-opacity="null" stroke-width="10" stroke="#ffffff" fill="none"/>
</svg>