<svg width="800" height="600" xmlns="http://www.w3.org/2000/svg">
	<g>
		<rect fill="#007358" id="canvas_background" height="602" width="802" y="-1" x="-1"/>
		<g display="none" overflow="visible" y="0" x="0" height="100%" width="100%" id="canvasGrid">
			<rect fill="url(#gridpattern)" stroke-width="0" y="0" x="0" height="100%" width="100%"/>
		</g>
	</g>
	<g>
		<g>
			<g fill="#fff" transform="matrix(0.0321823, 0, 0, -0.0321823, -190.547, 196.908)">
				<path d="m17995.144531,1794.260986c-433,-36 -620,-66 -950,-150c-873,-225 -1658,-671.999878 -2295,-1308.999695c-939,-939 -1465,-2207.000305 -1465,-3532.000061c0,-795 183,-1562.999023 540,-2267.999023c618,-1219 1721,-2142 3020,-2528c757,-225.000488 1507,-272.001465 2287,-142c351,59 800,191 1123,332c604,262 1142,632 1596,1094c394,403 684,813 929,1314c143,294 220,492 310,805c129,446.999512 182,800.999023 192,1279.999023c14,691 -96,1310.999756 -348,1955.999756c-64,164 -221,489.000305 -314,649.000305c-391,677.999958 -941,1259 -1597,1688.999817c-367,239.999878 -739,419.999878 -1148,555.999878c-377,125 -677,191 -1080,236c-127,15 -691,27 -800,18zm706,-509c587,-56 1124,-209 1632,-463.999695c283,-142 601,-352 867,-572c141,-116 453,-430.000031 576,-580.000031c363,-439.999969 666,-993.000275 828,-1514.000275c202,-649.999756 262,-1336.999756 170,-1979.999756c-125,-884.999023 -475,-1662.999023 -1049,-2334.999023c-121,-142 -410,-426 -548,-540c-670,-550 -1458,-890 -2318,-1000c-616,-79 -1254,-26 -1864,157c-1177,351 -2179,1192 -2730,2292c-646,1290.999023 -646,2781.999023 2,4073.998779c526,1051.000259 1476,1872.000305 2598,2247c351,118 654,178 1110,223c109,11 583,5 726,-8z"/>
				<path d="m18165.144531,375.261292c-189,-30 -369,-122 -505,-259.000023c-93,-93.000021 -146,-169.000015 -192,-276.000008c-59,-136 -68,-188 -68,-369.999969c1,-196 11,-243 90,-405c262,-539.000305 967,-692.000305 1427,-311.000305c167,138.000122 284,344.000305 319,560.000305c15,93 7,277 -15,360.999969c-101,375.999992 -397,643.000031 -776,700.000031c-113,18 -167,17 -280,0z"/>
				<path d="m16921.144531,-1009.738708c4,-8 31,-51.000061 59,-95.000183c141,-218.000122 379,-687.000122 481,-944.999878c219,-557 317,-1029 301,-1455c-13,-329 -67,-546 -211,-834.999023c-241,-485 -692,-975 -1351,-1468c-168,-126 -452,-317 -629,-424c-72,-43 -128,-78 -125,-78c3,0 70,29 149,65c483,220 1079,417 1568,519c992,208 1804,157 2797,-175c315,-106 586,-219 902,-378c155,-77 189,-90 102,-37c-210,126 -578,393 -803,582c-662,554 -1089,1117 -1265,1667.999023c-88,273 -102,615 -40,974c100,585 414,1301.999756 872,1991.999878c57,86.000183 46,76.000183 -79,-70.000122c-114,-133 -373,-393 -489,-492c-296,-249 -538,-382 -760,-417.999756c-206,-33 -432,54.999756 -735,287.999756c-124,95 -456,433 -598,608c-67,83.000122 -129,159.000244 -138,170.000305c-8,10 -12,12 -8,4z"/>
			</g>
		</g>
		<rect height="13" width="260" y="454" x="-0.5" stroke-width="0" stroke="#000" fill="#fff"/>
		<rect height="13" width="260" y="133" x="539.5" stroke-width="0" stroke="#000" fill="#fff"/>
		<rect height="36" width="588" y="513" x="-0.5" fill-opacity="null" stroke-opacity="null" stroke-width="0" stroke="#000" fill="#fff"/>
		<rect height="36" width="588" y="51" x="211.5" fill-opacity="null" stroke-opacity="null" stroke-width="0" stroke="#000" fill="#fff"/>
		<path d="m781.205872,528.057251l-27.130615,-39.501709l17.869507,0l27.130493,39.501709l-27.130493,39.498352l-17.869507,0l27.130615,-39.498352z" fill-opacity="null" stroke-opacity="null" stroke-width="0" stroke="#000" fill="#fff"/>
		<path d="m744.205872,528.057251l-27.130615,-39.501709l17.869507,0l27.130493,39.501709l-27.130493,39.498352l-17.869507,0l27.130615,-39.498352z" fill-opacity="null" stroke-opacity="null" stroke-width="0" stroke="#000" fill="#fff"/>
		<path transform="rotate(180, 60.5742, 70.0547)" d="m65.205872,70.05722l-27.130615,-39.501678l17.869507,0l27.130493,39.501678l-27.130493,39.498383l-17.869507,0l27.130615,-39.498383z" fill-opacity="null" stroke-opacity="null" stroke-width="0" stroke="#000" fill="#fff"/>
		<path transform="rotate(180, 23.5742, 70.0547)" d="m28.205872,70.05722l-27.130615,-39.501678l17.869507,0l27.130493,39.501678l-27.130493,39.498383l-17.869507,0l27.130615,-39.498383z" fill-opacity="null" stroke-opacity="null" stroke-width="0" stroke="#000" fill="#fff"/>
	</g>
</svg>