<svg version="1.1" id="Edital" xmlns="http://www.w3.org/2000/svg" xmlns:xlink="http://www.w3.org/1999/xlink" x="0px" y="0px" width="620" height="250" xml:space="preserve">
	<rect fill="#007358" id="canvas_background" height="252" width="622" y="-1" x="-1"/>
	<g display="none" overflow="visible" y="0" x="0" height="100%" width="100%" id="canvasGrid">
		<rect fill="url(#gridpattern)" stroke-width="0" y="0" x="0" height="100%" width="100%"/>
	</g>
	<text font-style="normal" font-weight="bold" xml:space="preserve" text-anchor="start" font-family="'Courier New', Courier, monospace" font-size="110" id="edital" y="98.449997" x="29.5" stroke-width="0" stroke="#000" fill="#ffffff">Edital</text>
	<g id="palestrante" fill="#ffffff">
		<g transform="matrix(6.97227, 0, 0, 6.97227, -601.218, -24.7842)" id="mesa">
			<path id="contorno da mesa" d="m168.195908,27.761612l-4.180008,0c-0.414001,0 -0.75,-0.335999 -0.75,-0.75s0.335999,-0.75 0.75,-0.75l3.654007,0l1.455002,-4l-20.359009,0l1.455017,4l3.654999,0c0.414001,0 0.75,0.335999 0.75,0.75s-0.335999,0.75 -0.75,0.75l-4.180008,0c-0.315002,0 -0.597,-0.196999 -0.705002,-0.493999l-2,-5.5c-0.083008,-0.23 -0.049988,-0.486 0.091003,-0.687c0.139999,-0.200001 0.368988,-0.319 0.613998,-0.319l22.5,0c0.24501,0 0.473999,0.118999 0.613998,0.32c0.140991,0.200001 0.174011,0.457001 0.091003,0.687l-2,5.5c-0.108002,0.296001 -0.389999,0.493 -0.705002,0.493z"/>
		</g>
		<g transform="matrix(6.97227, 0, 0, 6.97227, -601.218, -24.7842)" id="base da mesa">
			<path id="contorno da base da mesa" d="m163.196899,31.761612c-0.037994,0 -0.075989,-0.002998 -0.11499,-0.009003c-0.408997,-0.062996 -0.690002,-0.445999 -0.626999,-0.854996l0.866989,-5.636002l-8.751984,0l0.866989,5.636002c0.063004,0.409996 -0.218002,0.792 -0.626999,0.854996c-0.408997,0.067001 -0.792999,-0.216995 -0.854996,-0.626999l-1,-6.5c-0.033005,-0.215996 0.029007,-0.436996 0.171997,-0.602997s0.349991,-0.261002 0.569,-0.261002l10.5,0c0.219009,0 0.427002,0.096001 0.569,0.262001s0.205002,0.386002 0.171997,0.602997l-1,6.5c-0.056,0.370003 -0.375992,0.635002 -0.740005,0.635002z"/>
		</g>
		<g transform="matrix(6.97227, 0, 0, 6.97227, -601.218, -24.7842)" id="base do microfone">
			<path id="cabo de suporte do microfone" d="m169.445908,22.011612c-0.414001,0 -0.75,-0.335999 -0.75,-0.75c0,-1.979 -1.057999,-3.852001 -2.761002,-4.889c-0.354004,-0.216002 -0.466003,-0.677005 -0.25,-1.031005s0.677002,-0.466 1.031006,-0.25c2.145996,1.308005 3.479004,3.672004 3.479004,6.170005c0.000992,0.414001 -0.335007,0.75 -0.749008,0.75z"/>
		</g>
		<g transform="matrix(6.97227, 0, 0, 6.97227, -601.218, -24.7842)" id="microfone">
			<circle id="cabeça do microfone" r="1.499999" cy="15.261636" cx="165.446283"/>
		</g>
		<g transform="matrix(6.97227, 0, 0, 6.97227, -601.218, -24.7842)" id="cabeça">
			<path id="contorno da cabeça" d="m158.945908,15.761607c-2.206009,0 -4,-1.794001 -4,-3.999993s1.793991,-3.999975 4,-3.999975s4,1.793991 4,3.999975s-1.793991,3.999993 -4,3.999993zm0,-6.499977c-1.378998,0 -2.5,1.121993 -2.5,2.499984s1.121002,2.499993 2.5,2.499993s2.5,-1.121997 2.5,-2.499993s-1.121002,-2.499984 -2.5,-2.499984z"/>
		</g>
		<g transform="matrix(6.97227, 0, 0, 6.97227, -601.218, -24.7842)" id="corpo">
			<path id="contorno do corpo" d="m166.445908,22.261612c-0.414001,0 -0.75,-0.335999 -0.75,-0.75c0,-1.792 -1.457993,-3.25 -3.25,-3.25l-7,0c-1.792007,0 -3.25,1.458 -3.25,3.25c0,0.414001 -0.335999,0.75 -0.75,0.75s-0.75,-0.335999 -0.75,-0.75c0,-2.618999 2.130997,-4.75 4.75,-4.75l7,0c2.619003,0 4.75,2.131001 4.75,4.75c0,0.414001 -0.335999,0.75 -0.75,0.75z"/>
		</g>
	</g>
	<g id="casal" fill="#ffffff">
		<g transform="matrix(0.186198, 0, 0, 0.186198, -10.9915, -31.5036)" id="crachá direito">
			<path id="crachá no peito do homem" d="m1312.087158,1225.942993l-28.067017,0c-4.141968,0 -7.5,3.35791 -7.5,7.5c0,4.143066 3.358032,7.5 7.5,7.5l28.067017,0c4.141968,0 7.5,-3.356934 7.5,-7.5c0,-4.14209 -3.358032,-7.5 -7.5,-7.5z"/>
		</g>
		<g transform="matrix(0.186198, 0, 0, 0.186198, -10.9915, -31.5036)" id="corpo do homem">
			<path id="contorno do corpo do homem" d="m1477.293701,1145.651001l-40.842041,-15.75293l-20.823975,-20.82312c-1.336914,-1.337036 -3.060059,-2.060913 -4.820068,-2.17395l0,-16.569092c9.814209,-10.463867 16.800537,-23.714844 19.619629,-38.642944c1.75,0.078979 3.51709,-0.062012 5.26001,-0.418091c9.979492,-2.042969 17.2229,-11.302002 17.2229,-22.013916l0,-5.468994c0,-6.197021 -2.513184,-11.88501 -6.605469,-15.951965c6.623291,-36.02002 1.168213,-65.374023 -15.846436,-85.021057c-16.457764,-19.002991 -42.972412,-28.085999 -76.674561,-26.263c-31.136597,1.683044 -51.236572,16.009033 -57.604492,21.25c-3.486084,0.414001 -9.424072,1.638 -15.434082,5.244019c-8.329956,4.997986 -18.259033,15.497009 -18.259033,37.130005c0,18.872009 3.016113,34.627991 5.200073,43.567017c-7.320068,3.565979 -12.217041,11.294006 -12.217041,20.128967l0,5.384033c0,10.711914 7.243042,19.970947 17.222046,22.013916c1.74292,0.357056 3.510986,0.49707 5.26001,0.418091c2.81897,14.927979 9.805908,28.179077 19.618896,38.642944l0,16.569092c-1.76001,0.113037 -3.483887,0.836914 -4.819946,2.17395l-20.822998,20.822998l-40.840942,15.753052c-3.533081,1.361938 -6.908081,3.128906 -10.030029,5.25c-3.426025,2.327881 -4.31604,6.991943 -1.989014,10.417969c1.450928,2.135986 3.809937,3.285889 6.209961,3.285889c1.45105,0 2.916992,-0.420898 4.208008,-1.296875c2.177002,-1.479004 4.531982,-2.710938 6.999023,-3.663086l37.902954,-14.619873l28.980103,43.470947c3.591919,5.388916 9.349976,8.845947 15.794922,9.483887c0.717041,0.071045 1.434082,0.106079 2.145996,0.106079c3.730957,0 7.351074,-0.981079 10.555054,-2.794067l-6.218994,141.068115c-0.182983,4.137939 3.023926,7.640869 7.162964,7.822998c0.112061,0.004883 0.223999,0.006958 0.335938,0.006958c3.98999,0 7.310059,-3.14502 7.487061,-7.170044l5.772217,-130.940918l15.570557,0l5.772217,130.940918c0.177002,4.026123 3.49707,7.170044 7.487305,7.170044c0.112061,0 0.223877,-0.002075 0.335938,-0.006958c4.138184,-0.182129 7.345215,-3.685059 7.16333,-7.822998l-6.219238,-141.068115c3.204102,1.812988 6.823242,2.794067 10.55542,2.794067c0.711914,0 1.428955,-0.035034 2.145996,-0.106079c6.445068,-0.637939 12.202393,-4.094971 15.79541,-9.483887l28.980957,-43.470947l37.904541,14.619873c5.315918,2.050049 9.892334,5.321045 13.490234,9.4021l-25.931641,25.930908c-9.369385,9.369141 -14.528564,21.824951 -14.528564,35.072998l0,106.640137c0,4.141846 3.35791,7.5 7.500244,7.5c4.14209,0 7.500244,-3.358154 7.500244,-7.5l0,-106.640137c0,-9.240967 3.598877,-17.930908 10.134277,-24.466064l22.758789,-22.757813c0.914063,3.352905 1.341064,6.87793 1.197266,10.481934l-5.809326,143.078003c-0.167969,4.139038 3.051025,7.630005 7.189209,7.79895c0.104004,0.004028 0.207031,0.006104 0.310059,0.006104c4.000977,0 7.325195,-3.161133 7.488281,-7.195068l5.811035,-143.082031c0.851074,-21.223877 -11.892334,-40.618896 -31.711182,-48.262939zm-184.660522,-97.055054c-1.322998,-7.20105 -7.991089,-12.434937 -15.187988,-11.901978c-0.56897,0.041016 -1.155029,0.000977 -1.744995,-0.119019c-2.982056,-0.609985 -5.231079,-3.756958 -5.231079,-7.317993l0,-5.385986c0,-3.479004 2.325073,-6.613037 5.291992,-7.134033c2.504028,-0.439941 4.901978,0.479004 6.419067,2.458008c1.376953,1.794922 3.213989,3.079102 5.311035,3.710938c3.071899,0.927979 6.458984,0.383057 9.062988,-1.454834c4.689941,-3.311035 8.827881,-7.356079 12.29895,-12.024109c2.472046,-3.323975 1.780029,-8.021973 -1.542969,-10.492981c-3.325073,-2.471985 -8.022095,-1.781006 -10.494019,1.54303c-1.730957,2.328003 -3.687012,4.440979 -5.840088,6.310974c-2.37793,-2.033997 -5.155884,-3.504028 -8.132935,-4.343018c-1.927002,-7.382019 -5.357056,-23.19696 -5.357056,-42.270996c0,-11.487 3.541016,-19.557983 10.524048,-23.987976c5.448975,-3.457031 11.215942,-3.595032 11.212036,-3.596008c1.916992,0 3.782959,-0.755005 5.175049,-2.072021c0.182861,-0.171997 18.619873,-17.281982 50.19458,-18.989014c28.902832,-1.559998 51.215576,5.736023 64.525146,21.104004c13.414307,15.490051 17.881592,39.271057 13.0354,69.036011c-2.009033,-0.070984 -4.208252,0.080994 -6.397217,0.446045l-7.046387,-16.921997c-1.437988,-3.452026 -5.204102,-5.31604 -8.822021,-4.373047c-0.697266,0.182007 -69.960449,17.73999 -99.001587,-18.415955c-2.593018,-3.229004 -7.312988,-3.745056 -10.543945,-1.151001c-3.229004,2.593994 -3.744995,7.313965 -1.150024,10.543945c29.656006,36.921997 88.501709,28.890015 108.090332,24.973022l5.448975,13.085022c2.343262,5.625 8.337402,8.696899 14.245605,7.303955c2.425293,-0.570923 4.742188,-0.583984 5.612305,-0.411987c3.032959,0.604004 5.320313,3.629028 5.320313,7.039063l0,5.469971c0,3.562012 -2.249268,6.708008 -5.231445,7.317993c-0.588867,0.120972 -1.177979,0.161011 -1.744873,0.119019c-7.196289,-0.524048 -13.864502,4.699951 -15.188477,11.902954c-5.456299,29.703979 -31.344238,51.264038 -61.556152,51.264038c-30.21167,0 -56.098633,-21.560059 -61.554565,-51.264038zm33.270996,132.57605c-1.901978,1.901978 -4.113037,1.994873 -5.263062,1.880981c-1.148926,-0.112915 -3.299927,-0.639038 -4.791992,-2.877075l-29.194946,-43.791992l11.740967,-11.740967l44.82019,39.218018l-17.311157,17.311035zm21.159302,9.906982l0.453857,-10.308105l6.669434,-6.668945l6.669189,6.668945l0.453857,10.308105l-14.246338,0zm7.124268,-37.550049l-41.617676,-36.415039l0,-14.354004c12.100098,7.695068 26.416016,12.100098 41.617676,12.100098s29.518799,-4.405029 41.619385,-12.100098l0,14.354004l-41.619385,36.415039zm38.341064,26.646973c-1.49292,2.239014 -3.644043,2.76416 -4.791992,2.877075c-1.151123,0.113892 -3.362061,0.020996 -5.26416,-1.881958l-17.311523,-17.311035l44.821533,-39.218018l11.741455,11.740967l-29.195313,43.792969z"/>
		</g>
		<g transform="matrix(0.186198, 0, 0, 0.186198, -10.9915, -31.5036)" id="corpo da mulher">
			<path id="contorno do corpo da mulher" d="m1234.886108,1184.955933l-36.621948,-15.984863l-20.019043,-20.019043c-1.340942,-1.342041 -3.064941,-2.062012 -4.819946,-2.174072l0,-11.799072c17.109009,-11.24292 29.629028,-29.123901 33.651978,-50.430908c1.969971,0.088013 3.958984,-0.101074 5.918945,-0.563965c9.597046,-2.270996 16.562012,-11.468018 16.562012,-21.868042l0,-5.468018c0,-7.598022 -3.77002,-14.432983 -9.610962,-18.442993c1.718018,-6.805908 2.593994,-13.769043 2.593994,-20.778076c0,-31.071899 -16.796021,-58.43988 -42.113037,-74.153931c-0.269897,-25.932983 -22.404907,-46.953003 -49.588013,-46.953003c-27.182983,0 -49.317993,21.02002 -49.587891,46.953003c-25.31604,15.713989 -42.112183,43.083008 -42.112183,74.153931c0,6.988037 0.869995,13.931152 2.578003,20.718018c-5.838013,3.98999 -9.594971,10.857056 -9.594971,18.585083l0,5.385986c0,10.400024 6.964966,19.597046 16.562134,21.868042c1.959961,0.463867 3.947998,0.651855 5.918945,0.563965c4.023071,21.307007 16.544067,39.187988 33.652954,50.430908l0,11.799072c-1.754883,0.112061 -3.479004,0.832031 -4.819946,2.174072l-20.019043,20.018921l-36.621216,15.984985c-18.632751,8.134033 -30.572754,27.246094 -29.711792,47.559082l4.429138,104.49292c0.171021,4.030029 3.491882,7.183105 7.487915,7.183105c0.106934,0 0.214966,-0.002197 0.322998,-0.00708c4.138916,-0.175049 7.350952,-3.671997 7.175903,-7.811035l-4.429993,-104.493896c-0.285034,-6.733154 1.465027,-13.266113 4.755066,-18.88916l19.684875,23.62207c6.221191,7.465088 9.646118,16.927002 9.646118,26.643066l0,73.436035c0,4.141846 3.358032,7.5 7.5,7.5c4.14209,0 7.5,-3.358154 7.5,-7.5l0,-73.436035c0,-13.218018 -4.661011,-26.090088 -13.122925,-36.245117l-20.927246,-25.112915c1.779053,-1.225952 3.670044,-2.312012 5.69104,-3.19397l31.916138,-13.932129l22.554077,36.609131c2.226929,3.61499 5.908936,6.065918 10.102905,6.726074c0.754028,0.118896 1.51001,0.177002 2.263062,0.177002c3.428955,0 6.768921,-1.215088 9.416992,-3.475098l14.291992,-12.195068l0,124.077148c0,4.141846 3.358032,7.5 7.5,7.5s7.5,-3.358154 7.5,-7.5l0,-124.075195l14.291016,12.195068c2.647949,2.26001 5.987915,3.475098 9.416992,3.475098c0.751953,0 1.509033,-0.059082 2.262939,-0.177002c4.194092,-0.660156 7.876099,-3.111084 10.103027,-6.726074l22.554077,-36.609985l31.915894,13.932007c2.02002,0.88208 3.911987,1.968018 5.69104,3.19397l-20.927002,25.112915c-8.462036,10.154053 -13.123047,23.0271 -13.123047,36.245117l0,73.436035c0,4.141846 3.358032,7.5 7.5,7.5c4.14209,0 7.5,-3.358154 7.5,-7.5l0,-73.436035c0,-9.716064 3.426025,-19.177979 9.645996,-26.643066l19.685059,-23.621948c3.290039,5.622925 5.040039,12.156006 4.755005,18.889038l-4.428955,104.493896c-0.175049,4.138062 3.036987,7.63501 7.175903,7.811035c0.108032,0.005127 0.215088,0.00708 0.322998,0.00708c3.996094,0 7.317017,-3.1521 7.488037,-7.183105l4.428955,-104.49292c0.860107,-20.312988 -11.080933,-39.426025 -29.714966,-47.560059zm-104.043945,-273.635986c15.955933,0 29.417969,10.179016 33.398926,23.971008c-10.354004,-3.90802 -21.619995,-6.057007 -33.398926,-6.057007c-11.779053,0 -23.045044,2.148987 -33.399048,6.057007c3.981079,-13.791992 17.442017,-23.971008 33.399048,-23.971008zm-61.555054,170.136963c-1.322021,-7.202881 -8.000977,-12.434937 -15.187012,-11.902954c-0.636963,0.045044 -1.294922,-0.008911 -1.958984,-0.166992c-2.859985,-0.677002 -5.016968,-3.803101 -5.016968,-7.270996l0,-5.385986c0,-3.479004 2.324951,-6.613037 5.291992,-7.134033c2.504028,-0.440063 4.901001,0.480103 6.416992,2.457031c1.376953,1.796021 3.213989,3.079956 5.312988,3.713989c3.071045,0.927979 6.460083,0.383057 9.062012,-1.456055c4.619019,-3.26001 8.703003,-7.233887 12.139038,-11.809937c2.486938,-3.312012 1.817993,-8.014038 -1.494019,-10.5c-3.312988,-2.486938 -8.014038,-1.817993 -10.500977,1.494019c-1.70105,2.264893 -3.616089,4.323975 -5.722046,6.152954c-3.208984,-2.744019 -7.144043,-4.462036 -11.317993,-4.983032c-1.437012,-5.648926 -2.171997,-11.426025 -2.171997,-17.236938c0,-40.358032 34.407959,-73.193054 76.702026,-73.193054c42.292969,0 76.700928,32.834045 76.700928,73.193054c0,5.799927 -0.730957,11.565063 -2.162964,17.203979c-1.973999,0.156982 -3.97998,0.47998 -5.837036,0.961914l-5.637939,-4.635986c-2.833008,-2.329834 -6.399048,-3.49585 -10.008057,-3.281006c-11.023926,0.651123 -67.481934,2.14209 -96.447998,-32.523926c-2.656006,-3.177979 -7.38501,-3.60199 -10.563965,-0.945984c-3.178955,2.656006 -3.602051,7.385986 -0.946045,10.563965c14.286011,17.097107 35.239014,28.65802 62.276001,34.362c20.70105,4.366943 39.103027,3.943115 46.312988,3.531982l8.796021,7.233032c2.421021,1.991089 5.81604,2.272095 8.526978,0.69397c1.272095,-0.692871 5.532104,-1.35498 7.391113,-0.983887c3.032959,0.602905 5.31897,3.628906 5.31897,7.039917l0,5.468018c0,3.468994 -2.156982,6.594971 -5.016968,7.270996c-0.663086,0.156982 -1.322021,0.213989 -1.958984,0.166016c-7.182129,-0.522095 -13.865112,4.70105 -15.18811,11.902954c-5.455933,29.705078 -31.342896,51.265015 -61.553955,51.265015c-30.212036,0 -56.099976,-21.559937 -61.55603,-51.264038zm30.456055,131.57605l-22.557983,-36.616089l11.555908,-11.555908l31.058105,31.057983l-20.05603,17.114014zm31.098999,-27.285034l-27.583984,-27.583984l0,-15.515991c8.610962,3.277954 17.916016,5.072998 27.583984,5.072998c9.667969,0 18.973022,-1.795044 27.583984,-5.071899l0,15.514893l-27.583984,27.583984zm31.098999,27.285034l-20.05603,-17.114014l31.057983,-31.057983l11.55603,11.555908l-22.557983,36.616089z"/>
		</g>
		<g transform="matrix(0.186198, 0, 0, 0.186198, -10.9915, -31.5036)" id="crachá esquerdo">
			<path id="crachá no peito da mulher" d="m1102.775146,1259.022949l-21.050049,0c-4.141968,0 -7.5,3.358032 -7.5,7.5c0,4.141968 3.358032,7.5 7.5,7.5l21.050049,0c4.141968,0 7.5,-3.358032 7.5,-7.5c0,-4.141968 -3.358032,-7.5 -7.5,-7.5z"/>
		</g>
	</g>
	<g id="mulher" fill="#ffffff">
		<g transform="matrix(0.162861, 0, 0, 0.162861, 105.048, 73.061)" id="desenho completo">
			<path id="contorno completo" d="m-117.116272,751.922729c-6.749084,-33.804993 -38.461365,-39.55896 -38.56134,-39.60498l0,0.000977c-0.340942,-0.099976 2.909088,0.714966 -77.341492,-19.177002l0,-2.723022l59.075378,0c12.177094,0 22.08316,-9.906982 22.08316,-22.083008l0,-112.665955c0.99295,-4.189026 0.995026,-8.544006 0,-12.742004l0,-41.119019c0,-4.143982 -3.359009,-7.500977 -7.501038,-7.500977c-4.144073,0 -7.501007,3.356995 -7.501007,7.500977l0,21.527039c-3.960114,-2.364014 -8.483093,-4.059021 -13.357178,-4.89801c-1.76001,-7.817017 -8.252136,-13.997009 -16.485107,-15.078003c-8.582092,-1.128021 -15.086151,-6.131012 -19.331177,-14.869019c-1.986969,-4.091003 -5.878967,-6.778015 -10.409027,-7.190002c-4.534088,-0.410004 -8.827087,1.527008 -11.51413,5.184998c-12.894012,17.548004 -48.73938,56.906982 -110.63681,56.904968c-4.709015,0 -7.902039,-0.222961 -9.014099,-0.272949c-11.374115,-0.684998 -20.991119,8.402954 -20.991119,19.799988l0,17.234985c0,27.546997 11.42807,54.252991 31.352295,73.269043c6.607941,6.307007 13.897064,11.567993 21.670074,15.762939l0,6.234009l-58.805359,0c-3.90506,0 -7.082092,-3.177002 -7.082092,-7.080994l0,-168.549988c0,-54.643005 44.553314,-99.669006 98.371704,-99.669006c0.17395,0 0.348022,0.001007 0.520996,0.002014c19.282135,0.102997 41.545349,5.579987 56.716492,13.949005c9.615051,5.306976 15.554077,1.088989 25.049133,1.088989c23.175232,0 41.747375,23.829987 43.973358,45.263c0.014038,0.313995 0.046997,1.571014 0.051025,6.386993c0.005005,7.240997 8.183044,7.796997 7.507019,7.494995c4.144073,-0.002991 7.498077,-3.36499 7.495026,-7.506989c-0.000977,-1.332001 0.01001,-6.554993 -0.11499,-7.766998c-3.015991,-29.837006 -28.467255,-58.872986 -58.910461,-58.872986c-11.890106,0 -13.743011,3.013977 -17.802124,0.777985c-17.203156,-9.490997 -42.279266,-15.700012 -63.883423,-15.81601c-62.272552,-0.402985 -113.976929,51.473999 -113.976929,114.667999l0,168.550018c0,12.177002 9.907196,22.082947 22.08429,22.082947l58.806335,0l0,2.723022l-77.038544,19.093018c-0.102051,0.025024 -0.202026,0.054016 -0.302979,0.083008l-5.628082,1.660034c-0.168945,0.049927 -0.334961,0.10498 -0.500031,0.165955c-10.044006,3.747986 -27.61322,13.638977 -32.434174,37.782043c-22.830139,114.682007 -21.869202,109.784973 -21.924133,110.177979c-2.75,19.450989 6.987,35.01001 30.410156,35.01001l81.11557,0c4.144073,0 7.501038,-3.358032 7.501038,-7.501038c0,-4.143982 -3.357941,-7.500977 -7.501038,-7.500977l-28.227112,0l0,-70.75c0,-4.143982 -3.358063,-7.501038 -7.50116,-7.501038s-7.501038,3.358032 -7.501038,7.501038l0,70.75l-37.886261,0c-9.964081,0 -15.750122,-3.208008 -15.846069,-13.674988c-0.041992,-5.106018 -0.243042,-0.129028 22.073151,-113.578003c3.359039,-16.822998 15.575073,-23.849976 22.732117,-26.571045l5.202057,-1.533936l44.240326,-10.965027c49.213379,57.976013 46.299408,54.903992 49.143433,57.677979c16.426025,16.02301 39.864197,14.892029 55.290314,-3.223999l46.325439,-54.413025l44.071228,10.923035c1.275055,0.585999 23.213196,4.445007 27.936249,28.102966c22.124207,112.467041 22.11615,108.45105 22.074158,113.575073c-0.075928,10.251953 -5.622009,13.681946 -15.846069,13.681946l-37.617218,0l0,-70.750977c0,-4.143982 -3.357086,-7.501038 -7.50116,-7.501038s-7.501038,3.358032 -7.501038,7.501038l0,70.75l-138.656067,0c-4.143951,0 -7.501038,3.357971 -7.501038,7.500977c0,4.143982 3.358063,7.501038 7.501038,7.501038l191.276459,0c18.532104,0 30.677216,-10.197021 30.848236,-28.562988c0.062988,-8.577026 -0.447998,-4.479004 -22.365143,-116.629028zm-62.612518,-218.01001c6.264069,1.862976 11.095154,5.991028 12.867157,11.088989l0,8.593994c-1.772003,5.098999 -6.603088,9.22699 -12.867157,11.08905l0,-30.772034zm0,47.546021l0,-1.38501c4.688141,-0.866028 9.041077,-2.526001 12.867157,-4.810974l0,93.073975c0,3.904968 -3.177032,7.080017 -7.081116,7.080017l-59.076355,0l0,-5.796997c31.804169,-16.627014 53.290314,-49.91803 53.290314,-88.161011zm-157.161224,61.109009c-16.973022,-16.200989 -26.707092,-38.950012 -26.707092,-62.417053c0.445923,-16.33197 -1.081085,-18.310974 1.525024,-20.764954c0.922974,-0.870056 2.163971,-1.375 3.560944,-1.294983c53.784454,3.237976 100.0448,-20.406006 130.587036,-59.994019c8.235046,14.459961 20.312164,18.961975 29.266205,20.138977c2.237915,0.294006 3.927032,2.204041 3.927032,4.445007c0,20.750977 0,38.177002 0,58.778992c0,74.635986 -89.352722,111.507019 -142.159149,61.108032zm75.30368,117.949951c-10.451141,12.277039 -25.081268,12.244019 -35.507355,-0.062012l-15.651123,-18.472961l66.938477,0l-15.779999,18.534973zm28.554138,-33.537964l-92.421692,0l-12.891083,-15.216003l22.074127,-5.471985c3.348053,-0.828979 5.696106,-3.906982 5.696106,-7.35498l0.000977,-23.206055c20.640167,6.880005 42.437317,6.805054 62.55246,0.213989c0.140991,23.975037 -0.322021,23.426025 0.418091,25.541016c0.817871,2.338013 2.766998,4.182983 5.276886,4.805054l22.219299,5.506958l-12.925171,15.182007z"/>
		</g>
	</g>
	<g id="homem" fill="#ffffff">
		<g transform="matrix(0.162035, 0, 0, 0.162035, 97.2309, 65.3084)" id="desenho completo">
			<path id="contorno completo" d="m1804.254272,850.325317c-4.14209,0 -7.500122,3.358032 -7.500122,7.5l0,70.514038c0,2.282959 -1.858032,4.140991 -4.140991,4.140991l-40.317383,0l0,-147.697021c0,-4.141968 -3.358154,-7.5 -7.500122,-7.5c-4.141968,0 -7.500122,3.358032 -7.500122,7.5l0,147.697998l-81.185669,0l23.543335,-25.900024c2.572021,-2.829956 3.784912,-6.860962 3.243896,-10.786987c-0.01001,-0.075989 -0.021973,-0.151978 -0.034912,-0.228027l-22.42334,-132.466919l6.041138,-9.093994c3.340088,2.371948 5.913086,4.655945 10.738037,4.655945c4.908081,0 9.497192,-2.747009 11.755127,-7.268982l0,-0.000977l23.650269,-47.400024l53.876343,20.86499c1.948975,0.835999 30.252319,13.582031 30.252319,47.238037l0,50.72998c-0.000977,4.140991 3.357056,7.5 7.500122,7.5c4.14209,0 7.500122,-3.358032 7.500122,-7.5l0,-50.72998c0,-44.343994 -37.969482,-60.463013 -39.585449,-61.128052c-0.046997,-0.02002 -0.094971,-0.03894 -0.142944,-0.057007l-89.668823,-34.725952l0,-21.030029c14.242188,-11.075989 24.117188,-27.494995 26.596313,-46.22699c7.100952,-0.5 13.689941,-3.151978 19.071045,-7.778992c7.0271,-6.04303 11.059082,-14.838013 11.059082,-24.125977c0,-7.708008 -2.780884,-15.067993 -7.737061,-20.80304l0,-27.78302c-0.000977,-51.254028 -41.699341,-92.953033 -92.953735,-92.953033c-51.254517,0 -92.953125,41.699005 -92.953125,92.953033l0,28.510986c-5.009033,5.677002 -7.733154,12.665039 -7.733154,20.074036c0,9.291016 4.030151,18.085022 11.059204,24.129028c5.377075,4.625 11.962158,7.273987 19.061279,7.774963c2.499023,19.083008 12.662231,36.114014 28.11731,47.338989l0,19.920044l-89.572144,34.724976c-0.046997,0.018005 -0.093994,0.036987 -0.140991,0.05603c-1.617188,0.664978 -39.585693,16.783936 -39.585693,61.12793l0,156.244995c0,10.555054 8.587158,19.142029 19.142456,19.142029l71.457886,0c4.14209,0 7.500122,-3.357971 7.500122,-7.5c0,-4.142029 -3.358032,-7.5 -7.500122,-7.5l-16.137207,0l0,-147.695984c0,-4.141968 -3.358154,-7.5 -7.500122,-7.5c-4.14209,0 -7.500122,3.358032 -7.500122,7.5l0,147.697998l-40.319458,0c-2.283203,0 -4.141113,-1.858032 -4.141113,-4.140991l0,-156.247009c0,-33.768982 28.493286,-46.486023 30.243286,-47.234009l53.834961,-20.869995l23.652344,47.402039c2.262939,4.532959 6.85791,7.269958 11.756104,7.269958c4.801025,0 7.349121,-2.248962 10.738037,-4.656006l6.041016,9.094055l-22.421143,132.467957c-0.013062,0.075012 -0.024048,0.149963 -0.035034,0.226013c-0.541992,3.92395 0.671021,7.95697 3.244019,10.78894l23.543335,25.900024l-29.995361,0c-4.141968,0 -7.500122,3.358032 -7.500122,7.5s3.358154,7.5 7.500122,7.5l200.366821,0c10.555176,0 19.142212,-8.588013 19.142212,-19.141968l0,-70.514038c-0.001953,-4.142944 -3.360107,-7.500977 -7.502075,-7.500977zm-105.680054,-151.773987l-22.049194,44.190002c-0.547974,-0.389038 -12.233032,-8.69104 -26.51709,-18.833984c6.197998,-7.651001 -1.052979,1.29895 27.235107,-33.617004l21.331177,8.260986zm-44.332275,46.763977l-5.718018,8.607056l-18.703247,0l-5.718018,-8.607056l15.07019,-10.703003l15.069092,10.703003zm-43.300537,-66.711975l0,-14.036011c9.112183,3.673035 18.85022,5.376038 28.360352,5.376038c9.83313,0 19.476318,-2.096008 28.052246,-5.846008l0,14.566956l-28.181152,34.785034l-28.231445,-34.846008zm113.13916,-101.58197c-0.000977,4.912964 -2.12915,9.561951 -5.839111,12.752991c-2.453003,2.109985 -5.416016,3.458984 -8.661011,3.987l0,-33.477051c8.619995,1.400024 14.500122,8.550049 14.500122,16.737061zm-156.87561,16.73999c-8.71814,-1.415039 -14.500244,-8.623047 -14.500244,-16.741028c0,-8.018005 6.647095,-14.544006 14.500244,-16.358948l0,33.099976zm0.402954,-48.383057c-2.389038,0.274048 -5.127075,0.921021 -7.168091,1.615051l0,-18.558044c0,-42.983032 34.968506,-77.952026 77.952026,-77.952026c42.983276,0 77.951538,34.968994 77.951538,77.952026l0,18.04303c-2.179932,-0.663025 -4.440918,-1.101013 -6.761963,-1.307007c0,-7.237 0.062988,-5.841003 -23.612305,-31.294006c-4.354004,-4.67804 -11.555908,-5.65802 -17.037109,-2.077057c-26.130249,17.069061 -58.005615,25.644073 -87.415771,23.532074c-6.451172,-0.482971 -12.327271,3.765991 -13.908325,10.045959zm14.598267,54.288025l0,-46.791992l0,-2.465027c32.375366,1.896057 66.318726,-7.721924 93.739868,-25.282959c10.858032,11.657959 16.738281,17.77301 18.634155,20.098999c0,5.884033 0,47.705017 0,54.440002c0,30.44696 -24.826172,55.276001 -55.277466,55.276001c-34.194336,0.000977 -57.096558,-26.525024 -57.096558,-55.275024zm19.615234,143.075012l-22.049194,-44.190002l21.293213,-8.247009l27.241211,33.625c-13.853027,9.837036 -25.228149,17.919006 -26.485229,18.812012zm8.60498,154.442993l21.709229,-128.263l14.071289,0l21.709106,128.263l-28.744263,31.623047l-28.745361,-31.623047z"/>
		</g>
	</g>
</svg>