<svg version="1.1" id="Jornal" xmlns="http://www.w3.org/2000/svg" xmlns:xlink="http://www.w3.org/1999/xlink" x="0px" y="0px" width="620" height="250" xml:space="preserve">
	<rect fill="#007358" id="background" height="252" width="622" y="-1" x="-1"/>
	<g display="none" overflow="visible" y="0" x="0" height="100%" width="100%" id="canvasGrid">
		<rect fill="url(#gridpattern)" stroke-width="0" y="0" x="0" height="100%" width="100%"/>
	</g>
	<text transform="matrix(1.02975, 0, 0, 1.02975, -3.90136, -7.39254)" font-weight="bold" xml:space="preserve" text-anchor="start" font-family="'Palatino Linotype', 'Book Antiqua', Palatino, serif" font-size="140" id="jornal" y="157.686215" x="211.188904" stroke-width="0" stroke="#000" fill="#ffffff">Jornal</text>
	<g id="svg_95">
		<g transform="matrix(0.406942, 0, 0, 0.406942, -186.253, -277.356)" fill="#ffffff" id="cabelo">
			<path id="contorno do cabelo" d="m643.083801,812.622437c-66.274048,0 -120,53.726013 -120,120l0,88c0.035034,30.912964 25.087036,55.964966 56,56l8,0l0,-16l-8,0c-22.079956,-0.026001 -39.973999,-17.920044 -40,-40l0,-88c0,-57.437988 46.562012,-104 104,-104s104,46.562012 104,104l0,88c-0.026001,22.079956 -17.920044,39.973999 -40,40l-8,0l0,16l8,0c30.912964,-0.035034 55.964966,-25.087036 56,-56l0,-88c0,-66.273987 -53.725952,-120 -120,-120z"/>
		</g>
		<g transform="matrix(0.406942, 0, 0, 0.406942, -186.253, -277.356)" fill="#ffffff" id="peito esquerdo">
			<path id="controrno lateral do peito esquerdo" d="m549.01178,1189.654541l5.848022,-9.208008l-13.511963,-8.57605l-5.848022,9.215942c-17.687012,27.87207 -16.374023,63.76001 3.303955,90.264038l0,21.271973l16,0l0,-24c0.000977,-1.817017 -0.616943,-3.580933 -1.751953,-5c-17.008057,-21.261963 -18.630981,-50.97998 -4.040039,-73.967896z"/>
		</g>
		<g transform="matrix(0.406942, 0, 0, 0.406942, -186.253, -277.356)" fill="#ffffff" id="balão">
			<path id="corno externo do balão" d="m923.083801,812.622437l-104,0c-22.079956,0.026001 -39.973999,17.920044 -40,40l0,80c0.026001,22.080017 17.920044,39.973999 40,40l16,0l0,32c-0.000977,3.235046 1.947021,6.153015 4.936035,7.392029c0.970947,0.404968 2.011963,0.611023 3.063965,0.607971c2.12207,0 4.156006,-0.843994 5.656006,-2.343994l37.656006,-37.656006l36.687988,0c22.079956,-0.026001 39.973999,-17.919983 40,-40l0,-80c-0.026001,-22.079956 -17.920044,-39.973999 -40,-40zm24,120c0,13.255005 -10.744995,24 -24,24l-40,0c-2.12207,0 -4.156006,0.843994 -5.656006,2.343994l-26.343994,26.344055l0,-20.688049c0,-4.417969 -3.582031,-8 -8,-8l-24,0c-13.255005,0 -24,-10.744995 -24,-24l0,-80c0,-13.255005 10.744995,-24 24,-24l104,0c13.255005,0 24,10.744995 24,24l0,80z"/>
		</g>
		<g transform="matrix(0.406942, 0, 0, 0.406942, -186.253, -277.356)" fill="#ffffff" id="linha 1 coluna 1">
			<rect id="primeira coluna da primeira linha" height="16" width="56" y="852.622467" x="819.083967"/>
		</g>
		<g transform="matrix(0.406942, 0, 0, 0.406942, -186.253, -277.356)" fill="#ffffff" id="linha 1 coluna 2">
			<rect id="segunda coluna da primeira linha" height="16" width="32" y="852.622467" x="891.083967"/>
		</g>
		<g transform="matrix(0.406942, 0, 0, 0.406942, -186.253, -277.356)" fill="#ffffff" id="linha 2">
			<rect id="segunda linha" height="16" width="104" y="884.622467" x="819.083967"/>
		</g>
		<g transform="matrix(0.406942, 0, 0, 0.406942, -186.253, -277.356)" fill="#ffffff" id="linha 3">
			<rect id="terceira linha" height="16" width="56" y="916.622467" x="819.083967"/>
		</g>
		<g transform="matrix(0.406942, 0, 0, 0.406942, -186.253, -277.356)" fill="#ffffff" id="peito direito">
			<path id="contorno lateral do peito direito" d="m750.667786,1181.086426l-5.8479,-9.215942l-13.512085,8.57605l5.848022,9.215942c14.592041,22.984985 12.968994,52.70105 -4.040039,73.959961c-1.13501,1.419067 -1.75293,3.182983 -1.751953,5l0,24l16,0l0,-21.271973c19.677979,-26.504028 20.990967,-62.391968 3.303955,-90.264038z"/>
		</g>
		<g transform="matrix(0.406942, 0, 0, 0.406942, -186.253, -277.356)" fill="#ffffff" id="corpo mulher">
			<path id="contorno do corpo" d="m955.083801,1084.622437l-72,0c-30.015991,0.035034 -54.666016,23.729004 -55.887939,53.720093l-24.112061,43.407959l0,-33.128052c-0.035034,-30.912964 -25.087036,-55.964966 -56,-56l-29.23999,0l-0.216064,-0.167969l-0.143921,0.167969l-18.400024,0c-8.837036,0 -16,-7.162964 -16,-16l0,-18.823975c24.718994,-14.271973 39.962036,-40.632996 40,-69.176025l0,-64c-0.011963,-13.254944 -3.310059,-26.299988 -9.599976,-37.967957c-2.015015,-3.712036 -6.56897,-5.218994 -10.400024,-3.440002l-135.407959,63.711975c-2.804077,1.320007 -4.593018,4.141052 -4.592041,7.240051l0,34.455933c0.037964,28.54303 15.281006,54.904053 40,69.176025l0,18.823975c0,8.837036 -7.162964,16 -16,16l-48,0c-30.912964,0.035034 -55.964966,25.087036 -56,56l0,144l16,0l0,-144c0.026001,-22.079956 17.920044,-39.973999 40,-40l25.456055,0l72.039917,100.656006c1.47998,2.06897 3.856079,3.310059 6.400024,3.343994l0.104004,0c2.518066,0 4.889038,-1.185913 6.400024,-3.199951l76,-100.800049l21.599976,0c22.079956,0.026001 39.973999,17.920044 40,40l0,64c0.004028,4.418091 3.588989,7.99707 8.006958,7.993042c2.901978,-0.003052 5.575073,-1.57605 6.984985,-4.113037l37.712036,-67.880005l45.864014,0l-78,144l18.200073,0l78.031982,-144l3.199951,0c30.912964,-0.035034 55.964966,-25.087036 56,-56c0,-4.417969 -3.582031,-8 -8,-8zm-376,-96l0,-29.375977l123.527954,-58.127991c2.955078,7.484009 4.472046,15.458008 4.472046,23.503967l0,64c0,35.346008 -28.654053,64 -64,64c-35.345947,0 -64,-28.653992 -64,-64zm64.167969,202.495972l-24.687988,-34.495972l50.687988,0l-26,34.495972zm38.104004,-50.495972l-74.271973,0l-22.904053,-32l2.904053,0c17.672974,0 32,-14.327026 32,-32l0,-11.687988c15.621948,4.916992 32.378052,4.916992 48,0l0,11.687988c0,17.672974 14.327026,32 32,32l6.400024,0l-24.128052,32zm225.728027,-8l-63.199951,0c3.824951,-18.612915 20.197998,-31.979004 39.199951,-32l63.199951,0c-3.824951,18.613037 -20.197998,31.979004 -39.199951,32z"/>
		</g>
	</g>
	<g transform="matrix(0.075964, 0, 0, 0.075964, 157.467, 137.218)" fill="#ffffff" id="seta direta 5">
		<path id="quinta seta direita" d="m5797.689453,1037.379395l-218.948242,-218.94397c-5.063965,-5.067993 -11.82373,-7.859985 -19.031738,-7.859985s-13.968262,2.791992 -19.032227,7.859985l-16.124023,16.119995c-10.491699,10.503967 -10.491699,27.57605 0,38.063965l183.855957,183.856079l-184.05957,184.059937c-5.064453,5.067993 -7.860352,11.823975 -7.860352,19.027954c0,7.212036 2.795898,13.968018 7.860352,19.040039l16.124023,16.115967c5.067871,5.067993 11.82373,7.860107 19.031738,7.860107s13.968262,-2.792114 19.031738,-7.860107l219.152344,-219.143921c5.076172,-5.083984 7.86377,-11.871948 7.847656,-19.088013c0.016113,-7.244019 -2.771484,-14.027954 -7.847656,-19.108032z"/>
	</g>
	<g transform="matrix(0.075816, 0, 0, 0.075816, 288.677, 153.912)" fill="#ffffff" id="seta esquerda 5">
		<path id="quinta seta esquerda" d="m4061.117188,581.805298l184.052734,-184.064026c5.067871,-5.055969 7.855957,-11.815979 7.855957,-19.023987c0,-7.212036 -2.788086,-13.968018 -7.855957,-19.031982l-16.127441,-16.119995c-5.060547,-5.072021 -11.824219,-7.864014 -19.032227,-7.864014s-13.963379,2.791992 -19.027344,7.864014l-219.144287,219.143982c-5.084229,5.080017 -7.86792,11.867981 -7.848145,19.083984c-0.019775,7.247986 2.76001,14.028015 7.848145,19.112l218.940186,218.932007c5.063965,5.072021 11.819824,7.864014 19.031738,7.864014c7.208008,0 13.963379,-2.791992 19.031738,-7.864014l16.123535,-16.119995c10.492188,-10.491943 10.492188,-27.572021 0,-38.060059l-183.848633,-183.851929z"/>
	</g>
	<g transform="matrix(0.075964, 0, 0, 0.075964, 157.467, 137.218)" fill="#ffffff" id="seta direita 4">
		<path id="quarta seta direita" d="m5332.565918,1037.379395l-218.948242,-218.94397c-5.063965,-5.067993 -11.82373,-7.859985 -19.031738,-7.859985s-13.968262,2.791992 -19.032227,7.859985l-16.124023,16.119995c-10.491699,10.503967 -10.491699,27.57605 0,38.063965l183.855957,183.856079l-184.05957,184.059937c-5.064453,5.067993 -7.860352,11.823975 -7.860352,19.027954c0,7.212036 2.795898,13.968018 7.860352,19.040039l16.124023,16.115967c5.067871,5.067993 11.82373,7.860107 19.031738,7.860107s13.968262,-2.792114 19.031738,-7.860107l219.152344,-219.143921c5.076172,-5.083984 7.86377,-11.871948 7.847656,-19.088013c0.016113,-7.244019 -2.771484,-14.027954 -7.847656,-19.108032z"/>
	</g>
	<g transform="matrix(0.075816, 0, 0, 0.075816, 288.677, 153.912)" fill="#ffffff" id="seta esquerda quatro">
		<path id="quarta seta esquerda" d="m3595.093994,581.805298l184.048828,-184.064026c5.067627,-5.055969 7.855713,-11.815979 7.855713,-19.023987c0,-7.212036 -2.788086,-13.968018 -7.855713,-19.031982l-16.127197,-16.119995c-5.060303,-5.072021 -11.82373,-7.864014 -19.031494,-7.864014s-13.963135,2.791992 -19.026855,7.864014l-219.141846,219.143982c-5.084229,5.080017 -7.86792,11.867981 -7.848145,19.083984c-0.019775,7.247986 2.76001,14.028015 7.848145,19.112l218.937744,218.932007c5.063721,5.072021 11.819336,7.864014 19.03125,7.864014c7.207764,0 13.962891,-2.791992 19.031006,-7.864014l16.123291,-16.119995c10.491699,-10.491943 10.491699,-27.572021 0,-38.060059l-183.844727,-183.851929z"/>
	</g>
	<g transform="matrix(0.075964, 0, 0, 0.075964, 157.467, 137.218)" fill="#ffffff" id="seta direita 3">
		<path id="terceira seta direita" d="m4867.469727,1037.379395l-218.948242,-218.94397c-5.063965,-5.067993 -11.82373,-7.859985 -19.031738,-7.859985s-13.968262,2.791992 -19.032227,7.859985l-16.124023,16.119995c-10.491699,10.503967 -10.491699,27.57605 0,38.063965l183.855957,183.856079l-184.05957,184.059937c-5.064453,5.067993 -7.860352,11.823975 -7.860352,19.027954c0,7.212036 2.795898,13.968018 7.860352,19.040039l16.124023,16.115967c5.067871,5.067993 11.82373,7.860107 19.031738,7.860107s13.968262,-2.792114 19.031738,-7.860107l219.152344,-219.143921c5.076172,-5.083984 7.86377,-11.871948 7.847656,-19.088013c0.016113,-7.244019 -2.771484,-14.027954 -7.847656,-19.108032z"/>
	</g>
	<g transform="matrix(0.075816, 0, 0, 0.075816, 288.677, 153.912)" fill="#ffffff" id="seta esquerda 3">
		<path id="terceira seta esquerda" d="m3129.093994,581.805298l184.048828,-184.064026c5.067627,-5.055969 7.855713,-11.815979 7.855713,-19.023987c0,-7.212036 -2.788086,-13.968018 -7.855713,-19.031982l-16.127197,-16.119995c-5.060303,-5.072021 -11.82373,-7.864014 -19.031494,-7.864014s-13.963135,2.791992 -19.026855,7.864014l-219.141846,219.143982c-5.084229,5.080017 -7.86792,11.867981 -7.848145,19.083984c-0.019775,7.247986 2.76001,14.028015 7.848145,19.112l218.937744,218.932007c5.063721,5.072021 11.819336,7.864014 19.03125,7.864014c7.207764,0 13.962891,-2.791992 19.031006,-7.864014l16.123291,-16.119995c10.491699,-10.491943 10.491699,-27.572021 0,-38.060059l-183.844727,-183.851929z"/>
	</g>
	<g transform="matrix(0.075964, 0, 0, 0.075964, 157.467, 137.218)" fill="#ffffff" id="seta direita 2">
		<path id="segunda seta direita" d="m4397.934082,1037.379395l-218.948242,-218.94397c-5.063965,-5.067993 -11.82373,-7.859985 -19.031738,-7.859985s-13.968262,2.791992 -19.032227,7.859985l-16.124023,16.119995c-10.491699,10.503967 -10.491699,27.57605 0,38.063965l183.855957,183.856079l-184.05957,184.059937c-5.064453,5.067993 -7.860352,11.823975 -7.860352,19.027954c0,7.212036 2.795898,13.968018 7.860352,19.040039l16.124023,16.115967c5.067871,5.067993 11.82373,7.860107 19.031738,7.860107s13.968262,-2.792114 19.031738,-7.860107l219.152344,-219.143921c5.076172,-5.083984 7.86377,-11.871948 7.847656,-19.088013c0.016113,-7.244019 -2.771484,-14.027954 -7.847656,-19.108032z"/>
	</g>
	<g transform="matrix(0.075816, 0, 0, 0.075816, 288.677, 153.912)" fill="#ffffff" id="seta esquerda 2">
		<path id="segunda seta esquerda" d="m2658.670166,581.805298l184.048828,-184.064026c5.067627,-5.055969 7.855713,-11.815979 7.855713,-19.023987c0,-7.212036 -2.788086,-13.968018 -7.855713,-19.031982l-16.127197,-16.119995c-5.060303,-5.072021 -11.82373,-7.864014 -19.031494,-7.864014s-13.963135,2.791992 -19.026855,7.864014l-219.141846,219.143982c-5.084229,5.080017 -7.86792,11.867981 -7.848145,19.083984c-0.019775,7.247986 2.76001,14.028015 7.848145,19.112l218.937744,218.932007c5.063721,5.072021 11.819336,7.864014 19.03125,7.864014c7.207764,0 13.962891,-2.791992 19.031006,-7.864014l16.123291,-16.119995c10.491699,-10.491943 10.491699,-27.572021 0,-38.060059l-183.844727,-183.851929z"/>
	</g>
	<g transform="matrix(0.075964, 0, 0, 0.075964, 157.467, 137.218)" fill="#ffffff" id="seta direita 1">
		<path id="primeira seta direita" d="m3932.795898,1037.379395l-218.936035,-218.94397c-5.063721,-5.067993 -11.823242,-7.859985 -19.030762,-7.859985s-13.967529,2.791992 -19.03125,7.859985l-16.123047,16.119995c-10.491211,10.503967 -10.491211,27.57605 0,38.063965l183.845703,183.856079l-184.049316,184.059937c-5.064209,5.067993 -7.859863,11.823975 -7.859863,19.027954c0,7.212036 2.795654,13.968018 7.859863,19.040039l16.123047,16.115967c5.067627,5.067993 11.823242,7.860107 19.030762,7.860107s13.967529,-2.792114 19.030762,-7.860107l219.140137,-219.143921c5.075928,-5.083984 7.863281,-11.871948 7.847168,-19.088013c0.016113,-7.244019 -2.77124,-14.027954 -7.847168,-19.108032z"/>
	</g>
	<g transform="matrix(0.075816, 0, 0, 0.075816, 288.677, 153.912)" fill="#ffffff" id="seta esquerda 1">
		<path id="primeira seta esquerda" d="m2192.642822,581.805298l184.048828,-184.064026c5.067627,-5.055969 7.855713,-11.815979 7.855713,-19.023987c0,-7.212036 -2.788086,-13.968018 -7.855713,-19.031982l-16.127197,-16.119995c-5.060303,-5.072021 -11.82373,-7.864014 -19.031494,-7.864014s-13.963135,2.791992 -19.026855,7.864014l-219.141846,219.143982c-5.084229,5.080017 -7.86792,11.867981 -7.848145,19.083984c-0.019775,7.247986 2.76001,14.028015 7.848145,19.112l218.937744,218.932007c5.063721,5.072021 11.819336,7.864014 19.03125,7.864014c7.207764,0 13.962891,-2.791992 19.031006,-7.864014l16.123291,-16.119995c10.491699,-10.491943 10.491699,-27.572021 0,-38.060059l-183.844727,-183.851929z"/>
	</g>
</svg>