<svg version="1.1" id="Notícia" xmlns="http://www.w3.org/2000/svg" xmlns:xlink="http://www.w3.org/1999/xlink" x="0px" y="0px" width="620" height="250" xml:space="preserve">
	<rect fill="#007358" id="canvas_background" height="252" width="622" y="-1" x="-1"/>
	<g display="none" overflow="visible" y="0" x="0" height="100%" width="100%" id="canvasGrid">
		<rect fill="url(#gridpattern)" stroke-width="0" y="0" x="0" height="100%" width="100%"/>
	</g>
	<text font-weight="normal" font-style="italic" xml:space="preserve" text-anchor="start" font-family="Georgia, Times, 'Times New Roman', serif" font-size="170" id="svg_1" y="186.450012" x="37.5" stroke-width="0" stroke="#000" fill="#ffffff">N  tícia</text>
	<g id="sinteemar" fill="#ffffff" transform="matrix(0.00421682, 0, 0, -0.00421682, -152.795, 80.3382)">
		<path d="m84911.171875,-5223.632813c-14,-4 -62,-8 -108,-9c-46,-1 -125,-5 -175,-9.999023c-51,-6 -146,-15 -212,-22c-160,-15 -583,-74 -720,-100c-299,-56 -442,-85 -535,-109c-19,-5.000977 -75,-19.000977 -125,-31.000977c-49,-11 -121,-30 -160,-40c-38,-11 -86,-24 -105,-29c-231,-62 -680,-208.999023 -885,-289.999023c-130,-51 -396,-160.000977 -453,-187.000977c-39,-18 -74,-33 -76,-33c-6,0 -203,-93 -361,-170.999023c-122,-60 -305,-156 -360,-188.999023c-16,-9 -57,-32 -90,-50c-447.96875,-242.000977 -1117.929688,-708.000977 -1564.898438,-1089.998047c-315.984375,-269 -782.953125,-727.99707 -1033.9375,-1014.995117c-356,-406.999023 -719,-890.99707 -956,-1274.995117c-145,-233.999023 -180,-291.999023 -180,-296.999023c0,-3 -8,-17 -18,-31c-11,-15 -36,-57.999023 -57,-96.999023c-21,-38 -60,-110 -88,-160.000977c-109,-196.998047 -287,-565.996094 -397,-824.995117c-33,-80 -68,-160.000977 -76,-178.000977c-9,-18.998047 -28,-67.998047 -44,-109.998047c-31,-88.000977 -58,-157.999023 -70,-186.999023c-35,-84 -184,-535.998047 -221,-671.99707c-5,-18 -13,-47.998047 -18,-64.998047c-16,-54 -52,-190.000977 -62,-232.999023c-6,-22 -14,-57 -19,-77c-15,-58.000977 -27,-108.000977 -40,-167.999023c-7,-30 -16,-71 -20,-90c-10,-45.000977 -40,-191.999023 -71,-350c-57,-288.99707 -107,-696.99707 -141,-1144.995117c-15,-192.999023 -15,-1113.995117 0,-1304.995117c37,-478 84,-847.000977 152,-1190.000977c34,-176.001953 52,-265.001953 60,-300.001953c4,-19 13,-60 20,-90c13,-58 23,-104 40,-170.001953c6,-22 14,-57 19,-77c5,-21 16,-64 25,-95c9,-32 22,-82 30,-110c45,-165.001953 180,-595 205,-653.001953c5,-11 14,-36 21,-55c7,-19 16,-44 20,-55c4,-11 18,-47 30,-80c12,-33 26,-69.001953 30,-80.001953c4,-11 18,-47 31,-80c12,-33 33,-82 45,-110c12,-27.001953 38,-89.001953 58,-137.001953c20,-47 54,-125.998047 77,-174.998047c22,-48 50,-108 61,-133c33,-75.001953 204,-412.003906 259,-512.005859c28,-51 65,-118 82,-148c71,-129.998047 279,-469 391,-635.001953c401,-599.003906 757,-1030.007813 1275.96875,-1547.003906c473.976563,-470.996094 891.945313,-817.996094 1434.914063,-1189.994141c168.984375,-116.001953 672.953125,-428 689.953125,-428c2,0 30,-15 62,-34c130,-76.005859 424,-226.005859 658,-337.003906c112,-52 477,-209.005859 487,-209.005859c5,0 27,-8 51,-19c23,-10 78,-32 122,-49c44,-16 100,-38 125,-47c133,-50 576,-190.998047 760,-241.998047c101,-27 324,-84.003906 375,-94.005859c28,-6 66,-15 85,-19c165,-38 269,-58 530,-104c47,-8 164,-26 260,-40c160,-23 219,-30 470,-56c155,-15.998047 794,-49.998047 940,-49.998047c133,0 783,34.998047 920,49.998047c47,5 132,14 190,20c234.007813,25 624.015625,86 835.023438,130c22,5 67.007813,14 100.007813,20c74,14 139,28 185.007813,40c19,5 76,18.001953 125,30.001953c50,11 104,24 120.007813,29.003906c17,5 68,19 115,31c212.007813,56 729.023438,218.998047 825.03125,259.998047c11,4 47,18 80,30c33,12 69,26 80,30c11,4 47,18 80.007813,31c67,25 383.007813,160.005859 490.015625,209.005859c112,51 463.015625,225.998047 540.015625,267.998047c39,21 106,58.001953 150.007813,82.005859c122,67 129,71 295.007813,170c541.015625,323 1105.03125,743 1590.046875,1183.998047c82.007813,74.001953 314.015625,302.996094 485.023438,477.996094c544.015625,554.998047 1107.03125,1310.003906 1483.046875,1988.005859c14,25 42,75 63,112c42,72.001953 267.007813,517.003906 311.007813,614.005859c14,32 44.007813,97 65.007813,144c32,68.998047 90,209.998047 223.007813,545.001953c68,171 220,639 272.007813,835.001953c11,41 24,91 29,110c6,19 15,52 20,73c5,20 13,54 19,75c13,52 26,107.001953 40,172.001953c7,30 16,71 20,90c7,31 19,92 50,245c41.007813,206.001953 80.007813,447.001953 105.007813,650.003906c8,72 18,147.999023 20,169.999023c8,59 24,239.000977 37,410c7,88 12,366.999023 12,679.998047c0,312.998047 -5,591.99707 -12,679.99707c-12,164.999023 -29,348 -36,409.998047c-3,22 -10,81 -16,130.000977c-22,172.998047 -53,386.99707 -70,474.998047c-5,25 -14,74 -20,109.998047c-6,36 -15.007813,83 -20.007813,105.000977c-5,22 -13,67 -20,100c-6,32.998047 -15,79.998047 -21,104.998047c-6,25 -14,63.000977 -19,85.000977c-8,37 -45,193.999023 -56,239.999023c-6,25 -48,181.999023 -67,254.999023c-52.007813,189.99707 -179.007813,582.994141 -247.007813,759.995117c-103.007813,272.999023 -166.007813,425.998047 -257.007813,629.99707c-98.007813,221.999023 -277.015625,578.998047 -383.015625,764.99707c-15,28 -37,66 -48,85c-340.015625,605.99707 -874.03125,1339.994141 -1307.046875,1799.992188c-176.007813,185.999023 -387.007813,406.998047 -403.007813,419.998047c-9.007813,8 -82.007813,74.998047 -162.007813,149.998047c-524.015625,489.998047 -1042.039063,880.998047 -1678.054688,1266.998047c-112.007813,68 -205.007813,123 -207.007813,123c-2,0 -30,15 -62,34c-132.007813,76.999023 -446.015625,236.999023 -683.023438,348.998047c-164.007813,77 -580.023438,252.000977 -660.023438,277.000977c-14,5 -63,22 -110,40c-140.007813,52 -474.015625,161.999023 -635.023438,208.999023c-121.007813,35 -453.015625,122 -540.015625,140.000977c-87.007813,19 -251.015625,53 -275.015625,58c-14,3 -68,13 -120,23c-294.007813,58 -716.023438,114 -1045.023438,140c-77,5.999023 -169,12.999023 -205,15.999023c-109,9 -1103,13 -1130,4zm1025,-994.999023c452,-27 688,-53 1115.015625,-124c30,-5 125,-24 210.007813,-41c85,-18 173,-36 196.007813,-40c63,-12.999023 491.015625,-123.999023 534.015625,-138.999023c14,-5 45,-14 70,-21c25,-7 86,-26 135.007813,-42c50,-15 106,-33 125,-39.000977c19,-6 58,-19 85.007813,-29c28,-10 100,-37 161,-59c130.007813,-47 396.015625,-151.999023 472.015625,-186.999023c29,-13 54,-24 56,-24c8.007813,0 202.007813,-92 386.015625,-183.000977c559.015625,-275.999023 1094.039063,-615.998047 1604.054688,-1019.996094c463.015625,-367.99707 916.03125,-810.995117 1306.039063,-1275.993164c109.007813,-129.999023 293.015625,-362.998047 345.015625,-436.998047c17,-23 71,-100 121,-170.999023c120.007813,-168.000977 222.007813,-325.999023 361.015625,-555.998047c62,-103.000977 113,-188.999023 113,-190.999023c0,-1 27,-50 59.007813,-109c67,-118.999023 252.007813,-487.998047 295.007813,-586.99707c38,-86 64,-146 88,-199.000977c85.007813,-189.999023 231.007813,-587.996094 318.015625,-870.993164c13,-41.000977 29,-93.000977 36,-115.000977c39,-125.998047 130,-484.998047 170,-669.99707c34.007813,-162.998047 53.007813,-261.999023 84.007813,-456.998047c36,-225.999023 57,-400.99707 87,-742.99707c21,-239.999023 24,-1087.996094 5,-1319.995117c-46,-550.999023 -109,-968.000977 -217.007813,-1435.00293c-28,-122 -99,-388.001953 -135,-505.001953c-12,-38 -25,-83 -30,-100c-44.007813,-166.001953 -246.007813,-711.001953 -344.015625,-930.003906c-13,-27 -31,-70 -42,-95c-35,-84.001953 -292.007813,-595.001953 -343.015625,-684.001953c-28,-48 -51,-89 -51,-90c0,-16 -273.007813,-453.003906 -378.007813,-606.001953c-330.015625,-481.003906 -664.023438,-883.007813 -1082.039063,-1300.009766c-478.015625,-479 -872.03125,-800.996094 -1415.046875,-1158.994141c-219.007813,-144.998047 -187.007813,-123.998047 -380.007813,-238.998047c-262.015625,-156.001953 -622.023438,-346 -840.03125,-442c-27,-12 -74,-33 -103,-46c-29.007813,-13 -55.007813,-24.001953 -57.007813,-24.001953c-2,0 -30,-12 -61,-26c-75,-34 -408.015625,-164 -509.015625,-198c-44,-14.998047 -89,-30.998047 -100,-34.998047c-11.007813,-5 -81.007813,-28 -155.007813,-51c-74,-23 -146.007813,-46 -160.007813,-51c-99,-33 -471.015625,-130.005859 -645.023438,-168.005859c-120,-26 -306.007813,-63 -412.007813,-81c-143.007813,-23 -182.007813,-30 -258.007813,-40c-44.007813,-6 -95.007813,-14 -114.007813,-16c-19,-3 -73,-10 -120,-15c-910,-102.998047 -1866,-69.998047 -2716,92c-27,5 -75,14 -105,20c-30,6 -73,15 -95,19c-22,5 -62,14 -90,20c-128,27 -411,100.005859 -620,160.005859c-185,53 -470,149.998047 -714,243.998047c-93,36 -111,44 -203,85c-26,11 -50,21 -53,21c-2,0 -28,11 -57,24c-29,13.001953 -82,36.001953 -118,52.001953c-107,46 -506,246.998047 -645,323.998047c-106,60 -236,136.001953 -430,253.001953c-11,7 -117,77 -234.992188,155.998047c-849.945313,568.996094 -1593.898438,1275.994141 -2204.859375,2096.001953c-185.992188,250.001953 -474.984375,677.001953 -474.984375,702.001953c0,3 -8,17 -19,31c-18,26 -125,209.001953 -186,317.001953c-15,28 -78,149.001953 -140,270.001953c-101,198.998047 -142,283.998047 -204,428c-12,26 -30,67 -41,91c-89,198.001953 -275,712.001953 -358,991.003906c-69,228 -181,697.001953 -222,925.003906c-6,36 -15,85 -20,110c-14,77 -44,282.001953 -60,413.000977c-30,258.000977 -40,363.000977 -60,692.000977c-13,205.998047 -13,663.996094 0,869.995117c14,229.999023 30,426.998047 40,522.998047c27,231.999023 40,329 60,451.998047c5,30 14,87.000977 21,125.000977c33,203.999023 152,744.99707 188,854.995117c5,14 14,45.000977 21,70.000977c7,25 16,56 20,70c4,13.998047 18,58.998047 30,99.998047c79,259 219,649.995117 297,829.996094c8,19 19,44 24,55c279,646.99707 565,1159.995117 946.992188,1699.993164c199.984375,282.998047 493.96875,647.99707 695.953125,864.996094c488.96875,524.998047 909.945313,897.994141 1425.914063,1266.993164c547.976563,390.998047 1078.976563,688.99707 1734.976563,971.998047c11,5 36,16 55,23.999023c188,82 694,261.000977 895,317.000977c17,5 46,13 65,19c105,29 364,95 535,135.999023c78,19 314,65 430,84c159,27 300,47 415,61c288,33 347,38 620,55c288,17 672,17 965,0z"/>
		<path d="m85271.171875,-7824.62793c-41,-4 -112,-7 -157,-8c-45,0 -84,-4 -86,-8c-2,-5 -1,-30.000977 2,-58.000977l6,-50l50,0l50,0l7,-75c7,-78.999023 16,-225.999023 17,-271.99707c1,-27.000977 3,-28.000977 59,-28.000977c31,0 62,4.000977 69,8.000977c8,5 9,44 3,146.998047c-5,77 -9,158.999023 -10,181.999023l0,41l50,7c27,4 53,11 56,17c3,5 3,29 0,53c-8,51.000977 -13,52.000977 -116,44.000977z"/>
		<path d="m85536.171875,-8005.628906c-90,-238.999023 -105,-280.99707 -105,-288.99707c0,-11 114,-18 126,-8c7,6 16,24 19,39.998047c4,16 11,31 16,35c5,3 49,2 98,-1l89,-7l6,-31c10,-47.998047 23,-56.999023 87,-56.999023c33,0 59,4.000977 59,9.000977c0,9 -51,171.998047 -114,360.99707l-41,125.000977l-86,3l-85,3l-69,-183.000977zm177,4c10,-36.998047 21,-81.998047 25,-99.999023l6,-33l-47,2c-72,4 -73,5 -41,112.999023c16,52 31,93 34,90c3,-2 13,-35 23,-72z"/>
		<path d="m84781.171875,-7852.628906c-47,-8 -93,-34 -114,-65c-26,-41 -31,-106.998047 -11,-149.998047c20,-42.000977 52,-61.000977 127,-77.000977c29,-6 60,-15 69,-20c27,-14 30,-48 7,-71c-26,-26 -82,-20 -127,13c-17,12 -32,21 -34,18c-1,-2 -12,-25 -24,-51c-20,-42.998047 -21,-46.998047 -5,-60.998047c51,-45.000977 150,-59.000977 218,-31.000977c99,41.000977 140,133.999023 100,227.999023c-15,35 -82,76.000977 -124,76.000977c-13,0 -38,7 -57,14c-44,18.998047 -50,61.998047 -10,71.998047c26,6 68,2 97,-10c19,-8 32,10 42,60c6,28 4,32 -21,42c-38,14 -91,19.000977 -133,13z"/>
		<path d="m86027.171875,-7862.628906c-4,-5 -11,-60 -17,-123c-5,-61.998047 -14,-155.999023 -19,-207.999023c-5,-52 -11,-101.998047 -15,-110.998047c-3,-9 0,-20.000977 7,-26.000977c13,-10 164,-26 248,-26c90,0 150,55.000977 150,135.999023c0,38 -33,97 -55,97c-23,0 -18,11 20,46.000977c30,27 35,38 35,75.998047c0,80 -45,114 -180,135c-101,15 -167,17 -174,4zm212,-124c16,-13 15,-51.998047 -2,-65.998047c-8,-7 -34,-11 -58,-9c-43,3 -43,3 -40,37.998047c4,58 8,62 49,54c21,-4 44,-11 51,-17zm0,-193.999023c15,-21 15,-35 -1,-57c-10,-13 -24,-17 -67,-14l-55,3l3,45c2,25 8,48 14,51c16,10 92,-10 106,-28z"/>
		<path d="m84361.171875,-7909.628906c-74,-13 -136,-23 -137,-24c-6,0 -2,-54 7,-92.998047c5,-23 18,-91.000977 30,-152.000977c36,-199.999023 43,-229.999023 50,-237.999023c4,-4 27,-4 51,2c55,12 141,28 197,36c38,6 42,9 42,35c0,16 -5,41.000977 -10,56.000977c-11,28.998047 -1,27.998047 -126,8c-41,-6 -41,-6 -48,30.998047c-4,20 -5,39 -3,41c2,3 33,10 68,16c35,6 68,15 73,19c5,5 4,27 -4,54l-13,46.000977l-41,-6c-23,-3 -56,-9.000977 -73,-12.000977c-35,-5 -40,1 -45,47.000977c-3,24.998047 2,27.998047 116,46.998047c37,6 38,7 32,42c-3,20 -6,44 -6,54c0,21 7,21 -160,-9z"/>
		<path d="m86506.171875,-7964.628906c-6,-40 -29,-166.999023 -54,-303.999023c-26,-134.999023 -26,-131.999023 11,-137.999023c18,-2 71,-12 118,-21c164.007813,-31.998047 145.007813,-34.998047 159.007813,20c15,58 6,68 -67.007813,79c-26,3 -55,8.000977 -64,11.000977c-21,6 -24,43 -5,65.998047c11,14 19,14 77,2c35,-7 68.007813,-10 72.007813,-6c4,4 10,26 14,49c6,38 4,43 -17,52c-13,5 -45.007813,13 -71.007813,16c-55,7 -62,14 -53,56.000977c7,31 8,31 54,24c125.007813,-18 118.007813,-19 124.007813,7c11,37.998047 8,77.998047 -5,81.998047c-22,7 -181.007813,35 -234.007813,42l-52,6l-7,-43z"/>
		<path d="m86938.179688,-8000.628906c-9,-14 -117,-455.996094 -113,-460.996094c3,-2 38,-13 78,-24c40,-10 97.007813,-26 126.007813,-34c82,-22 88,-20 102,32c8,29 9,48.998047 3,54.998047c-5,5 -38,17 -74,25c-35,9 -67,19 -71,23c-4,3 13,85.000977 37,180.999023l43,175.000977l-27,11.998047c-39,17 -98.007813,26 -104.007813,16z"/>
		<path d="m83736.171875,-8051.626953l-50,-17l0,-143.000977c0,-77.998047 -3,-141.999023 -7,-141.999023c-5,0 -42,52.000977 -84,114.999023c-43,63 -81,115 -87,115c-5,0 -34,-7 -64,-16l-56,-16l7,-62c4,-33 10,-82.998047 15,-110.999023c4,-27 16,-106 26,-174.998047c10,-68.999023 22,-129.999023 26,-135.999023c12,-15 114,18 113,37c-2,43 -27,196.99707 -35,216.99707c-5,13 -9,27 -9,32c0,27 24,0 94,-104.998047c42,-63 82,-114.999023 90,-114.999023c7,0 28,5 45,11l33,11.999023l-4,142.998047c-1,79 -1,143.999023 2,143.999023c3,0 12,-14.998047 19,-31.998047c49,-112.000977 102,-217.999023 108,-217.999023c21,0 108,37 108,46c0,5 -47,104.998047 -105,221.99707c-69,139 -110,212.000977 -120,212.000977c-8,-1 -37,-9 -65,-18z"/>
		<path d="m87283.195313,-8216.62793c-115.007813,-362.996094 -111.007813,-346.996094 -92.007813,-356.996094c35.007813,-19 230.007813,-80 254.015625,-80c19,0 26,5 26,19c0,11 5,23 10,26c6,3 10,17 10,29c0,21 -10,26.999023 -75.007813,46.999023c-76,23 -76,23 -69,53c10,48.998047 18,50.998047 91.007813,27c64,-21 68,-21 80,-5c7,9.998047 13,25.998047 13,34.998047c0,10 3,24 6,32c4,11 -11,20 -60,37c-36,12 -68.007813,25 -71.007813,30c-3,4.000977 -2,22.000977 1,39.000977c6,29.998047 9,31.998047 38.007813,25.998047c17,-4 50,-12.998047 74,-20.998047c57,-19 58,-19 71,16.998047c22,62 20,63 -115,108c-69.007813,22 -133.007813,41 -142.007813,41c-13,0 -26,-27 -50,-103z"/>
		<path d="m83066.171875,-8295.625977c-66,-27.000977 -122,-51.000977 -124,-54.000977c-2,-2 15,-50 39,-105.998047c23,-57 62,-151.999023 87,-212.999023c24,-60 50,-115 56,-122c10,-9.999023 37,-2 127,35c161,66 155,62 141,105c-20,59 -32,63 -108,32l-67,-26l-18,23c-25,32 -22,47 10,59c15,5.999023 35,14.999023 44,19.999023c10,5 24,9 32,9c31,0 37,26 16,73c-23,50.998047 -15,49.998047 -108,9.998047c-44,-18.998047 -63,-13.998047 -75,21c-11,33 -8,37 76,67c34,13 57,28 57,36c0,29.000977 -32,82.999023 -49,81.999023c-9,0 -70,-23 -136,-50.998047z"/>
		<path d="m87743.210938,-8304.625977c-103.007813,-51.000977 -167.007813,-201.999023 -130.007813,-309.998047c34,-101 126.007813,-171 225.007813,-173l54,-1l25.007813,59c13,33 24,61 24,63c0,2 -24,0 -53.007813,-3c-91,-11 -147,35 -147,119.999023c0,79 57,145.998047 125,145.998047c40,0 93.007813,-29 112.007813,-60.998047c22,-36 31,-36 43,-1c6,14.998047 15,34.998047 20,43.998047c17,31 11,55 -21,82c-48,40.000977 -95,56.000977 -168.007813,56.000977c-47,0 -78,-6 -109,-21z"/>
		<path d="m88108.21875,-8500.625c-25,-54 -64,-137.999023 -87,-187.999023c-23,-49 -48,-103 -56,-118.999023c-8,-16 -14,-31 -14,-33c0,-6 104,-53 118,-53c7,0 28,35 48,78c63.007813,138.999023 88.007813,193.999023 125.007813,270.998047c26,54 33,80 26,89c-9,11.998047 -92,51.998047 -107,51.998047c-4,0 -27.007813,-44 -53.007813,-96.998047z"/>
		<path d="m82527.171875,-8527.625c-57,-18 -123,-78.999023 -137,-125.999023c-24,-78 31,-166.999023 107,-176.999023c22,-2 64,0 95,5c73,11 99,2 99,-36c0,-49 -29,-66 -104,-60l-64,6l-4,-51c-4,-62 9,-76.999023 66,-76.999023c54,0 100,14.999023 153,51.999023c53,36 75,77 75,139c0,57.999023 -25,104.999023 -73,136.999023c-30,21 -40,23 -94,16c-99,-13 -126,-11 -139,9c-18,29 33,67 90,67c42,0 44,1 44,29c0,16 -4,40.999023 -10,54.999023c-11,29 -38,32 -104,12z"/>
		<path d="m88374.226563,-8641.624023c-42,-53 -97,-123 -122,-155.999023c-25,-32 -58,-73 -73,-91c-16,-18 -28,-37 -28,-41c0,-12 80,-54 101,-54c9,0 47,42 85,95c38,52 73.007813,94.999023 78.007813,94.999023c10,0 5,-39.999023 -23,-168.999023c-20.007813,-88.999023 -20.007813,-94.999023 -3,-106.999023c38,-30 60,-28 109,14c27,22 70,63.999023 98,92.999023c56.007813,59 69.007813,51 37.007813,-22c-11.007813,-24 -22.007813,-50.999023 -25.007813,-58.999023c-3,-8 -14,-39 -26,-67l-20,-52l43,-26c72.007813,-42 66.007813,-50 148.007813,174.999023c11,30 24,64 28,75c14,33 60,165.999023 60,172.999023c0,9 -95,62 -111,62c-8,0 -60,-46 -116.007813,-101.999023c-56,-56 -105,-100 -107,-97c-3,3 -1,23 5,45c10,38 14,53 38,156.999023c18,79 15,94 -26,120c-70,42.999023 -66,44.999023 -150.007813,-61z"/>
		<path d="m82126.171875,-8764.624023c-60,-37.999023 -116,-72.999023 -124,-77.999023c-14,-8 -13,-10 116,-215.999023c114,-183 128,-205 138,-205c6,0 33,15 60,33c28,18 80,51 117,72c37,22 68,46 68,53c0,18 -43,81.999023 -55,81.999023c-6,0 -35,-15.999023 -65,-34.999023c-30,-19 -60,-35 -67,-35c-13,0 -43,38 -43,55c0,6 27,26.999023 60,45.999023c33,18 60,41 60,49c0,9 -12,30 -27,48l-28,32l-55,-35c-30,-19 -62,-35 -70,-35c-8,0 -22,13 -32,29c-19,35 -15,40 64,86c27,15 50,30.999023 53,35.999023c6,9 -43,90 -54,88c-3,0 -55,-32 -116,-70z"/>
		<path d="m88865.25,-9055.62207c-71.007813,-105 -130.007813,-195 -132.007813,-199c-3,-8 231.007813,-168.999023 246.007813,-168.999023c9,0 62,73 62,84c0,3 -28,24 -62,47c-35,22.999023 -65,42.999023 -66,44.999023c-7,5 32,64 43,64c6,0 34,-16 62,-35c29,-19 58,-35 65,-35c13,0 58.007813,61 58.007813,79c0,5 -27,26 -60.007813,47c-33,22 -60,44 -60,50c0,18 41,54.999023 53,46.999023c7,-3.999023 34.007813,-21.999023 60.007813,-40.999023c27,-18 55,-31 63,-28c13,5 54,63 54,76.999023c0,10 -229.007813,159 -243.007813,159c-8,0 -72,-86 -143,-191.999023z"/>
		<path d="m81791.171875,-8977.623047c-72,-40 -190,-126.999023 -190,-140.999023c0,-6 13,-26 28,-45c15,-19 77,-104 137,-186.999023c59,-84 114,-153 122,-153c18,0 93,50 93,63c0,5 -21,38 -46,74c-25,35 -44,66 -42,69c3,2 46,-15 96,-38l91,-41l55,38c53,36 72,65 43,65c-7,0 -51,14.999023 -98,33.999023c-78,32 -105,55 -80,71c16,9 13,92 -4,124c-27,53.999023 -71,80.999023 -128,80.999023c-29,-1 -63,-7 -77,-14zm84,-131.999023c23,-22 20,-60 -6,-84c-31,-28 -44,-25 -73,17c-31,46 -31,57 -2,71c32,16 63,14 81,-4z"/>
		<path d="m89308.257813,-9165.62207c-73,-87 -257.007813,-320.999023 -257.007813,-327.999023c0,-13 100.007813,-78.999023 112.007813,-73.999023c7,3 42,44 78,90.999023c98.007813,129 98.007813,128 105.007813,122c3,-4 2,-24 -4,-45c-8,-31 -17.007813,-265.999023 -12.007813,-309.999023c1,-14 85.007813,-73.999023 103.007813,-73.999023c7,0 19,9 26,21c7,11 64,83.999023 126.007813,161.999023c62,78 120,153.999023 129,167.999023l17,26l-53,41l-54,41l-89.007813,-114c-83,-106.999023 -115,-137.999023 -100,-97.999023c13,31.999023 27,333.998047 17,346.998047c-6,7 -30,26 -55,44l-44,32l-45.007813,-52z"/>
		<path d="m81342.171875,-9304.621094c-104,-52 -161,-156 -148,-269.999023c9,-74 66,-152 142,-191.999023c57,-31 173,-30 231,0c165,86.999023 201,286.998047 75,412.998047c-85,84.999023 -193,101.999023 -300,49zm175,-119c45,-28 78,-98.999023 69,-146.999023c-8,-45 -54,-90 -100,-99c-76,-14 -165,69 -165,154c0,37.999023 5,48.999023 36,77.999023c30,28 43,34 81,34c28,0 58,-8 79,-20z"/>
		<path d="m85271.171875,-9299.621094c-261,-47 -424,-96 -592,-179c-296,-145.999023 -545,-366.998047 -728,-644.99707c-63,-96.000977 -170,-304.999023 -170,-330.999023c0,-8.000977 -4,-19.000977 -8,-24.000977c-5,-5.998047 -19,-43.998047 -31,-84.998047c-12,-41 -25,-88 -30,-105c-5,-16 -14,-60.999023 -21,-99.999023c-7,-38 -16,-92 -21,-118c-12,-66.000977 -11,-384.998047 1,-465.998047c50,-314 133,-533.999023 295,-780.998047c236,-360.995117 605,-636.994141 1015,-761.995117c205,-62.998047 468,-92.998047 670,-76.998047c353,27 606,111.998047 910,307.99707c122,78.000977 322.007813,262.999023 417.015625,385.998047c349.007813,447.998047 472.015625,1014.996094 338.007813,1562.992188c-150.007813,615.999023 -616.023438,1122.99707 -1218.023438,1326.996094c-211,71 -314,87 -572,90c-126,2 -241,1 -255,-1zm319,-232.999023c26,-24 31,-36 31,-76c0,-38 -5,-52 -29,-76c-25,-24 -38,-29 -78,-29c-41,0 -54,5 -75,28c-32,33 -41,63 -33,101c18,80.999023 121,109.999023 184,52zm-658,-200c24,-23.999023 29,-37.999023 29,-75.999023c0,-38 -5,-52 -29,-76c-42,-41 -107,-41 -153,0c-28,25 -33,36 -33,75c0,36 6,51 29,74.999023c25,26 37,31 79,31c40,0 53,-5 78,-29zm1289,0c14,-10 31,-34.999023 39,-56.999023c19,-55 -3,-107 -55,-129c-46,-19 -84,-12 -124,22c-25,21 -30,32 -30,72c0,55 19,85.999023 63,104.999023c37,16 71,12 107,-13zm-486,-41.999023l26,-20l0,-232.999023c0,-243.999023 -2,-255.999023 -45,-255.999023c-41,0 -45,16 -45,191.999023c0,142.999023 -2,167.999023 -15,167.999023c-13,0 -15,-57 -15,-451.998047c0,-495.998047 1,-487.998047 -60,-487.998047c-53,0 -55,10 -60,308.999023c-3,173.999023 -9,275.999023 -15,275.999023c-6,0 -11,-98 -12,-269.999023c-3,-291.999023 -7,-314.999023 -52,-314.999023c-71,1 -71,3 -71,501.998047c1,297.999023 -3,443.998047 -10,445.998047c-7,3 -10,-53 -10,-166.999023l0,-170.999023l-25,-16c-23,-15 -27,-15 -51,0l-25,17l3,229.999023c3,228.999023 3,230.999023 27,249.999023c21,17 41,19 226,19c190,0 204,-1 229,-21zm-664,-198l25,-18.000977l3,-236.999023l2,-235.999023l-24,-11c-17,-8 -29,-8 -44,0c-20,11 -22,20.000977 -24,181.000977c-2,104.999023 -7,169.999023 -13,169.999023c-6,0 -11,-159.999023 -13,-453.998047l-2,-454.998047l-26,-20c-33,-26 -36,-26 -65,-2c-24,19 -24,20 -29,297.999023c-3,174.999023 -9,277.99707 -15,277.99707c-6,0 -11,-100.998047 -13,-276.99707l-2,-276.999023l-26,-20c-20,-16 -30,-18 -49,-9c-44,20 -45,36 -45,490.998047c0,237.999023 0,437.998047 0,444.998047c0,6 -4,12 -10,12c-6,0 -10,-62 -10,-164.999023c0,-150 -2,-167 -19,-184.000977c-23,-22.998047 -57,-18 -72,11.000977c-6,11 -9,102 -7,236.999023c3,197 5,221 22,238.999023c23,27 35,28 251,24c155,-3 184,-6 205,-21zm1312,-18.999023c22,-22 23,-29 26,-235.000977c4,-239.999023 -1,-266.99707 -47,-266.99707c-16,0 -33,6 -38,12.998047c-4,6 -10,85.000977 -13,175.000977c-3,94.999023 -9,162.999023 -15,164.999023c-7,1 -11,-155.999023 -13,-451.998047c-1,-314.999023 -6,-457.998047 -13,-467.998047c-15,-17 -73,-17 -88,1c-9,10 -12,89.998047 -11,283.999023c0,215.999023 -2,270.999023 -13,279.999023c-8,7 -17,9 -20,5c-4,-3 -7,-131 -7,-282.999023c0,-201.000977 -3,-278.999023 -12,-287.999023c-7,-7 -27,-12 -46,-12c-61,0 -62,11 -62,509.998047c0,286.999023 -3,439.998047 -10,439.998047c-6,0 -10,-63 -10,-167.999023c0,-191.999023 -6,-213.999023 -57,-196.999023l-28,9.998047l-3,237.000977l-2,235.999023l27,21.998047c26,20.000977 35,21.000977 230,18.000977c195,-3 203,-4 225,-25.999023zm-2152,-516.998047c67,-35 90,-107 48,-160c-31,-40.000977 -72,-54.000977 -119,-43.000977c-50,13 -70,38.000977 -76,90.000977c-5,54 12,88 57,110c43,22 53,22 90,3zm2666.007813,-40c33,-21 51,-85 34,-125c-30,-71.999023 -114,-91.999023 -174,-40.000977c-41.007813,37.000977 -50.007813,67.000977 -33.007813,116.000977c22.007813,67 108.007813,92 173.007813,49zm-2484.007813,-231.999023l28,-27l0,-219.999023c0,-190.000977 -2,-221.999023 -17,-237.999023c-20,-22 -41,-23 -65,-1c-16,14 -18,34 -18,184.999023c0,105 -4,167.999023 -10,167.999023c-7,0 -10,-157.999023 -10,-452.998047c0,-381.998047 -2,-455.998047 -15,-473.998047c-21,-30 -51,-34 -80,-11l-25,19l-2,276.999023c-2,175.999023 -7,276.999023 -13,276.999023c-6,0 -12,-102 -15,-275.999023c-5,-296.999023 -8,-308.999023 -58,-308.999023c-14,0 -34,7 -44,17c-17,15 -18,43 -18,474.998047c0,298.999023 -3,457.998047 -10,457.998047c-6,0 -10,-58.000977 -10,-154.999023c0,-178.999023 -7,-204.999023 -55,-204.999023c-50,0 -55,24 -55,245.999023c0,286.999023 -12,273.999023 259,273.999023l205,0l28,-27zm2607.015625,-4c56,-20 61,-44 61,-277.999023c0,-202.999023 -1,-210.999023 -22,-230.999023c-26,-24 -28,-24 -56,-4c-21,15 -22,21 -22,184.999023c0,132 -3,169.998047 -12,165.998047c-10.007813,-3 -12.007813,-98.998047 -9.007813,-447.99707l3.007813,-443.998047l-21.007813,-27c-29,-36.000977 -63,-36.000977 -90,-2c-20,26 -21,39 -21,295.999023c0,210.999023 -3,268.999023 -12,265.999023c-10,-4 -14,-70 -16,-277.999023c-2,-236.999023 -5,-275.999023 -19,-291.999023c-22,-24.000977 -56,-23.000977 -79.007813,3c-18,20 -19,43 -19,471.998047c0,350.999023 -3,450.99707 -12,453.99707c-10,4 -13,-31.998047 -13,-156.998047c0,-92.000977 -4,-169.999023 -10,-180.999023c-13,-23 -47,-25 -72,-2c-16,15 -18,36 -18,234.999023l0,219.999023l29,29l29,29l185.007813,0c109,0 197.007813,-5 216.007813,-11zm-2090.015625,-495.998047c86,-73 19,-208.999023 -94,-187.999023c-16,2.998047 -42,16.998047 -57,31.998047c-23,22 -28,35.000977 -28,72.000977c1,99 103,146.998047 179,84zm1304,-24c29,-32 36,-82 16,-122.000977c-33,-63.998047 -116,-76.998047 -171,-28c-29,26 -33,36 -33,79.000977c0,39 5,56 24,76c41,43 120,41 164,-5zm-642,-118.000977c24,-24 29,-38 29,-75.998047c0,-38 -5,-52 -29,-76c-25,-24 -38,-29 -79,-29c-40,0 -54,5 -75,26c-47,47 -47,106 1,156.998047c21,22.000977 34,27.000977 75,27.000977c40,0 53,-5 78,-29.000977zm-534,-95.998047c19,-8 37,-25 43,-40c6,-15 10,-121.000977 10,-235.999023c0,-195.999023 -1,-209.999023 -20,-228.999023c-23,-23 -30,-24 -53,-7c-14,10 -17,37 -19,181.999023c-3,142.998047 -5,169.998047 -18,169.998047c-13,0 -15,-57.998047 -18,-453.998047c-2,-405.995117 -4,-456.995117 -19,-472.996094c-20,-23 -45,-23 -72,0c-20,16.000977 -21,26.000977 -24,290.998047c-1,208.999023 -5,274.999023 -14,278.999023c-10,3 -13,-53 -13,-259.999023c0,-294.998047 -3,-310.998047 -59,-315.998047c-18,-2 -39,2 -45,8c-8,8 -13,150.000977 -16,470.996094c-3,293 -9,459.998047 -15,461.998047c-6,1 -11,-60.998047 -13,-166.998047c-3,-176.999023 -7,-195.999023 -46,-195.999023c-44,0 -46,12 -46,251.999023l0,228.999023l27,25c26,24 28,24 212,23c133,0 195,-4 218,-14zm1322,-31c20,-25 21,-39 21,-254.999023c0,-214.999023 -1,-228.999023 -19,-238.999023c-28,-14 -38,-13 -61,10c-18,18 -20,33 -20,184.999023c0,103 -4,164.998047 -10,164.998047c-7,0 -10,-157.998047 -10,-452.998047c0,-497.996094 0,-496.996094 -59,-496.996094c-54,0 -56,10 -61,307.998047c-4,207.998047 -8,275.999023 -17,279.999023c-10,3 -13,-56 -13,-269.999023c0,-230.99707 -2,-276.998047 -16,-295.998047c-21,-30 -58,-28 -83,4c-21,26.000977 -21,37.000977 -21,474.996094c0,293 -3,448.998047 -10,448.998047c-6,0 -10,-60.998047 -10,-163.998047c0,-135.999023 -3,-166.999023 -16,-179.999023c-21,-22 -61,-20 -74,3c-6,12 -10,104.998047 -10,233.999023c0,201.999023 1,215.999023 21,240.999023l20,26l214,0l214,0l20,-26zm-644,-119.000977l25,-24l0,-228.999023c0,-239.999023 -2,-251.999023 -46,-251.999023c-39,0 -43,20 -46,193.000977c-2,102.999023 -7,166.999023 -13,166.999023c-6,0 -11,-159.999023 -13,-453.998047l-2,-454.996094l-26,-20c-33,-26 -36,-26 -65,-2c-24,19 -24,20 -29,297.99707c-3,174.999023 -9,277.99707 -15,277.99707c-6,0 -11,-99.998047 -13,-275.99707l-2,-275.99707l-25,-23c-22,-21 -28,-22 -49,-11c-45,25 -46,38 -46,493.996094c0,237.999023 0,437.998047 0,444.998047c0,6 -4,12 -10,12c-6,0 -10,-63 -10,-169.999023l0,-170.000977l-25,-16c-23,-15 -27,-15 -51,0l-25,17l3,228.999023c3,207.999023 5,229.999023 22,248.999023c18,20 28,21 228,21c208,0 209,0 233,-25z"/>
		<path d="m89772.273438,-9504.621094l-33,-38.999023l36,-33c20,-18 36.007813,-37 36.007813,-41c0,-4 -54.007813,-67 -120.007813,-140.999023c-66,-73 -120,-137 -119,-142c0,-4 21,-25 47,-47l46,-38.000977l35,38.000977c19,22 77,83 129.007813,138l94,97.999023l38,-36.999023l39,-38l36,41c20.007813,21.999023 36.007813,42.999023 36.007813,45.999023c-2,10 -249.007813,235.999023 -258.007813,234.999023c-4,0 -23.007813,-18 -42.007813,-40z"/>
		<path d="m80924.171875,-9713.620117c-24,-10 -82,-56.999023 -130,-103.999023l-88,-85l170,-170.999023c93,-93 175,-169.999023 181,-169.999023c21,0 158,147.999023 187,200.999023c29,55.998047 34,106.999023 16,172.999023c-13,46 -88,129.999023 -141,156.999023c-49,25 -139,25 -195,-1zm144,-124.999023c81,-48 98,-133 39,-200.999023l-35,-39l-93,92.998047c-102,101.000977 -103,105.000977 -38,150.000977c43,29 73,28 127,-3z"/>
		<path d="m90061.289063,-9872.619141c-74.007813,-24 -138.007813,-80 -164.007813,-142.999023c-23,-54 -21,-159 4,-207.000977c33,-64.998047 72,-102.998047 137,-132.998047c74.007813,-33 123.007813,-35 197.007813,-8c112.007813,42 182.007813,163.999023 157.007813,274.999023c-29,126.999023 -123.007813,211.999023 -245.007813,219.999023c-33,3 -72,1 -86,-4zm160,-140.999023c128.007813,-91 -19,-297.999023 -160,-224.999023c-81.007813,41.999023 -77.007813,160.999023 8,223.999023c37,27.998047 114,27.998047 152,1z"/>
		<path d="m80488.179688,-10147.618164c-52,-60 -56,-79.000977 -27,-115.999023c11,-14 20,-28 20,-33c0,-4 14.992188,-31 33.992188,-60c18,-28 66,-107.000977 106,-173.999023c39,-68 76,-123 80,-123c5,0 26,21 46,46l38,46l-23,40l-23,39.998047l23,26c13,15.000977 41,46.000977 62,68.000977c37,40 40,41 65,28c42,-22 58,-17 97,31c35,42 39,65 12,65c-7,0 -108,37.998047 -225,84.999023c-116,47 -218,85 -225,85c-7,0 -34,-24 -59.992188,-54zm128.992188,-89.999023c39,-19 95,-43 117,-50c9,-3 17,-11 17,-18c0,-15 -66,-95 -73,-88c-8,10 -107,162.998047 -107,165.998047c0,8 18,4 46,-9.998047z"/>
		<path d="m90531.304688,-10290.617188c-75.007813,-26 -120.007813,-73 -120.007813,-127c0,-14 11,-57.000977 24,-94.999023c22,-62 23,-71 10,-90c-20,-28 -50,-26 -79,5c-20,21 -25,38 -25,75l0,48.998047l-37,0c-70.007813,0 -83.007813,-8 -83.007813,-48.998047c0,-75 75.007813,-185.000977 143.007813,-209.999023c43,-17 94,-13 137,8.998047c79.007813,40.000977 100.007813,112.000977 60.007813,206.000977c-28,62.999023 -24,97.999023 12,101.999023c31,4 55,-24 64,-75.999023c6,-33 7,-33 48,-27c22,4 45,11 50,15c14,14 -2,72.999023 -34,122.999023c-37,59 -125,105 -170,90z"/>
		<path d="m80228.195313,-10470.618164c-34,-44.998047 -35,-48.998047 -19,-66.998047c9,-10 42.992188,-36 74.992188,-58c32,-22 57,-43 55,-46c-9,-20 -94,-131.999023 -99.992188,-131.999023c-4,0 -39,23 -77,50.998047c-39,28 -74.992188,48.000977 -79.992188,44.000977c-6,-3 -25,-27.000977 -42,-51.999023l-32,-46l29,-24c25,-21 146.992188,-109 307.984375,-224.999023c27.992188,-20 55.992188,-37 60.992188,-37c11,0 75,83 75,97.998047c0,5 -34,35.000977 -75,66.000977c-40.992188,31 -74.992188,59 -74.992188,62c0,7 92.992188,132.998047 97.992188,132.998047c2,0 38,-25 78.992188,-54.998047c42,-30 79,-55 83,-55c8,0 80,94.998047 80,103.998047c0,9 -388.984375,286 -400.984375,286c-4,0 -23,-21 -41.992188,-47.000977z"/>
		<path d="m90939.3125,-10798.615234c-20,-14 -39,-25 -41,-25c-3,0 -58,-35 -123,-78c-66.007813,-43.000977 -136.007813,-87.999023 -156.007813,-100.999023c-21,-12 -38,-27 -38,-33c0,-16 107,-173.000977 142,-207.999023c94.007813,-94 226.007813,-94 340.015625,0c70,57.998047 96,162.999023 62,245.999023c-24,57.998047 -127,223.999023 -139.007813,223.999023c-6,0 -27,-11 -47,-25zm72.007813,-231.999023c10,-35 10,-46 -5,-70c-27.007813,-46 -83.007813,-78.000977 -137.007813,-78.000977c-42,0 -52,5 -85,38.000977c-30.007813,29 -36.007813,41 -28.007813,53c6.007813,9 55.007813,44 110.007813,79l100,62.998047l17,-21c9,-11.998047 22.007813,-40.998047 28.007813,-63.998047z"/>
		<path d="m79833.21875,-11054.614258c-18,-27 -30,-54 -27,-59c3,-5 38,-29 77.992188,-53c39,-24.000977 121.992188,-75.999023 182.992188,-113.999023c60.992188,-39 119.992188,-75 130.992188,-82c20,-10 27,-2 96.992188,110c42,65.998047 75.992188,123.999023 75.992188,127.999023c0,9 -74.992188,61 -87.992188,61c-5,0 -28,-29 -50.992188,-65c-22,-36 -43,-65.000977 -46,-65.000977c-2,0 -43,25 -90.992188,56.000977c-126.992188,82 -212.992188,134 -221.984375,134c-4,0 -22,-23 -40,-51z"/>
		<path d="m82711.171875,-11128.614258c0,-5 9,-21 20,-35c11,-14.000977 20,-29.000977 20,-33.000977c0,-5 13,-26.998047 29,-49.998047c35,-52 221,-356.999023 221,-363.999023c0,-3 8,-17 19,-31.000977c10,-15 37,-63 61,-106.998047c24,-44 46,-84 50,-90c4,-5 26,-46.000977 50,-90.000977c24,-43.998047 55,-101.998047 70,-129.998047c67,-122.000977 340,-676.995117 340,-689.995117c0,-2 18,-43 41,-92.000977c23,-48 50,-109.998047 61,-136.998047c10,-27 27,-68 38,-90.000977c19,-44 102,-252.999023 168,-425.99707c39,-102.000977 176,-508.998047 202,-599.999023c7,-25 16,-56 20,-70c4,-13.998047 13,-42.998047 19,-64.998047c6,-22.000977 19,-71.000977 30,-110.000977c17,-63 33,-124.998047 76,-309.999023c34,-141.999023 82,-410.998047 104,-574.99707c61,-459.998047 68,-862.99707 20,-1289.99707c-10,-90 -15,-125.001953 -40,-257.001953c-41,-226 -116,-482.001953 -215,-728.001953c-56,-142.001953 -225,-478.001953 -312,-623.003906c-286,-475 -661,-942.003906 -1137,-1417.003906c-415,-415.001953 -824,-767.001953 -1340,-1154.005859c-201,-151 -217,-163 -390,-286.001953c-111,-79.003906 -642.984375,-432.003906 -744.976563,-495.003906c-189.992188,-116 -312.984375,-190.001953 -315.984375,-190.001953c-1.992188,0 -24.992188,-14 -50.992188,-30c-26,-17 -42,-30 -35,-30c14,0 85.992188,32 328.984375,146.001953c39.992188,19 74.992188,34 76.992188,34c3,0 29,11 57.992188,24c100,46 332.984375,142.998047 492.984375,205.001953c88,35 169,67 180,71c11,5 70,27 130,49c61,22 153,54.998047 205,73.998047c132,49 642,218.005859 715,237.005859c17,4 93,27 170,50c194,58 537,150 665,180.001953c19,4 58,13 85,20c28,6 66,15 85,19c51,13 139,32 185,41c22,4 96,19 165,33c528,106.998047 906,159.001953 1520,208.001953c192,16 965,16 1145,1c449,-39 563,-52 875.007813,-103.003906c211.007813,-33.998047 458.015625,-79.998047 585.023438,-108.998047c22,-5 60,-13 85,-19c181.007813,-41 332.007813,-78 545.015625,-136.001953c173.007813,-46 605.023438,-180 760.023438,-235.001953c44.007813,-16 100.007813,-35 125.007813,-44c82,-27 153.007813,-54.003906 300.007813,-111.003906c80.007813,-31 165.007813,-62.998047 190.007813,-70.998047c25,-9 49,-20 55,-25c5,-5 15,-9 22,-9c7,0 35.007813,-10 61.007813,-21c79,-36 105,-47 161,-69c30,-11 75.007813,-30 100.007813,-42c99,-44.003906 129,-58.003906 216.007813,-96.001953c197,-87 521.015625,-245.001953 704.023438,-342.001953c102,-55 101,-54 101,-40c0,6 -7,10 -15,10c-8,0 -15,3 -15,8c0,4 -9,12 -19,17c-89.007813,46 -580.023438,375.001953 -841.03125,564.003906c-1320.039063,953.007813 -2324.078125,1990.009766 -2902.09375,2996.013672c-78,135 -258.007813,491.001953 -258.007813,509.001953c0,3 -13,35 -30,71c-16,36 -30,71.001953 -30,79.001953c0,7 -3,16 -7,19c-3,4 -15,31 -25,59c-112.007813,305 -160.007813,496.001953 -203.007813,798.001953c-12,91.001953 -35,417.000977 -35,514.000977c0,286 40,657.999023 112,1020.99707c27,137 107,475 128.007813,534.998047c4,14 18,59 30,100c78,268 156,489.998047 290.007813,824.996094c39,99 78,194.000977 85,210.000977c129.007813,286.99707 175.007813,384.99707 271.007813,580.996094c97.007813,196.999023 212.007813,414 354.015625,668.99707c130,233.999023 340.007813,571.996094 538.015625,866.996094c73,109 129.007813,197.999023 124.007813,197.999023c-4,0 -16,-12 -27,-27.000977c-36.007813,-47.998047 -314.015625,-371.99707 -388.015625,-450.99707c-469.015625,-501.999023 -793.023438,-803.996094 -1148.039063,-1068.993164c-712.007813,-531.998047 -1240.007813,-692.999023 -1749.007813,-532.998047c-263,82.998047 -522,226.999023 -840,467.998047c-443,335.99707 -970,876.993164 -1424,1461.992188c-131,169.999023 -146,186.999023 -146,174.999023zm637,-8305.989258c31,-17 33,-17 57,2c14,11 30,17 36,14c5,-3 10,-46 10,-96.001953c0,-81 -2,-90 -17,-87c-10,2 -19,13 -21,24c-4,28 -66,100.998047 -103,119.001953c-41,22 -105,19 -140,-6c-25,-18.003906 -30,-27.001953 -27,-58.001953c3,-31 9,-39 43,-55c22,-11 60,-24 85,-28c86,-17 95,-20 135,-47c108,-72 95,-221.001953 -23,-273.001953c-58,-26 -137,-25 -201,3l-50,21l-27,-21c-14,-11 -30,-18 -35,-15c-5,3 -9,48 -9,100c0,76 3,94 15,94c8,0 22,-17 30,-37c44,-104 162,-161 246,-118c38,20 52,54 38,94c-11,32 -32,43 -119,62c-106,23.001953 -179,62.001953 -199,107.001953c-16,33 -13,108 4,142c41,79.001953 183,110.001953 272,59.001953zm783,-144.001953c74,-90 137,-161.001953 139,-159.001953c7,6 2,244.001953 -5,255c-3,5 -21,16.003906 -41,24.003906c-19,8 -33,20 -31,27c6,16 666,24 681,9c13,-13 22,-201.001953 10,-201.001953c-15,0 -33,23 -33,41c0,33 -45,101.998047 -77,117.001953c-63,30 -64,26 -61,-210.001953l3,-213.001953l38,-9c25,-7 37,-15 35,-24c-3,-13 -26,-15 -143,-13c-77,1 -144,7 -150,12c-14,14 5,27 45,31l35,3l3,211.001953c3,236.001953 0,249.001953 -55,221.001953c-40,-21.003906 -62,-48.001953 -81,-103.001953c-27,-75 -42,-68 -42,19c0,40 -3,76.001953 -6,79.001953c-10,11 -45,-5 -57,-26.003906c-8,-13.998047 -14,-94.998047 -17,-241c-4,-188 -7,-220 -21,-223c-9,-2 -76,71 -182,198c-92,110.001953 -172,200.001953 -177,200.001953c-15,0 -13,-273.001953 2,-305.001953c7,-16 23,-28 40,-32c19,-4 28,-12 28,-24c0,-18 -12,-19 -251,-19c-233,0 -250,1 -247,18c2,11 15,19 38,22l35,5l3,210.001953c2,189 1,210.998047 -15,222.001953c-9,7 -27,13 -40,13c-22,0 -30,10 -17,23c4,4 113,6 243,6l236,0l135,-164.001953zm2858.015625,114.001953c17,-33.001953 56,-124.001953 82,-188.001953c11,-30 30,-73.001953 40,-96.001953c11,-23 28,-64 38,-91c12,-31 31,-57 52.007813,-71c38,-27 85,-30 94,-7c3,9 6,102 6,209.001953c0,205 -1,211 -50,220c-30,5.998047 -36,12.998047 -23,26.001953c7,7 75,10 204,7c153.007813,-3 202.007813,-7 231.007813,-20.003906c42.007813,-18.998047 78.007813,-68.998047 78.007813,-108.998047c0,-41 -40,-92 -87.007813,-109c-57,-21 -60,-26 -25,-44.001953c30,-16 72.007813,-88 72.007813,-125c0,-33 22,-72 39,-69c9,2 22,18 30,36c18,40 31,41 31,3c0,-67 -86,-117.001953 -155.007813,-91.001953c-57,21 -75,48.001953 -75,108.001953c0,66 -18,130 -39,141c-34,18.001953 -94,23.001953 -102.007813,9c-11,-16 -12,-179 -1,-193c4,-6 21.007813,-15 37.007813,-20c17,-6 30,-17 30,-24.001953c0,-12 -25,-14 -135.007813,-12c-76,1 -140,7 -147,13.001953c-8,7 -50.007813,9 -113.007813,6c-54,-3 -104,-2 -111,2c-14,9 -3,30 15,30c8,0 19,6 25,14c10,11 7,25 -11,63l-23,48l-91.007813,3c-89,3 -91,2 -102,-23c-24,-53 -12,-88 33,-97c11,-2 21,-11 23,-21c4,-18 21,-17 -325.007813,-20c-114,-2 -128,0 -131,16c-3,12 3,17 20,17c52,0 53,5 56,216.001953c4,273.001953 6,274.001953 -132,-131.001953c-33,-97 -56,-130.001953 -75,-110c-5,6 -25,60 -45,120c-21,61 -40,117.001953 -43,125.001953c-3,8 -18,51 -33,95c-15,44 -31,79 -36,78c-12,-4 -17,-294.001953 -6,-336.001953c6,-25 16,-35 43,-43c19,-7 34,-18 34,-25c0,-11 -25,-15 -108,-17c-100,-2 -108,-1 -105,15c2,10 13,19 25,21c11,2 28,11 38,22c14,16 17,44 16,212.001953c0,171 -2,193.998047 -18,204.998047c-9,7 -25,13.003906 -36,13.003906c-10,0 -17,5 -14,13c3,9 35,12 117,12l114,0l43,-125.001953c24,-69 50,-138 57,-155l13,-30.001953l15,35.001953c8,19 32,85 52,145c21,61 43,116.001953 48,123.001953c17,20 222,12 226,-8c2,-10 -9,-19.003906 -30,-25.003906l-33,-9.998047l-3,-206c-3,-225.001953 0,-238.001953 52,-225.001953c25,6 96.007813,71 96.007813,87c0,7 66,165.001953 110,264.001953c10,22 28,63 40,90.998047c20,48.003906 23,51.003906 48,45.003906c15.007813,-4 33.007813,-18 40.007813,-32zm-1602.015625,20c4,-6 9,-49.001953 11,-95.001953c4,-69 2,-84 -10,-84c-8,0 -22,17 -30,39c-31,77 -85,110.998047 -176,110.998047c-60,0 -66,-9 -66,-101.998047c0,-82 0,-83 26,-86c30,-3 76,37 81,71c2,12 10,23 19,25c20,4 29,-52 29,-169.001953c0,-73 -2,-79 -20,-79c-15,0 -22,8 -26,29c-8,38 -44,71.001953 -80,74.001953l-29,2l-3,-85.001953c-3,-97 6,-118 53,-122c103,-7 153,18 194,96c15,26 31,48 36,47c11,-1 14,-166 3,-176c-6,-7 -139,-9 -356,-7c-121,2 -133,4 -130,20c2,10 14,18 33,20c16,2 33,9 37,15c4,7 8,99 8,206.001953c0,210.998047 -5,231.001953 -57,231.001953c-22,0 -30,10 -16,23c12,12 461,8 469,-4zm538,3c2,-4 8,-47.001953 12,-95.001953c6,-81 5,-87 -12,-87c-13,1 -27,18 -44,52c-33,69 -63,88.998047 -143,94.998047c-59,5 -66,4 -76,-15.998047c-7,-12 -11,-52 -9,-94c3,-67 5,-72 26,-75c29,-4 60,22 79,66c7,17 20,32 28,32c12,0 15,-21 15,-125c0,-106.001953 -2,-125.001953 -15,-125.001953c-9,0 -18,8 -21,18c-15,44 -32,66 -62,79.001953c-18,7 -37,11 -42,8c-13,-8 -13,-175.001953 0,-195.001953c7,-11 26,-14 74,-13c85,2 137,33 161,97c18,48 42,66 52,40c6,-16 -2,-163 -10,-170c-4,-5 -189,-8 -359,-6c-121,2 -128,3 -128,22c0,16 7,20 30,20c19,0 33,7 40,19c6,12 10,97 10,207.001953c0,203.998047 -5,224.001953 -57,224.001953c-14,0 -23,6 -23,15c0,13 33,15 234,15c129,0 237,-4 240,-8z"/>
		<path d="m83761.171875,-19452.603516l-35,-6l-3,-209.001953c-1,-132.001953 1,-213.001953 8,-220.001953c17,-17 109,-10 130,9c19,17 20,32 20,211.001953l0,192.998047l-30,16.003906c-31,16 -34,16 -90,6z"/>
		<path d="m87441.203125,-19503.605469c-18.007813,-18 -20.007813,-31 -18.007813,-98l3,-77l58.007813,-3c52,-3 60,0 87,27c51,51 39,130 -25,157c-48,19.998047 -81,17.998047 -105,-6z"/>
		<path d="m86895.179688,-19599.605469c-4,-10 -18,-43 -31,-73c-12,-29 -23,-59.001953 -23,-66.001953c0,-14 119,-30 131.007813,-18c8,8 -45.007813,150.001953 -61.007813,167.001953c-6,6 -12,2 -16,-10z"/>
		<path d="m91216.320313,-11285.613281c-72,-44 -317.007813,-178.000977 -325.007813,-178.000977c-4,0 -13,-5.998047 -19,-13.998047c-10,-11 3,-40 59,-140c39,-69.000977 76.007813,-125.999023 81.007813,-125.999023c20,0 89,40.998047 89,52.998047c0,7 -16,37 -35,67.000977c-41,66 -42,73 -11,90c34,18 50,9 77,-45c33,-66.000977 40,-70.000977 88,-45c23.007813,11 41.007813,25 41.007813,32c0,6 -13,33 -30,60c-37.007813,60 -37.007813,73.998047 0,92.998047l29,15l41,-70.998047c23,-38 45,-69 48,-67c62,31 82,43 82,51c0,20 -142,256.999023 -153,255.999023c-7,0 -34,-14 -62.007813,-31z"/>
		<path d="m79659.226563,-11355.613281c-23,-35 -57.992188,-106.000977 -57.992188,-116.999023c0,-6 76.992188,-94 171.984375,-197.000977c190.992188,-205.998047 173.992188,-197.998047 219.992188,-109.998047l19.992188,38l-31.992188,32.998047l-32,33l23,43.000977c12,24 31.992188,60 44.992188,80c22,35 24,36 64,29c40.992188,-8 41.992188,-7 70.992188,39c39,61.998047 35,73.998047 -26,82.999023c-27.992188,3 -130.984375,20 -229.984375,37c-214.984375,37 -218.984375,37 -236.984375,9zm191.992188,-118.999023c35.992188,-6 68.992188,-15 72.992188,-19c9,-8 -26,-84 -44,-96c-10.992188,-6 -138.984375,112 -138.984375,128.998047c0,5 9.992188,7 22.992188,4c12,-3 51,-10.998047 87,-17.998047z"/>
		<path d="m79490.242188,-11738.611328c-14,-8 -37,-31 -50,-52c-24,-37 -32,-53 -79.992188,-158.000977c-13,-27.998047 -25,-52.998047 -27,-57.998047c-2,-4 34,-25 79.992188,-46c277.984375,-129.000977 356.976563,-162.999023 367.976563,-155.999023c6,3 20,26.998047 31,52.998047c12,26 32,72.000977 46,102.000977c33.992188,75 40.992188,148.998047 17.992188,187.999023c-38.992188,65 -136.984375,92 -188.984375,51c-27,-21 -31,-19 -38,26c-4,27 -63.992188,65 -101.992188,65c-17,-1 -42.992188,-7 -56.992188,-15zm83.992188,-133c13,-15.000977 15,-25.000977 6,-55.000977c-13,-46.998047 -23,-51.998047 -65,-31.998047c-39.992188,18.998047 -40.992188,25.998047 -12.992188,70.998047c22.992188,38.000977 47.992188,43.000977 71.992188,16.000977zm189.984375,-63.000977c12,-19 2,-77.998047 -16.992188,-103.998047c-13,-19 -15,-19 -55,-1c-22,11 -41,23 -41,28c0,11 28,67.998047 43,85.998047c13,17 56.992188,11 69.992188,-9z"/>
		<path d="m91521.335938,-11831.611328c-19,-10 -64.007813,-30 -100.007813,-46c-36,-16.000977 -85,-37.000977 -110,-48.000977c-109.007813,-47.998047 -170.007813,-77.998047 -170.007813,-81.998047c0,-3 8,-20 18,-38c10,-18 35,-72.000977 56,-120.000977c21.007813,-47.998047 44.007813,-91.998047 51.007813,-97.998047c14,-11 95,18 95,35c0,6 -14,38.998047 -30,72.998047c-17,35 -30,66.000977 -30,68.000977c0,6 58,34 70,34c6,0 24,-29 41,-65.000977c16,-36 34,-65 40,-65c15,0 73.007813,31 81.007813,44c4,6 1,20 -6,31.000977c-7,11 -20,39 -29,62l-16,42l31,15c17,9 32,16 33,16c2,0 19,-34 38,-75l36,-75.000977l46,22.000977c25,12 45.007813,27 45.007813,32c0,6 -20.007813,52 -43.007813,101c-24,49.998047 -49,104.999023 -56,122.999023c-15,37 -37,41 -91,14z"/>
		<path d="m91741.34375,-12220.609375c-8,-3 -96.007813,-34 -195.007813,-70c-237.007813,-83.999023 -235.007813,-82.999023 -235.007813,-97.999023c0,-12 37,-104.998047 44,-111.998047c1,-2 62,19 134.007813,46c72,26.998047 133,45.998047 136,42.998047c3,-2 -10,-25 -30,-50.998047c-142.007813,-186.000977 -185.007813,-266.999023 -154.007813,-285.999023c6,-3 10,-14 10,-24c0,-9 6,-26 14,-36c13.007813,-18 23.007813,-16 232.007813,60c121.007813,43 223.007813,80.998047 227.007813,84.998047c5,4 1,33 -9,64c-12,40.000977 -23,56.000977 -35,56.000977c-9,0 -72,-21 -139,-46c-67.007813,-25.000977 -124.007813,-43.000977 -128.007813,-40.000977c-3,3 4,16 15,29c12,12.000977 58,75.000977 103.007813,140.000977c88,127.99707 88,129.99707 54,212.99707c-15,35 -18,37 -44,27z"/>
		<path d="m79229.257813,-12282.609375c-31,-81.999023 -48,-125.999023 -48,-127.999023c0,-3 339.976563,-281.999023 363.976563,-297.99707c10,-8 16,-18 12,-23c-4,-7 -83.992188,-35 -167.992188,-58c-12.992188,-4 -19.992188,4 -26.992188,33c-19,68.998047 -80,112.998047 -157.992188,112.998047c-69.992188,0 -118.992188,-50 -148.992188,-149.998047c-9,-30 -23,-74.000977 -30,-98.000977c-8,-23 -13.992188,-48 -13.992188,-55.998047c0,-7 32.992188,-22 77.992188,-35c42,-13 87.992188,-27 101.992188,-31c67,-24 263.984375,-80.000977 278.984375,-80.000977c10,0 21,15 29,40.000977c21.992188,72 19.992188,76 -58,96c-98.992188,25.998047 -93.992188,36.998047 29,63.998047l75.992188,16l44,129.000977l42.992188,128.998047l-21.992188,18c-13,10 -30,23.000977 -38,27.000977c-13,8 -12,19 12,87c15,43.998047 32,82.998047 37,88.998047c5,5 28.992188,8 52.992188,6l43,-2l23,56.000977c12.992188,31.998047 18.992188,59.998047 13.992188,64.998047c-4.992188,4 -122.992188,10 -261.976563,13l-252.984375,4l-11,-26zm244.984375,-96.999023c20,-3 36.992188,-11 36.992188,-17c0,-16 -24.992188,-84.998047 -32.992188,-92.998047c-4,-4 -33,13 -64,38c-32,24.998047 -67.992188,49.998047 -80.992188,56.998047c-12,7 -20,17 -16,23c6,9 54,7 156.992188,-8zm-222.984375,-403.99707c5,0 15.992188,-12 22.992188,-27c11,-20.000977 12,-34.000977 4,-57.000977c-5,-17 -11,-32 -13,-34c-4,-6 -88.992188,21 -102.992188,34c-11,10 -10,18 4,47.000977c16,35 37,48 63,41c8,-2 18,-4 22,-4z"/>
		<path d="m91782.34375,-12831.606445c-35,-29 -50,-76 -51,-161.998047c0,-51 -13,-70 -45.007813,-70c-50,0 -72,78 -40,139.998047c15,29 15,30 -21,45c-65,27 -81,21 -97,-33c-31,-102.998047 15,-215.999023 105,-259.999023c56,-27.998047 107.007813,-23.998047 160.007813,12c44,29 59,63 63,147.000977c4,75.998047 12,92.998047 41,86.998047c28,-5 45,-46.998047 38,-93.998047l-6,-41l44.007813,-11.000977c60,-16 71,0 65,90.000977c-8,116.998047 -64,177.999023 -166.007813,177.999023c-47,0 -62,-5 -90,-28.000977z"/>
		<path d="m78972.273438,-13115.605469c-7,-35 -16,-73.998047 -21,-87.998047c-23,-72 -42,-182.000977 -33,-191.000977c13,-13 91,-31 101.992188,-24c5,2 12,25 15,50c5,32 12,45 23,45c9,0 90.992188,-18 180.992188,-41c89.992188,-22 167.984375,-37 171.984375,-32c10,10 32,114.000977 26,120.000977c-5,5 -167.992188,45 -293.984375,73l-63.992188,15l7,34.998047c14,70 13,72 -35,86c-25,8.000977 -49.992188,14.000977 -54.992188,14.000977c-6,0 -17,-28.000977 -24,-62.000977z"/>
		<path d="m91996.351563,-13213.603516c-125.007813,-31 -335.015625,-80 -348.015625,-80c-34,-1 -39,-16.000977 -27,-74.000977c6,-30 16,-58 21,-61c8,-5 142.007813,23 389.015625,83c72,18 75,20 78,49.000977c3,32 -21,104 -35,102c-4,0 -39,-9 -78,-19z"/>
		<path d="m91906.34375,-13491.602539c-115,-21 -215.007813,-40 -221.007813,-44c-8,-5.000977 -8,-25.000977 -2,-65.000977c5,-31 11,-59 13,-62c3,-2 62.007813,6 132.007813,18c71,12 135.007813,21 143.007813,21c8,0 -42.007813,-55 -112.007813,-122.998047l-127,-122.000977l10,-59.998047c6,-33 14,-62 20,-66c6,-3 33,-2 62,3c29,4 81,13 117,19c36.007813,6 88.007813,14 115.007813,19c97,15 165.007813,28.998047 175.007813,34.998047c11,7 2,90 -12,118c-6,11 -17,16 -31,13c-12.007813,-3 -53.007813,-10 -92.007813,-16c-38,-7 -89,-17 -113,-22c-23,-6 -45.007813,-8 -48.007813,-5c-3,3 34.007813,43 83.007813,89.000977c177.007813,166.998047 165.007813,151.998047 158,194.998047c-15,91.000977 -16,93.000977 -38,92.000977c-12,0 -116,-17 -232.007813,-37z"/>
		<path d="m78862.28125,-13724.601563c-26,-28 -51,-102.000977 -51,-152.000977c0,-85.998047 74,-156.999023 162.992188,-156.999023c57.992188,0 80.992188,19 126.992188,106.000977c29,55.998047 40.992188,69.998047 61.992188,71.998047c20,2 31,-4 43,-22c23,-35 13,-69.998047 -32,-114.998047l-35,-35.000977l38,-33c22,-18 44,-33 50,-33c13,0 56.992188,47 72.992188,77c6,12.000977 16,44.000977 22,71.000977c27,128.998047 -67.992188,235.999023 -193.984375,218.999023c-50,-7 -76,-32 -112,-107.000977c-28.992188,-60 -47.992188,-76 -77.992188,-64c-35,13 -30,66 11,116c17,21.000977 9,34.000977 -37,61.000977c-28.992188,17 -29.992188,17 -49.992188,-4z"/>
		<path d="m91947.351563,-14083.601563c-175.007813,-69 -221.007813,-294.999023 -86.007813,-429.998047c47,-47 100.007813,-71 170.007813,-77c48,-5 65,-1 111,21c69.007813,35 103.007813,67 130.007813,125.000977c27,56.998047 30,157.998047 6,212.999023c-26,60.998047 -92,124.998047 -153.007813,147.998047c-67,25 -114,25 -178,0zm169,-138.998047c87.007813,-50.000977 80.007813,-178.000977 -11,-215.999023c-101,-42 -204.007813,14 -204.007813,109.998047c0,98.000977 124.007813,158.999023 215.007813,106.000977z"/>
		<path d="m78923.273438,-14164.601563c-55.992188,-21.998047 -111.992188,-71.998047 -137.992188,-122.999023c-20.992188,-42 -28.992188,-141.998047 -15,-191.998047c25,-92.000977 105,-165.000977 203.992188,-185.999023c47.992188,-10 63.992188,-9 111.992188,5.998047c64.992188,20 126.992188,71 157.992188,130c16.992188,32 21.992188,58.000977 21.992188,120.999023c0,96 -20.992188,142 -87.992188,201.000977c-74.992188,65.998047 -158.992188,79.998047 -254.984375,42.998047zm164.992188,-138.999023c113.992188,-69 70.992188,-230.999023 -62,-228.999023c-52.992188,0 -103.992188,26 -131.992188,68.000977c-26.992188,40 -27.992188,55.998047 -7.992188,104.998047c29.992188,71 131.984375,99 201.984375,56z"/>
		<path d="m78876.28125,-14763.598633c-53,-26 -100,-80 -113.992188,-133c-13,-44.998047 -11,-293.99707 2,-288.99707c3.992188,1 112.992188,2 241.984375,2l234.984375,0l0,119.998047c0,179.999023 -39,259.999023 -146.992188,304.999023c-52,22 -167.992188,19 -217.984375,-5zm216.984375,-147.998047c33,-33 49.992188,-118.000977 27,-133.000977c-20,-12 -255.984375,-11 -263.984375,1c-4,6 -1,35 6,66c18,79.999023 61.992188,106.999023 158.984375,96.999023c31,-3 53,-13 72,-30.998047z"/>
		<path d="m91829.34375,-14979.597656c-4,-167 7,-229.999023 51,-290.999023c42,-58 102.007813,-83 198.007813,-83c120.007813,0 204.007813,53 231.007813,148c15,51.999023 27,268 15,275c-5,3 -118,9 -251.007813,13l-242.007813,6l-2,-68.000977zm330.007813,-80c52.007813,-7 52.007813,-7 52.007813,-43c0,-79.998047 -66.007813,-129.999023 -156.007813,-116.999023c-53,7 -87,27.000977 -102,62.000977c-13.007813,26.998047 -16.007813,86.998047 -5,96.998047c8,9 141,9 211,1z"/>
		<path d="m91825.34375,-15434.594727c-9,-15.000977 -13,-52.000977 -22,-182.000977c-8,-119.999023 -15,-107.999023 65,-120.999023c35,-6 35,-6 48,100.999023c4,29 10,55 15,58c4,3 22.007813,2 40.007813,-1l31,-7l-6,-72.998047c-7,-72.000977 -7,-73.000977 18,-79.000977c13,-4 38,-5 53,-3c28,3 29,5 38,76.000977l8,72.998047l37,-3l36.007813,-3l0,-79.999023l0,-80l52,-3l51,-3l7,108.000977c4,58.998047 8,125.998047 9,147.998047l1,40l-75,6c-41,4 -144.007813,12 -229.007813,18c-85.007813,6 -157.007813,14.000977 -162.007813,16.000977c-4,3 -11,0 -15,-6z"/>
		<path d="m78948.273438,-15527.595703c-128.992188,-46 -197.984375,-216.999023 -139.992188,-346.999023c23,-50.999023 95.992188,-120.999023 148.992188,-143.999023c121.992188,-51 273.984375,18 328.976563,148.999023c18,42 18,138 2,183c-50.992188,137.999023 -200.984375,207.999023 -339.976563,158.999023zm162.992188,-130.998047c45.992188,-24.000977 69.992188,-62.000977 69.992188,-112.000977c0,-80 -48.992188,-123 -139.992188,-123c-86.992188,0 -143.992188,60 -132.992188,140c12,83.000977 123.992188,135.999023 202.992188,95.000977z"/>
		<path d="m91766.34375,-16035.59375c-2,-7 -6,-34 -10,-59l-6,-47l135,-43.000977c75.007813,-24 136.007813,-47 136.007813,-50c0,-3 -48,-9 -107.007813,-13c-119,-7 -174,-14 -185,-24c-8,-8 -14,-79 -8,-86c3,-2 60,-30.999023 128,-63.999023c113.007813,-56 141.007813,-81 74,-68c-15,3 -74,7 -132,8l-105.007813,3l-7,-55c-4,-30 -4,-58 0,-62c4,-3 115.007813,-10 248.007813,-14l241.007813,-7l6,34c3,19 9.007813,48 13.007813,66l6,32l-123.007813,61c-68,34 -125,64.999023 -127,68.999023c-5.007813,14 46,23 203,36c32,3 64.007813,11 71.007813,17c18,20 27,113 12,125c-7,5 -62.007813,26 -123.007813,46.000977c-60,20 -155,52 -210.007813,71c-110,39 -124,42 -130,24z"/>
		<path d="m78891.273438,-16120.59375c-18.992188,-3 -37.992188,-7 -41.992188,-11c-4,-4 8,-83.000977 25,-177.000977l32.992188,-169.999023l44,3c61.992188,5 69.992188,14 62.992188,72c-5.992188,54.999023 -17.992188,48.999023 112,68.999023c38.992188,7 92.992188,16 119.992188,21c27.992188,5 66.992188,12 88.992188,15l39,6l-6,43c-4,23 -10,54 -16,68c-9,24 -11,25 -63,16c-29,-5 -77.992188,-13 -107.992188,-18c-30,-5 -83.992188,-14 -118.992188,-20c-78.992188,-14 -90.992188,-9 -90.992188,33c0,33.000977 -15,58.000977 -34,55.000977c-6,0 -27,-3 -46,-5z"/>
		<path d="m79326.25,-16435.59375c-28,-18 -58,-37 -67.992188,-43c-61,-36 -298.984375,-191.001953 -302.984375,-196.001953c-9,-16 31,-159 46,-164c44.992188,-14 509.960938,-52 509.960938,-41c0,1 -4,16 -8.992188,32c-5,16 -12,41 -15,57c-5,23 -12,27 -39,27c-51,0 -66.992188,18 -85.992188,102c-20,85.001953 -16,99.001953 28.992188,118.001953c27,11 31,17 25,39c-18,75 -26,101 -33,101c-3.992188,0 -29.992188,-15 -56.992188,-32zm-66,-229.001953c6,-18 11,-43 11,-55c0,-24 -2,-24 -93.992188,-24c-94.992188,0 -126.992188,11 -83.992188,30c13,5 47.992188,25 77.992188,44c30,19 60,35 67,35c6,1 16,-13 21.992188,-30z"/>
		<path d="m91648.335938,-16669.595703c-19,-65 -17,-73 24,-97c28,-15 31,-21 26,-55c-8,-56 -27,-125 -39,-139c-6,-8 -25,-12 -42,-11c-18,1 -37,-1 -43,-5c-12,-7 -40,-114 -32,-121.001953c7,-7 502.015625,33.001953 509.015625,41.001953c10,11 40,116 40,140c0,14 -60,60 -209.007813,161c-116,78 -212.007813,142.001953 -214.007813,142.001953c-2,0 -11,-25.001953 -20,-56.001953zm233.007813,-225c110.007813,-65 109.007813,-69 -9,-69l-102,0l7,38c7,39 21,72 30,72c3,0 36,-18 74,-41z"/>
		<path d="m79419.242188,-16931.595703c-52.992188,-17 -57.992188,-26 -27,-42c31,-17 59,-71 59,-113c0,-95.001953 -112.992188,-157.001953 -200.984375,-112.001953c-57,30 -87,116.001953 -57,165.001953c19,30 4,34 -63.992188,13l-63,-20l-3,-42c-8,-103.001953 65,-214.001953 163.992188,-251.001953c68.992188,-25 108.992188,-25 178.984375,1c114.992188,43 169.992188,119 168.992188,235c0,63.001953 -4,77.001953 -34,128.001953c-37.992188,62 -44.992188,64 -121.992188,38z"/>
		<path d="m91496.335938,-17193.597656c-9,-28 -15,-55 -13,-61c2,-6 33,-21 68,-33c80,-26 86,-42 21,-51c-27,-4 -69,-12 -92,-19c-40.007813,-12 -43.007813,-16 -62.007813,-75c-10,-34 -16,-65 -13,-68c3,-3 45,4 93.007813,17c116,31 113,31 129,-14c26,-74.001953 73,-106.001953 155.007813,-106.001953c49,0 55,3 93,43.001953c33,35 48,64 76.007813,150c19,58 32,108 30,111c-3,2 -66.007813,25 -140.007813,50c-74,25 -173.007813,59 -220.007813,75c-47,17 -90,30 -97,31c-6,0 -19,-23 -28,-50zm298.007813,-176c32,-11 47,-21 47,-33c0,-26 -48,-74 -66,-67c-9,3 -22,6 -29,6c-22,0 -37,39 -30,76c7,39 13,40 78,18z"/>
		<path d="m79561.234375,-17381.597656c-41,-15 -78.992188,-30 -84.992188,-33c-5,-3 -30,-12 -55,-19c-25,-7 -48.992188,-16 -54.992188,-20c-5,-3 -43,-17 -84,-30c-39.992188,-13 -74.992188,-29 -77.992188,-36c-2,-6 7,-36 21,-67.001953l24,-55l108.992188,40c58.992188,22 130.992188,48.001953 157.984375,58.001953c152.992188,56 194.992188,72 194.992188,75c0,2 -10,28 -21,59c-14,37 -27,56 -38,55c-9,0 -49.992188,-13 -90.992188,-27z"/>
		<path d="m91351.328125,-17608.599609c-13,-31 -20,-59 -16,-62c14,-15 438.015625,-181 449.015625,-177c11,4 52,112 45,119c-2,2 -61,26 -133.007813,54c-71,29 -139,56 -150,60c-44,20 -156.007813,61.001953 -164.007813,61.001953c-5,0 -19,-25.001953 -31,-55.001953z"/>
		<path d="m79561.234375,-17642.599609c-74.992188,-24 -147.992188,-80 -177.992188,-136c-24.992188,-47 -18.992188,-147 13,-225c43,-105.001953 64,-148.001953 74,-154.001953c5,-3 34.992188,6 65.992188,20c32,15 122.992188,54 203.992188,88c79.992188,34.001953 153.984375,66.001953 164.984375,72.001953c17,10 15,18 -36.992188,126c-75,157 -126.992188,206 -230.992188,214c-27.992188,2 -61.992188,0 -75.992188,-5zm145.992188,-163c30,-34 57.992188,-78 51.992188,-83c-6,-6 -240.984375,-105 -242.984375,-103c-31.992188,60 -33.992188,135 -4,167c29,31 76,50 124.992188,51c33,0 45,-6 70,-32z"/>
		<path d="m91266.328125,-17824.599609c-15,-28 -24,-57 -21,-64c4,-12 45,-34 213,-112c55.007813,-25 56.007813,-27 28.007813,-30c-33.007813,-3 -186.007813,-29.001953 -280.015625,-47.001953c-58,-11 -61,-14 -87,-61c-15,-28 -27,-55 -27,-61c-1,-9 422.015625,-213.998047 442.015625,-213.998047c10,0 61,109 54,116.998047c-12,11 -239.007813,113 -253.007813,113c-8,0 -14,4 -14,9c0,4 24,11 53,14c59,7 307.007813,54 312.007813,59c2,2 36.007813,73.001953 53.007813,111.001953c2,4 -29,22 -70.007813,41c-40,18 -103,48 -140,65c-38,17 -98.007813,45 -135.007813,62c-38,17 -76,35 -85,40c-14,8 -22,1 -43,-42z"/>
		<path d="m79856.21875,-18117.601563c-133.992188,-69 -318.984375,-167 -323.984375,-172c-7,-6 54,-113.998047 64,-113.998047c6,0 65.992188,29 133.992188,65c67.992188,36 125.992188,64.998047 128.992188,64.998047c2,0 -4,-12 -14,-27c-35,-54.998047 -143.992188,-276 -143.992188,-295c0,-19 48,-118 57.992188,-118c3,0 41,20 86,44c44.992188,24 134.992188,72 200.984375,106c66,33.998047 124.992188,66.001953 130.992188,71.001953c9,7 4,25 -18,64c-16,30 -34,55 -39.992188,55c-5,0 -66,-30 -133.992188,-66c-68,-36 -123.992188,-62 -123.992188,-59c0,4 8,19 17.992188,33c10,15 47,84 82,153l63.992188,126.998047l-24,51c-12.992188,29 -28.992188,55 -33.992188,60c-7,5 -52,-13 -110.992188,-43z"/>
		<path d="m91070.320313,-18386.599609c-91.007813,-34 -147.007813,-89 -180.007813,-178.001953c-40,-104 -9,-208 81,-274.001953c70.007813,-51 68.007813,-52 122.007813,45c14,25.001953 35,62.001953 47,83.001953c11,21 21,44 21,52c0,12 -66,55 -84,55c-3,0 -17,-23 -32,-50c-30,-54 -44,-58 -58.007813,-17c-12,33 6,97 37.007813,132.998047c49,56.003906 177,34.003906 230.007813,-39.998047c40,-57 20,-147 -41.007813,-176c-15,-7 -34,-16 -42,-20c-21,-10.001953 -31,-120.001953 -12,-128.001953c49,-18 173.007813,72 213.007813,156.001953c29,60 31,161 5,211.998047c-59,115.003906 -205.007813,185.003906 -307.007813,147.003906z"/>
		<path d="m80041.203125,-18703.601563c-106.992188,-65 -195.984375,-125.001953 -197.984375,-133.001953c-4,-19 49.992188,-107 62.992188,-104c31,7 404.976563,242.001953 404.976563,254.001953c0,17 -57,103 -67.992188,103c-4,-1 -95,-54 -201.992188,-120z"/>
		<path d="m90742.304688,-18807.603516c-37,-54 -38,-60 -6,-98l25.007813,-30l-22.007813,-37c-30,-51.001953 -78,-121.001953 -82,-121.001953c-2,0 -20,7 -39,15c-20,8 -40,15 -45,15c-14,0 -74.007813,-91 -68.007813,-105c2,-7 40.007813,-21 83.007813,-33c43,-11 104,-27 136,-36c31,-9 83.007813,-22.998047 115.007813,-31.998047c31,-9 73,-20 92,-25c19,-6 41,-11 49,-12c15.007813,-2 96.007813,94.998047 104.007813,123.998047c4,16 -281.007813,410.003906 -302.007813,417.003906c-5,2 -23,-17.001953 -40.007813,-42.001953zm161.007813,-303.001953c28,-35 49,-66 46,-68c-5,-5 -170,44 -180,54c-4,3 7,28 24,54c36,55 33,56 110,-40z"/>
		<path d="m80226.195313,-18851.603516c-66,-46 -80,-98 -50,-182.001953c30,-86 12,-130 -40,-96c-16.992188,11 -26.992188,29 -30.992188,56c-4,22 -11,43 -16,46c-5,3 -30,3 -55,-1l-44.992188,-7l5,-35c8.992188,-53 49.992188,-124 90.992188,-157c30,-24.998047 45.992188,-29.998047 90.992188,-29.998047c58,-1 90.992188,15.998047 128.992188,66.998047c18,25 19,32 8,89c-24,118.001953 -24,128.001953 -12,143.001953c19,23 56,18 78.992188,-11c15,-20 21,-41 21,-80.001953l0,-54l44,0c71.992188,0 91.992188,39 63.992188,121.001953c-46.992188,139 -181.984375,201 -282.976563,131z"/>
		<path d="m91104.320313,-19248.605469c-3,-8.998047 -2,-34.998047 2,-57.998047c3,-23 9,-57 12,-74c6,-41 16,-41 42,-4c27,37 26,49 -5,105c-27,47.998047 -41,55.998047 -51,30.998047z"/>
	</g>
	<path id="reta em cima" d="m85.998024,15.394608l518.496117,0l0,13.210968l-518.496117,0z" fill="#ffffff"/>
	<path id="reta embaixo" d="m15.998024,221.394608l518.496117,0l0,13.210983l-518.496117,0z" fill="#ffffff"/>
</svg>