<svg version="1.1" id="Podcast" xmlns="http://www.w3.org/2000/svg" xmlns:xlink="http://www.w3.org/1999/xlink" x="0px" y="0px" width="620" height="250" xml:space="preserve">
	<rect fill="#007358" id="background" height="602" width="802" y="-1" x="-1"/>
	<g transform="matrix(3.33333, 0, 0, 3.33333, 0, 0)" fill-rule="evenodd" fill="none" id="desenho">
		<g fill-rule="nonzero" fill="#fff">
			<path id="fone" d="m64.50001,34.50821l-1,0l0,-1c-0.00392,-0.71845 -0.39289,-1.3796 -1.019,-1.732c-0.38263,-13.52144 -11.45415,-24.28409 -24.981,-24.28409s-24.59837,10.76265 -24.981,24.28409c-0.62611,0.3524 -1.01508,1.01355 -1.019,1.732l0,1l-1,0c-1.65685,0 -3,1.34315 -3,3l0,12c0,1.65685 1.34315,3 3,3l1,0l0,1c0,1.10457 0.89543,2 2,2l5,0c1.65685,0 3,-1.34315 3,-3l0,-18c0.00023,-1.63752 -1.3127,-2.97271 -2.95,-3c0.51835,-10.08786 8.84883,-18.00128 18.95,-18.00128s18.43165,7.91342 18.95,18.00128c-1.6373,0.02729 -2.95023,1.36248 -2.95,3l0,18c0,1.65685 1.34315,3 3,3l5,0c1.10457,0 2,-0.89543 2,-2l0,-1l1,0c1.65685,0 3,-1.34315 3,-3l0,-12c0,-1.65685 -1.34315,-3 -3,-3zm-54,16c-0.55228,0 -1,-0.44772 -1,-1l0,-12c0,-0.55228 0.44772,-1 1,-1l1,0l0,14l-1,0zm9,-16l0,18c0,0.55228 -0.44772,1 -1,1l-5,0l0,-20l5,0c0.55228,0 1,0.44772 1,1zm18,-23c-11.19707,0.01855 -20.41176,8.81582 -20.949,20l-2.026,0c0.57267,-12.27236 10.68929,-21.92791 22.975,-21.92791s22.40233,9.65555 22.975,21.92791l-2.026,0c-0.53724,-11.18418 -9.75193,-19.98145 -20.949,-20zm24,42l-5,0c-0.55228,0 -1,-0.44772 -1,-1l0,-18c0,-0.55228 0.44772,-1 1,-1l5,0l0,20zm4,-4c0,0.55228 -0.44772,1 -1,1l-1,0l0,-14l1,0c0.55228,0 1,0.44772 1,1l0,12z"/>
			<path id="onda1" d="m50.55101,24.63821c0.38773,-0.00053 0.7402,-0.22514 0.90446,-0.57636c0.16425,-0.35121 0.11069,-0.76572 -0.13746,-1.06364c-3.41116,-4.11126 -8.47586,-6.49006 -13.818,-6.49006s-10.40684,2.3788 -13.818,6.49006c-0.35346,0.42443 -0.29593,1.05504 0.1285,1.4085c0.42443,0.35346 1.05504,0.29593 1.4085,-0.1285c3.03117,-3.65488 7.53273,-5.76976 12.281,-5.76976s9.24983,2.11488 12.281,5.76976c0.19036,0.22854 0.47257,0.36048 0.77,0.36z"/>
			<path id="onda2" d="m48.40001,27.37121c0.43662,-0.33625 0.5189,-0.96235 0.184,-1.4c-2.64556,-3.44298 -6.74098,-5.46092 -11.083,-5.46092s-8.43744,2.01794 -11.083,5.46092c-0.29443,0.43778 -0.19811,1.029 0.22005,1.35068c0.41817,0.32169 1.01431,0.26318 1.36195,-0.13368c2.26677,-2.9506 5.77621,-4.68 9.497,-4.68s7.23023,1.7294 9.497,4.68c0.33655,0.43629 0.96261,0.51813 1.4,0.183l0.006,0z"/>
			<path id="microfone" d="m47.50001,48.50821l0,-14c0,-5.52285 -4.47715,-10 -10,-10s-10,4.47715 -10,10l0,14c0.00592,4.36515 2.83764,8.22397 7,9.539l0,3.461l-4,0c-1.65685,0 -3,1.34315 -3,3l0,2c0,0.55228 0.44772,1 1,1l18,0c0.55228,0 1,-0.44772 1,-1l0,-2c0,-1.65685 -1.34315,-3 -3,-3l-4,0l0,-3.461c4.16236,-1.31503 6.99408,-5.17385 7,-9.539zm-10,-22c4.41622,0.00496 7.99504,3.58378 8,8l-5,0c-0.55228,0 -1,0.44772 -1,1s0.44772,1 1,1l5,0l0,2l-5,0c-0.55228,0 -1,0.44772 -1,1s0.44772,1 1,1l5,0l0,2l-5,0c-0.55228,0 -1,0.44772 -1,1s0.44772,1 1,1l5,0l0,2l-16,0l0,-2l5,0c0.55228,0 1,-0.44772 1,-1s-0.44772,-1 -1,-1l-5,0l0,-2l5,0c0.55228,0 1,-0.44772 1,-1s-0.44772,-1 -1,-1l-5,0l0,-2l5,0c0.55228,0 1,-0.44772 1,-1s-0.44772,-1 -1,-1l-5,0c0.00496,-4.41622 3.58378,-7.99504 8,-8zm-8,22l16,0c0,4.41828 -3.58172,8 -8,8s-8,-3.58172 -8,-8zm16,16l0,1l-16,0l0,-1c0,-0.55228 0.44772,-1 1,-1l14,0c0.55228,0 1,0.44772 1,1zm-7,-3l-2,0l0,-3.051c0.66493,0.068 1.33507,0.068 2,0l0,3.051z"/>
		</g>
	</g>
	<text transform="matrix(3.00659, 0, 0, 3.00659, -639.1, -112.796)" font-style="normal" font-weight="normal" xml:space="preserve" text-anchor="start" font-family="sans-serif" font-size="24" id="podcast" y="87.64547" x="293.88742" stroke-width="0" stroke="#000" fill="#ffffff">PODCAST</text>
	<path fill="#ffffff" id="seta1" d="m301.26704,33.49039c-1.64168,-1.79286 1.67205,-4.82675 3.16169,-2.7601c1.2715,1.79124 -1.5548,4.06864 -3.16169,2.7601zm4.39592,4.08031c-1.34154,-1.9739 2.32926,-4.08286 3.49047,-2.11109c1.37835,2.06185 -2.34634,4.41664 -3.49047,2.11109zm5.00445,4.93684c-1.67601,-1.13454 -0.0104,-3.75156 1.72504,-3.51816c2.41063,0.36793 1.76636,4.38514 -0.58478,4.1882c-0.4564,-0.05293 -0.86302,-0.31211 -1.14026,-0.67004zm4.18604,4.35902c-1.40161,-1.78205 1.83044,-4.12256 3.18914,-2.42569c1.47783,1.88757 -1.82033,4.37908 -3.18914,2.42569zm-8.12868,0.09772c-1.55815,-1.47497 0.72896,-3.85818 2.44967,-3.2361c2.5002,0.8003 0.64138,4.64807 -1.58991,3.77392c-0.30694,-0.14539 -0.5818,-0.34539 -0.85976,-0.53783zm-6.62753,0c-1.83134,-1.71033 1.51478,-4.51996 3.08212,-2.7308c1.5902,1.86492 -1.39395,4.511 -3.08212,2.7308zm-6.54654,-0.09772c-1.40247,-1.78153 1.83134,-4.12337 3.18868,-2.42499c1.47364,1.89057 -1.81533,4.37752 -3.18868,2.42499zm-6.23512,0.09772c-1.83134,-1.71033 1.51478,-4.51996 3.08212,-2.7308c1.59019,1.86492 -1.39395,4.511 -3.08212,2.7308zm-6.54599,-0.09622c-1.60698,-2.10271 2.73915,-4.39745 3.46375,-1.75963c0.53572,1.76529 -2.36556,3.30249 -3.46375,1.75963zm29.63239,4.67396c-1.56153,-1.62019 1.21585,-4.45062 2.88227,-2.97594c2.05792,1.46907 -0.66886,4.87287 -2.55822,3.30198c-0.10656,-0.11008 -0.21575,-0.21763 -0.32405,-0.32604zm-4.73903,4.01767c-1.31634,-1.87763 2.10511,-3.93845 3.34104,-2.17766c1.61218,1.8704 -1.62588,4.41878 -3.11697,2.55022l-0.22407,-0.37256zm-4.23894,4.99671c-1.42218,-1.30102 0.53133,-3.35011 2.07948,-3.0016c2.35646,0.60792 0.87149,4.38711 -1.2899,3.66991c-0.33491,-0.11506 -0.60665,-0.37071 -0.78958,-0.66831z"/>
	<path fill="#ffffff" id="seta2" d="m369.26704,33.49039c-1.64168,-1.79286 1.67205,-4.82675 3.16169,-2.7601c1.2715,1.79124 -1.5548,4.06864 -3.16169,2.7601zm4.39592,4.08031c-1.34154,-1.9739 2.32926,-4.08286 3.49047,-2.11109c1.37835,2.06185 -2.34634,4.41664 -3.49047,2.11109zm5.00445,4.93684c-1.67601,-1.13454 -0.0104,-3.75156 1.72504,-3.51816c2.41063,0.36793 1.76636,4.38514 -0.58478,4.1882c-0.4564,-0.05293 -0.86302,-0.31211 -1.14026,-0.67004zm4.18604,4.35902c-1.40161,-1.78205 1.83044,-4.12256 3.18914,-2.42569c1.47783,1.88757 -1.82033,4.37908 -3.18914,2.42569zm-8.12868,0.09772c-1.55815,-1.47497 0.72896,-3.85818 2.44967,-3.2361c2.5002,0.8003 0.64138,4.64807 -1.58991,3.77392c-0.30694,-0.14539 -0.5818,-0.34539 -0.85976,-0.53783zm-6.62753,0c-1.83134,-1.71033 1.51478,-4.51996 3.08212,-2.7308c1.5902,1.86492 -1.39395,4.511 -3.08212,2.7308zm-6.54654,-0.09772c-1.40247,-1.78153 1.83134,-4.12337 3.18868,-2.42499c1.47364,1.89057 -1.81533,4.37752 -3.18868,2.42499zm-6.23512,0.09772c-1.83134,-1.71033 1.51478,-4.51996 3.08212,-2.7308c1.59019,1.86492 -1.39395,4.511 -3.08212,2.7308zm-6.54599,-0.09622c-1.60698,-2.10271 2.73915,-4.39745 3.46375,-1.75963c0.53572,1.76529 -2.36556,3.30249 -3.46375,1.75963zm29.63239,4.67396c-1.56153,-1.62019 1.21585,-4.45062 2.88227,-2.97594c2.05792,1.46907 -0.66886,4.87287 -2.55822,3.30198c-0.10656,-0.11008 -0.21575,-0.21763 -0.32405,-0.32604zm-4.73903,4.01767c-1.31634,-1.87763 2.10511,-3.93845 3.34104,-2.17766c1.61218,1.8704 -1.62588,4.41878 -3.11697,2.55022l-0.22407,-0.37256zm-4.23894,4.99671c-1.42218,-1.30102 0.53133,-3.35011 2.07948,-3.0016c2.35646,0.60792 0.87149,4.38711 -1.2899,3.66991c-0.33491,-0.11506 -0.60665,-0.37071 -0.78958,-0.66831z"/>
	<path fill="#ffffff" id="seta3" d="m437.26704,33.49039c-1.64168,-1.79286 1.67205,-4.82675 3.16169,-2.7601c1.2715,1.79124 -1.5548,4.06864 -3.16169,2.7601zm4.39592,4.08031c-1.34154,-1.9739 2.32926,-4.08286 3.49047,-2.11109c1.37835,2.06185 -2.34634,4.41664 -3.49047,2.11109zm5.00445,4.93684c-1.67601,-1.13454 -0.0104,-3.75156 1.72504,-3.51816c2.41063,0.36793 1.76636,4.38514 -0.58478,4.1882c-0.4564,-0.05293 -0.86302,-0.31211 -1.14026,-0.67004zm4.18604,4.35902c-1.40161,-1.78205 1.83044,-4.12256 3.18914,-2.42569c1.47783,1.88757 -1.82033,4.37908 -3.18914,2.42569zm-8.12868,0.09772c-1.55815,-1.47497 0.72896,-3.85818 2.44967,-3.2361c2.5002,0.8003 0.64138,4.64807 -1.58991,3.77392c-0.30694,-0.14539 -0.5818,-0.34539 -0.85976,-0.53783zm-6.62753,0c-1.83134,-1.71033 1.51478,-4.51996 3.08212,-2.7308c1.5902,1.86492 -1.39395,4.511 -3.08212,2.7308zm-6.54654,-0.09772c-1.40247,-1.78153 1.83134,-4.12337 3.18868,-2.42499c1.47364,1.89057 -1.81533,4.37752 -3.18868,2.42499zm-6.23512,0.09772c-1.83134,-1.71033 1.51478,-4.51996 3.08212,-2.7308c1.59019,1.86492 -1.39395,4.511 -3.08212,2.7308zm-6.54599,-0.09622c-1.60698,-2.10271 2.73915,-4.39745 3.46375,-1.75963c0.53572,1.76529 -2.36556,3.30249 -3.46375,1.75963zm29.63239,4.67396c-1.56153,-1.62019 1.21585,-4.45062 2.88227,-2.97594c2.05792,1.46907 -0.66886,4.87287 -2.55822,3.30198c-0.10656,-0.11008 -0.21575,-0.21763 -0.32405,-0.32604zm-4.73903,4.01767c-1.31634,-1.87763 2.10511,-3.93845 3.34104,-2.17766c1.61218,1.8704 -1.62588,4.41878 -3.11697,2.55022l-0.22407,-0.37256zm-4.23894,4.99671c-1.42218,-1.30102 0.53133,-3.35011 2.07948,-3.0016c2.35646,0.60792 0.87149,4.38711 -1.2899,3.66991c-0.33491,-0.11506 -0.60665,-0.37071 -0.78958,-0.66831z"/>
	<path fill="#ffffff" id="seta4" d="m505.26704,33.49039c-1.64168,-1.79286 1.67205,-4.82675 3.16169,-2.7601c1.2715,1.79124 -1.5548,4.06864 -3.16169,2.7601zm4.39592,4.08031c-1.34154,-1.9739 2.32926,-4.08286 3.49047,-2.11109c1.37835,2.06185 -2.34634,4.41664 -3.49047,2.11109zm5.00445,4.93684c-1.67601,-1.13454 -0.0104,-3.75156 1.72504,-3.51816c2.41063,0.36793 1.76636,4.38514 -0.58478,4.1882c-0.4564,-0.05293 -0.86302,-0.31211 -1.14026,-0.67004zm4.18604,4.35902c-1.40161,-1.78205 1.83044,-4.12256 3.18914,-2.42569c1.47783,1.88757 -1.82033,4.37908 -3.18914,2.42569zm-8.12868,0.09772c-1.55815,-1.47497 0.72896,-3.85818 2.44967,-3.2361c2.5002,0.8003 0.64138,4.64807 -1.58991,3.77392c-0.30694,-0.14539 -0.5818,-0.34539 -0.85976,-0.53783zm-6.62753,0c-1.83134,-1.71033 1.51478,-4.51996 3.08212,-2.7308c1.5902,1.86492 -1.39395,4.511 -3.08212,2.7308zm-6.54654,-0.09772c-1.40247,-1.78153 1.83134,-4.12337 3.18868,-2.42499c1.47364,1.89057 -1.81533,4.37752 -3.18868,2.42499zm-6.23512,0.09772c-1.83134,-1.71033 1.51478,-4.51996 3.08212,-2.7308c1.59019,1.86492 -1.39395,4.511 -3.08212,2.7308zm-6.54599,-0.09622c-1.60698,-2.10271 2.73915,-4.39745 3.46375,-1.75963c0.53572,1.76529 -2.36556,3.30249 -3.46375,1.75963zm29.63239,4.67396c-1.56153,-1.62019 1.21585,-4.45062 2.88227,-2.97594c2.05792,1.46907 -0.66886,4.87287 -2.55822,3.30198c-0.10656,-0.11008 -0.21575,-0.21763 -0.32405,-0.32604zm-4.73903,4.01767c-1.31634,-1.87763 2.10511,-3.93845 3.34104,-2.17766c1.61218,1.8704 -1.62588,4.41878 -3.11697,2.55022l-0.22407,-0.37256zm-4.23894,4.99671c-1.42218,-1.30102 0.53133,-3.35011 2.07948,-3.0016c2.35646,0.60792 0.87149,4.38711 -1.2899,3.66991c-0.33491,-0.11506 -0.60665,-0.37071 -0.78958,-0.66831z"/>
	<path fill="#ffffff" id="seta5" d="m573.26704,33.49039c-1.64168,-1.79286 1.67205,-4.82675 3.16169,-2.7601c1.2715,1.79124 -1.5548,4.06864 -3.16169,2.7601zm4.39592,4.08031c-1.34154,-1.9739 2.32926,-4.08286 3.49047,-2.11109c1.37835,2.06185 -2.34634,4.41664 -3.49047,2.11109zm5.00445,4.93684c-1.67601,-1.13454 -0.0104,-3.75156 1.72504,-3.51816c2.41063,0.36793 1.76636,4.38514 -0.58478,4.1882c-0.4564,-0.05293 -0.86302,-0.31211 -1.14026,-0.67004zm4.18604,4.35902c-1.40161,-1.78205 1.83044,-4.12256 3.18914,-2.42569c1.47783,1.88757 -1.82033,4.37908 -3.18914,2.42569zm-8.12868,0.09772c-1.55815,-1.47497 0.72896,-3.85818 2.44967,-3.2361c2.5002,0.8003 0.64138,4.64807 -1.58991,3.77392c-0.30694,-0.14539 -0.5818,-0.34539 -0.85976,-0.53783zm-6.62753,0c-1.83134,-1.71033 1.51478,-4.51996 3.08212,-2.7308c1.5902,1.86492 -1.39395,4.511 -3.08212,2.7308zm-6.54654,-0.09772c-1.40247,-1.78153 1.83134,-4.12337 3.18868,-2.42499c1.47364,1.89057 -1.81533,4.37752 -3.18868,2.42499zm-6.23512,0.09772c-1.83134,-1.71033 1.51478,-4.51996 3.08212,-2.7308c1.59019,1.86492 -1.39395,4.511 -3.08212,2.7308zm-6.54599,-0.09622c-1.60698,-2.10271 2.73915,-4.39745 3.46375,-1.75963c0.53572,1.76529 -2.36556,3.30249 -3.46375,1.75963zm29.63239,4.67396c-1.56153,-1.62019 1.21585,-4.45062 2.88227,-2.97594c2.05792,1.46907 -0.66886,4.87287 -2.55822,3.30198c-0.10656,-0.11008 -0.21575,-0.21763 -0.32405,-0.32604zm-4.73903,4.01767c-1.31634,-1.87763 2.10511,-3.93845 3.34104,-2.17766c1.61218,1.8704 -1.62588,4.41878 -3.11697,2.55022l-0.22407,-0.37256zm-4.23894,4.99671c-1.42218,-1.30102 0.53133,-3.35011 2.07948,-3.0016c2.35646,0.60792 0.87149,4.38711 -1.2899,3.66991c-0.33491,-0.11506 -0.60665,-0.37071 -0.78958,-0.66831z"/>
	<path transform="rotate(-180, 299.416, 207.49)" fill="#ffffff" id="seta6" d="m301.26704,195.30637c-1.64168,-1.79286 1.67205,-4.82675 3.16169,-2.7601c1.2715,1.79124 -1.5548,4.06864 -3.16169,2.7601zm4.39592,4.08031c-1.34154,-1.9739 2.32926,-4.08286 3.49047,-2.11109c1.37835,2.06185 -2.34634,4.41664 -3.49047,2.11109zm5.00445,4.93684c-1.67601,-1.13454 -0.0104,-3.75156 1.72504,-3.51816c2.41063,0.36793 1.76636,4.38514 -0.58478,4.1882c-0.4564,-0.05293 -0.86302,-0.31211 -1.14026,-0.67004zm4.18604,4.35902c-1.40161,-1.78205 1.83044,-4.12256 3.18914,-2.42569c1.47783,1.88757 -1.82033,4.37908 -3.18914,2.42569zm-8.12868,0.09772c-1.55815,-1.47497 0.72896,-3.85818 2.44967,-3.2361c2.5002,0.8003 0.64138,4.64807 -1.58991,3.77392c-0.30694,-0.14539 -0.5818,-0.34539 -0.85976,-0.53783zm-6.62753,0c-1.83134,-1.71033 1.51478,-4.51996 3.08212,-2.7308c1.5902,1.86492 -1.39395,4.511 -3.08212,2.7308zm-6.54654,-0.09772c-1.40247,-1.78153 1.83134,-4.12337 3.18868,-2.42499c1.47364,1.89057 -1.81533,4.37752 -3.18868,2.42499zm-6.23512,0.09772c-1.83134,-1.71033 1.51478,-4.51996 3.08212,-2.7308c1.59019,1.86492 -1.39395,4.511 -3.08212,2.7308zm-6.54599,-0.09622c-1.60698,-2.10271 2.73915,-4.39745 3.46375,-1.75963c0.53572,1.76529 -2.36556,3.30249 -3.46375,1.75963zm29.63239,4.67396c-1.56153,-1.62019 1.21585,-4.45062 2.88227,-2.97594c2.05792,1.46907 -0.66886,4.87287 -2.55822,3.30198c-0.10656,-0.11008 -0.21575,-0.21763 -0.32405,-0.32604zm-4.73903,4.01767c-1.31634,-1.87763 2.10511,-3.93845 3.34104,-2.17766c1.61218,1.8704 -1.62588,4.41878 -3.11697,2.55022l-0.22407,-0.37256zm-4.23894,4.99671c-1.42218,-1.30102 0.53133,-3.35011 2.07948,-3.0016c2.35646,0.60792 0.87149,4.38711 -1.2899,3.66991c-0.33491,-0.11506 -0.60665,-0.37071 -0.78958,-0.66831z"/>
	<path transform="rotate(180, 367.416, 207.49)" fill="#ffffff" id="seta7" d="m369.26704,195.30637c-1.64168,-1.79286 1.67205,-4.82675 3.16169,-2.7601c1.2715,1.79124 -1.5548,4.06864 -3.16169,2.7601zm4.39592,4.08031c-1.34154,-1.9739 2.32926,-4.08286 3.49047,-2.11109c1.37835,2.06185 -2.34634,4.41664 -3.49047,2.11109zm5.00445,4.93684c-1.67601,-1.13454 -0.0104,-3.75156 1.72504,-3.51816c2.41063,0.36793 1.76636,4.38514 -0.58478,4.1882c-0.4564,-0.05293 -0.86302,-0.31211 -1.14026,-0.67004zm4.18604,4.35902c-1.40161,-1.78205 1.83044,-4.12256 3.18914,-2.42569c1.47783,1.88757 -1.82033,4.37908 -3.18914,2.42569zm-8.12868,0.09772c-1.55815,-1.47497 0.72896,-3.85818 2.44967,-3.2361c2.5002,0.8003 0.64138,4.64807 -1.58991,3.77392c-0.30694,-0.14539 -0.5818,-0.34539 -0.85976,-0.53783zm-6.62753,0c-1.83134,-1.71033 1.51478,-4.51996 3.08212,-2.7308c1.5902,1.86492 -1.39395,4.511 -3.08212,2.7308zm-6.54654,-0.09772c-1.40247,-1.78153 1.83134,-4.12337 3.18868,-2.42499c1.47364,1.89057 -1.81533,4.37752 -3.18868,2.42499zm-6.23512,0.09772c-1.83134,-1.71033 1.51478,-4.51996 3.08212,-2.7308c1.59019,1.86492 -1.39395,4.511 -3.08212,2.7308zm-6.54599,-0.09622c-1.60698,-2.10271 2.73915,-4.39745 3.46375,-1.75963c0.53572,1.76529 -2.36556,3.30249 -3.46375,1.75963zm29.63239,4.67396c-1.56153,-1.62019 1.21585,-4.45062 2.88227,-2.97594c2.05792,1.46907 -0.66886,4.87287 -2.55822,3.30198c-0.10656,-0.11008 -0.21575,-0.21763 -0.32405,-0.32604zm-4.73903,4.01767c-1.31634,-1.87763 2.10511,-3.93845 3.34104,-2.17766c1.61218,1.8704 -1.62588,4.41878 -3.11697,2.55022l-0.22407,-0.37256zm-4.23894,4.99671c-1.42218,-1.30102 0.53133,-3.35011 2.07948,-3.0016c2.35646,0.60792 0.87149,4.38711 -1.2899,3.66991c-0.33491,-0.11506 -0.60665,-0.37071 -0.78958,-0.66831z"/>
	<path transform="rotate(180, 435.416, 207.49)" fill="#ffffff" id="seta8" d="m437.26704,195.30637c-1.64168,-1.79286 1.67205,-4.82675 3.16169,-2.7601c1.2715,1.79124 -1.5548,4.06864 -3.16169,2.7601zm4.39592,4.08031c-1.34154,-1.9739 2.32926,-4.08286 3.49047,-2.11109c1.37835,2.06185 -2.34634,4.41664 -3.49047,2.11109zm5.00445,4.93684c-1.67601,-1.13454 -0.0104,-3.75156 1.72504,-3.51816c2.41063,0.36793 1.76636,4.38514 -0.58478,4.1882c-0.4564,-0.05293 -0.86302,-0.31211 -1.14026,-0.67004zm4.18604,4.35902c-1.40161,-1.78205 1.83044,-4.12256 3.18914,-2.42569c1.47783,1.88757 -1.82033,4.37908 -3.18914,2.42569zm-8.12868,0.09772c-1.55815,-1.47497 0.72896,-3.85818 2.44967,-3.2361c2.5002,0.8003 0.64138,4.64807 -1.58991,3.77392c-0.30694,-0.14539 -0.5818,-0.34539 -0.85976,-0.53783zm-6.62753,0c-1.83134,-1.71033 1.51478,-4.51996 3.08212,-2.7308c1.5902,1.86492 -1.39395,4.511 -3.08212,2.7308zm-6.54654,-0.09772c-1.40247,-1.78153 1.83134,-4.12337 3.18868,-2.42499c1.47364,1.89057 -1.81533,4.37752 -3.18868,2.42499zm-6.23512,0.09772c-1.83134,-1.71033 1.51478,-4.51996 3.08212,-2.7308c1.59019,1.86492 -1.39395,4.511 -3.08212,2.7308zm-6.54599,-0.09622c-1.60698,-2.10271 2.73915,-4.39745 3.46375,-1.75963c0.53572,1.76529 -2.36556,3.30249 -3.46375,1.75963zm29.63239,4.67396c-1.56153,-1.62019 1.21585,-4.45062 2.88227,-2.97594c2.05792,1.46907 -0.66886,4.87287 -2.55822,3.30198c-0.10656,-0.11008 -0.21575,-0.21763 -0.32405,-0.32604zm-4.73903,4.01767c-1.31634,-1.87763 2.10511,-3.93845 3.34104,-2.17766c1.61218,1.8704 -1.62588,4.41878 -3.11697,2.55022l-0.22407,-0.37256zm-4.23894,4.99671c-1.42218,-1.30102 0.53133,-3.35011 2.07948,-3.0016c2.35646,0.60792 0.87149,4.38711 -1.2899,3.66991c-0.33491,-0.11506 -0.60665,-0.37071 -0.78958,-0.66831z"/>
	<path transform="rotate(180, 503.416, 207.49)" fill="#ffffff" id="seta9" d="m505.26704,195.30637c-1.64168,-1.79286 1.67205,-4.82675 3.16169,-2.7601c1.2715,1.79124 -1.5548,4.06864 -3.16169,2.7601zm4.39592,4.08031c-1.34154,-1.9739 2.32926,-4.08286 3.49047,-2.11109c1.37835,2.06185 -2.34634,4.41664 -3.49047,2.11109zm5.00445,4.93684c-1.67601,-1.13454 -0.0104,-3.75156 1.72504,-3.51816c2.41063,0.36793 1.76636,4.38514 -0.58478,4.1882c-0.4564,-0.05293 -0.86302,-0.31211 -1.14026,-0.67004zm4.18604,4.35902c-1.40161,-1.78205 1.83044,-4.12256 3.18914,-2.42569c1.47783,1.88757 -1.82033,4.37908 -3.18914,2.42569zm-8.12868,0.09772c-1.55815,-1.47497 0.72896,-3.85818 2.44967,-3.2361c2.5002,0.8003 0.64138,4.64807 -1.58991,3.77392c-0.30694,-0.14539 -0.5818,-0.34539 -0.85976,-0.53783zm-6.62753,0c-1.83134,-1.71033 1.51478,-4.51996 3.08212,-2.7308c1.5902,1.86492 -1.39395,4.511 -3.08212,2.7308zm-6.54654,-0.09772c-1.40247,-1.78153 1.83134,-4.12337 3.18868,-2.42499c1.47364,1.89057 -1.81533,4.37752 -3.18868,2.42499zm-6.23512,0.09772c-1.83134,-1.71033 1.51478,-4.51996 3.08212,-2.7308c1.59019,1.86492 -1.39395,4.511 -3.08212,2.7308zm-6.54599,-0.09622c-1.60698,-2.10271 2.73915,-4.39745 3.46375,-1.75963c0.53572,1.76529 -2.36556,3.30249 -3.46375,1.75963zm29.63239,4.67396c-1.56153,-1.62019 1.21585,-4.45062 2.88227,-2.97594c2.05792,1.46907 -0.66886,4.87287 -2.55822,3.30198c-0.10656,-0.11008 -0.21575,-0.21763 -0.32405,-0.32604zm-4.73903,4.01767c-1.31634,-1.87763 2.10511,-3.93845 3.34104,-2.17766c1.61218,1.8704 -1.62588,4.41878 -3.11697,2.55022l-0.22407,-0.37256zm-4.23894,4.99671c-1.42218,-1.30102 0.53133,-3.35011 2.07948,-3.0016c2.35646,0.60792 0.87149,4.38711 -1.2899,3.66991c-0.33491,-0.11506 -0.60665,-0.37071 -0.78958,-0.66831z"/>
	<path transform="rotate(180, 571.416, 207.49)" fill="#ffffff" id="seta10" d="m573.26704,195.30637c-1.64168,-1.79286 1.67205,-4.82675 3.16169,-2.7601c1.2715,1.79124 -1.5548,4.06864 -3.16169,2.7601zm4.39592,4.08031c-1.34154,-1.9739 2.32926,-4.08286 3.49047,-2.11109c1.37835,2.06185 -2.34634,4.41664 -3.49047,2.11109zm5.00445,4.93684c-1.67601,-1.13454 -0.0104,-3.75156 1.72504,-3.51816c2.41063,0.36793 1.76636,4.38514 -0.58478,4.1882c-0.4564,-0.05293 -0.86302,-0.31211 -1.14026,-0.67004zm4.18604,4.35902c-1.40161,-1.78205 1.83044,-4.12256 3.18914,-2.42569c1.47783,1.88757 -1.82033,4.37908 -3.18914,2.42569zm-8.12868,0.09772c-1.55815,-1.47497 0.72896,-3.85818 2.44967,-3.2361c2.5002,0.8003 0.64138,4.64807 -1.58991,3.77392c-0.30694,-0.14539 -0.5818,-0.34539 -0.85976,-0.53783zm-6.62753,0c-1.83134,-1.71033 1.51478,-4.51996 3.08212,-2.7308c1.5902,1.86492 -1.39395,4.511 -3.08212,2.7308zm-6.54654,-0.09772c-1.40247,-1.78153 1.83134,-4.12337 3.18868,-2.42499c1.47364,1.89057 -1.81533,4.37752 -3.18868,2.42499zm-6.23512,0.09772c-1.83134,-1.71033 1.51478,-4.51996 3.08212,-2.7308c1.59019,1.86492 -1.39395,4.511 -3.08212,2.7308zm-6.54599,-0.09622c-1.60698,-2.10271 2.73915,-4.39745 3.46375,-1.75963c0.53572,1.76529 -2.36556,3.30249 -3.46375,1.75963zm29.63239,4.67396c-1.56153,-1.62019 1.21585,-4.45062 2.88227,-2.97594c2.05792,1.46907 -0.66886,4.87287 -2.55822,3.30198c-0.10656,-0.11008 -0.21575,-0.21763 -0.32405,-0.32604zm-4.73903,4.01767c-1.31634,-1.87763 2.10511,-3.93845 3.34104,-2.17766c1.61218,1.8704 -1.62588,4.41878 -3.11697,2.55022l-0.22407,-0.37256zm-4.23894,4.99671c-1.42218,-1.30102 0.53133,-3.35011 2.07948,-3.0016c2.35646,0.60792 0.87149,4.38711 -1.2899,3.66991c-0.33491,-0.11506 -0.60665,-0.37071 -0.78958,-0.66831z"/>
</svg>